{"glyphs":{"0":{"ha":794,"x_min":67,"x_max":728,"o":"m 186 451 q 240 176 186 265 q 397 86 294 86 q 554 176 500 86 q 608 451 608 265 q 554 727 608 638 q 397 817 500 817 q 240 727 294 817 q 186 451 186 638 m 67 451 q 153 794 67 672 q 397 917 240 917 q 641 794 554 917 q 728 451 728 672 q 641 108 728 231 q 397 -14 554 -14 q 153 108 240 -14 q 67 451 67 231 z "},"1":{"ha":794,"x_min":133,"x_max":686,"o":"m 354 792 l 163 731 l 163 828 l 374 903 l 474 903 l 474 108 l 686 108 l 686 0 l 133 0 l 133 108 l 354 108 l 354 792 z "},"2":{"ha":794,"x_min":86,"x_max":694,"o":"m 369 808 q 255 794 311 808 q 154 758 199 779 l 124 858 q 232 899 168 881 q 371 917 296 917 q 593 850 522 917 q 664 672 664 783 q 642 562 664 615 q 585 456 621 508 q 499 353 549 404 q 396 250 450 301 l 250 111 l 694 111 l 694 0 l 86 0 l 86 90 l 311 318 q 412 423 368 376 q 485 510 456 469 q 529 590 514 551 q 544 672 544 629 q 497 775 544 742 q 369 808 449 808 z "},"3":{"ha":794,"x_min":86,"x_max":672,"o":"m 346 92 q 504 137 453 92 q 556 256 556 182 q 503 375 556 336 q 361 414 450 414 l 229 414 l 229 514 l 361 514 q 482 555 435 514 q 529 675 529 596 q 483 775 529 739 q 326 811 436 811 q 210 799 261 811 q 118 767 158 786 l 88 864 q 196 901 132 886 q 333 917 260 917 q 476 898 417 917 q 573 847 535 879 q 628 770 611 814 q 646 676 646 726 q 608 543 646 590 q 511 469 569 496 q 627 396 582 450 q 672 254 672 342 q 588 59 672 132 q 347 -14 504 -14 q 198 2 264 -14 q 86 42 132 18 l 117 139 q 216 106 157 119 q 346 92 275 92 z "},"4":{"ha":794,"x_min":64,"x_max":731,"o":"m 511 272 l 511 714 l 199 272 l 511 272 m 526 903 l 625 903 l 625 272 l 731 272 l 731 172 l 625 172 l 625 0 l 508 0 l 508 172 l 64 172 l 64 254 l 526 903 z "},"5":{"ha":794,"x_min":83,"x_max":692,"o":"m 346 92 q 445 106 403 92 q 516 146 488 121 q 558 205 544 171 q 572 278 572 239 q 522 414 572 365 q 351 463 471 463 l 124 463 l 124 544 l 158 903 l 636 903 l 636 792 l 261 792 l 240 571 l 353 571 q 606 493 519 571 q 692 279 692 415 q 600 65 692 143 q 347 -14 508 -14 q 195 2 261 -14 q 83 42 129 18 l 114 139 q 212 106 154 119 q 346 92 269 92 z "},"6":{"ha":794,"x_min":83,"x_max":725,"o":"m 436 497 q 301 469 360 497 q 204 401 242 440 q 222 268 204 326 q 268 169 239 210 q 337 107 297 128 q 421 86 376 86 q 555 144 504 86 q 606 306 606 201 q 597 379 606 344 q 569 440 589 414 q 517 482 550 467 q 436 497 485 497 m 450 817 q 272 733 338 817 q 203 494 206 650 q 242 530 218 511 q 297 564 265 549 q 367 589 328 579 q 453 599 406 599 q 561 578 511 599 q 648 520 611 558 q 705 427 685 482 q 725 303 725 372 q 703 178 725 236 q 642 77 682 119 q 547 10 603 35 q 421 -14 490 -14 q 172 101 261 -14 q 83 442 83 215 q 110 645 83 557 q 184 794 136 733 q 299 885 232 854 q 447 917 365 917 q 562 902 514 917 q 653 864 610 888 l 624 772 q 450 817 547 817 z "},"7":{"ha":794,"x_min":100,"x_max":703,"o":"m 100 903 l 703 903 l 703 824 l 315 0 l 190 0 l 565 794 l 100 794 l 100 903 z "},"8":{"ha":794,"x_min":81,"x_max":714,"o":"m 397 83 q 544 128 492 83 q 597 247 597 172 q 549 372 597 331 q 397 414 501 414 q 245 372 293 414 q 197 247 197 331 q 250 128 197 172 q 397 83 303 83 m 397 917 q 612 851 536 917 q 688 675 688 786 q 647 541 688 593 q 544 469 606 489 q 610 444 579 463 q 663 395 640 425 q 700 327 686 365 q 714 244 714 289 q 630 56 714 125 q 397 -14 546 -14 q 165 56 249 -14 q 81 244 81 125 q 94 327 81 289 q 131 395 108 365 q 185 444 154 425 q 250 469 215 463 q 148 541 189 489 q 107 675 107 593 q 183 851 107 786 q 397 917 258 917 m 397 819 q 270 781 317 819 q 224 669 224 743 q 269 551 224 592 q 397 511 315 511 q 525 551 479 511 q 571 669 571 592 q 524 781 571 743 q 397 819 478 819 z "},"9":{"ha":794,"x_min":69,"x_max":711,"o":"m 358 406 q 494 434 435 406 q 590 501 553 463 q 573 635 590 576 q 526 734 556 693 q 458 796 497 775 q 374 817 418 817 q 240 759 290 817 q 189 597 189 701 q 197 524 189 558 q 225 463 206 489 q 277 421 244 436 q 358 406 310 406 m 333 86 q 528 170 467 86 q 592 408 589 254 q 553 373 576 392 q 498 339 529 354 q 428 314 467 324 q 342 304 389 304 q 233 324 283 304 q 147 383 183 344 q 90 476 110 421 q 69 600 69 531 q 91 725 69 667 q 152 826 113 783 q 248 892 192 868 q 374 917 304 917 q 622 802 533 917 q 711 461 711 688 q 616 106 711 225 q 336 -14 521 -14 q 216 0 269 -14 q 118 36 163 14 l 147 128 q 237 97 188 107 q 333 86 286 86 z "},"\u0000":{"ha":0,"x_min":0,"x_max":0,"o":""},"\r":{"ha":271,"x_min":0,"x_max":0,"o":""}," ":{"ha":347,"x_min":0,"x_max":0,"o":""},"!":{"ha":353,"x_min":92,"x_max":261,"o":"m 238 722 l 222 261 l 131 261 l 115 722 l 115 936 l 238 936 l 238 722 m 92 69 q 114 128 92 104 q 176 153 136 153 q 239 128 217 153 q 261 69 261 104 q 239 10 261 35 q 176 -14 217 -14 q 114 10 136 -14 q 92 69 92 35 z "},"\"":{"ha":469,"x_min":78,"x_max":392,"o":"m 169 628 l 94 628 l 78 956 l 186 956 l 169 628 m 375 628 l 300 628 l 283 956 l 392 956 l 375 628 z "},"#":{"ha":794,"x_min":39,"x_max":756,"o":"m 96 625 l 242 625 l 301 903 l 399 903 l 339 625 l 531 625 l 590 903 l 688 903 l 628 625 l 756 625 l 756 542 l 610 542 l 571 361 l 699 361 l 699 278 l 553 278 l 493 0 l 396 0 l 456 278 l 264 278 l 204 0 l 107 0 l 167 278 l 39 278 l 39 361 l 185 361 l 224 542 l 96 542 l 96 625 m 281 360 l 475 360 l 514 543 l 319 543 l 281 360 z "},"$":{"ha":794,"x_min":103,"x_max":686,"o":"m 354 -14 q 206 1 264 -14 q 103 38 147 15 l 132 133 q 225 103 169 115 q 354 90 281 90 l 354 415 q 268 447 313 429 q 187 494 224 465 q 126 567 150 524 q 103 674 103 610 q 163 835 103 769 q 354 914 222 900 l 354 1042 l 432 1042 l 432 917 q 542 901 492 914 q 636 868 593 889 l 608 772 q 526 799 571 788 q 432 813 481 810 l 432 504 q 522 469 476 489 q 603 419 567 449 q 663 345 640 389 q 686 239 686 301 q 617 67 686 126 q 432 -8 547 7 l 432 -139 l 354 -139 l 354 -14 m 579 242 q 567 295 579 272 q 536 335 556 318 q 490 366 517 353 q 432 390 463 379 l 432 97 q 538 144 497 108 q 579 242 579 179 m 208 676 q 219 624 208 646 q 251 585 231 601 q 297 556 271 568 q 354 532 324 543 l 354 808 q 244 764 279 799 q 208 676 208 729 z "},"%":{"ha":1078,"x_min":58,"x_max":1019,"o":"m 744 917 l 842 917 l 333 0 l 236 0 l 744 917 m 153 672 q 158 610 153 640 q 176 556 164 579 q 208 518 189 532 q 256 504 228 504 q 303 519 283 504 q 335 556 322 533 q 353 609 347 579 q 358 671 358 639 q 353 733 358 703 q 335 788 347 764 q 303 826 322 811 q 256 840 283 840 q 208 826 228 840 q 176 788 189 811 q 158 733 164 764 q 153 672 153 703 m 58 672 q 71 767 58 722 q 108 844 83 811 q 170 897 133 878 q 256 917 207 917 q 340 897 303 917 q 401 844 376 878 q 440 767 426 811 q 453 672 453 722 q 440 578 453 622 q 401 500 426 533 q 340 447 376 467 q 256 428 303 428 q 170 447 207 428 q 108 500 133 467 q 71 578 83 533 q 58 672 58 622 m 719 231 q 725 168 719 199 q 743 114 731 138 q 775 76 756 90 q 822 63 794 63 q 869 77 850 63 q 901 115 889 92 q 919 167 914 138 q 925 229 925 197 q 919 292 925 261 q 901 346 914 322 q 869 384 889 369 q 822 399 850 399 q 775 384 794 399 q 743 346 756 369 q 725 292 731 322 q 719 231 719 261 m 625 231 q 638 325 625 281 q 675 403 650 369 q 737 456 700 436 q 822 475 774 475 q 906 456 869 475 q 968 403 943 436 q 1006 325 993 369 q 1019 231 1019 281 q 1006 136 1019 181 q 968 58 993 92 q 906 6 943 25 q 822 -14 869 -14 q 737 6 774 -14 q 675 58 700 25 q 638 136 650 92 q 625 231 625 181 z "},"&":{"ha":881,"x_min":89,"x_max":836,"o":"m 653 63 q 539 6 601 26 q 404 -14 476 -14 q 263 7 322 -14 q 165 65 203 28 q 108 150 126 101 q 89 256 89 199 q 103 342 89 303 q 143 414 118 382 q 201 473 168 446 q 268 524 233 500 l 257 538 q 188 636 214 589 q 163 738 163 683 q 221 893 163 836 q 392 950 279 950 q 494 934 451 950 q 563 890 536 918 q 603 825 590 863 q 615 744 615 788 q 599 669 615 703 q 553 606 582 635 q 490 551 525 576 q 417 501 454 526 l 650 222 q 699 413 699 303 l 699 486 l 815 486 l 815 413 q 792 258 815 329 q 725 133 768 188 l 836 0 l 706 0 l 653 63 m 407 97 q 581 149 513 97 l 335 443 q 249 362 283 406 q 214 260 214 318 q 264 140 214 182 q 407 97 314 97 m 275 744 q 292 667 275 706 q 344 589 308 629 l 353 578 q 410 615 383 596 q 458 655 438 635 q 490 698 478 675 q 501 747 501 721 q 476 824 501 794 q 390 853 450 853 q 306 826 338 853 q 275 744 275 799 z "},"'":{"ha":264,"x_min":78,"x_max":186,"o":"m 169 628 l 94 628 l 78 956 l 186 956 l 169 628 z "},"(":{"ha":415,"x_min":97,"x_max":401,"o":"m 97 393 q 119 599 97 507 q 179 762 142 690 q 267 885 217 833 q 374 969 317 936 l 401 918 q 315 831 351 885 q 253 708 278 776 q 215 558 228 639 q 203 393 203 478 q 215 227 203 307 q 253 78 228 147 q 315 -44 278 10 q 401 -132 351 -99 l 374 -183 q 267 -99 317 -150 q 179 24 217 -47 q 119 188 142 96 q 97 393 97 279 z "},")":{"ha":415,"x_min":14,"x_max":318,"o":"m 318 393 q 296 188 318 279 q 236 24 274 96 q 149 -99 199 -47 q 42 -183 99 -150 l 14 -132 q 101 -44 64 -99 q 163 78 138 10 q 200 227 188 147 q 213 393 213 307 q 200 558 213 478 q 163 708 188 639 q 101 831 138 776 q 14 918 64 885 l 42 969 q 149 885 99 936 q 236 762 199 833 q 296 599 274 690 q 318 393 318 507 z "},"*":{"ha":706,"x_min":83,"x_max":622,"o":"m 622 779 l 429 651 l 429 640 l 622 510 l 546 436 l 394 586 l 385 585 l 410 358 l 296 358 l 322 585 l 313 586 l 161 436 l 83 510 l 276 640 l 276 651 l 83 779 l 161 854 l 313 706 l 322 708 l 296 936 l 410 936 l 385 708 l 394 706 l 546 854 l 622 779 z "},"+":{"ha":794,"x_min":103,"x_max":692,"o":"m 450 689 l 450 442 l 692 442 l 692 347 l 450 347 l 450 100 l 344 100 l 344 347 l 103 347 l 103 442 l 344 442 l 344 689 l 450 689 z "},",":{"ha":336,"x_min":72,"x_max":250,"o":"m 250 147 l 144 -174 l 72 -174 l 114 147 l 250 147 z "},"-":{"ha":450,"x_min":42,"x_max":408,"o":"m 408 421 l 408 326 l 42 326 l 42 421 l 408 421 z "},".":{"ha":336,"x_min":83,"x_max":253,"o":"m 83 69 q 106 128 83 104 q 168 153 128 153 q 231 128 208 153 q 253 69 253 104 q 231 10 253 35 q 168 -14 208 -14 q 106 10 128 -14 q 83 69 83 35 z "},"/":{"ha":515,"x_min":14,"x_max":501,"o":"m 107 -56 l 14 -56 l 408 936 l 501 936 l 107 -56 z "},":":{"ha":364,"x_min":97,"x_max":267,"o":"m 97 581 q 119 640 97 615 q 182 664 142 664 q 244 640 222 664 q 267 581 267 615 q 244 522 267 546 q 182 497 222 497 q 119 522 142 497 q 97 581 97 546 m 97 69 q 119 128 97 104 q 182 153 142 153 q 244 128 222 153 q 267 69 267 104 q 244 10 267 35 q 182 -14 222 -14 q 119 10 142 -14 q 97 69 97 35 z "},";":{"ha":364,"x_min":79,"x_max":267,"o":"m 97 581 q 119 640 97 615 q 182 664 142 664 q 244 640 222 664 q 267 581 267 615 q 244 522 267 546 q 182 497 222 497 q 119 522 142 497 q 97 581 97 546 m 257 147 l 151 -174 l 79 -174 l 121 147 l 257 147 z "},"<":{"ha":794,"x_min":92,"x_max":683,"o":"m 92 433 l 683 754 l 683 643 l 210 394 l 683 146 l 683 35 l 92 356 l 92 433 z "},"=":{"ha":794,"x_min":117,"x_max":678,"o":"m 678 317 l 678 222 l 117 222 l 117 317 l 678 317 m 678 567 l 678 472 l 117 472 l 117 567 l 678 567 z "},">":{"ha":794,"x_min":111,"x_max":703,"o":"m 703 356 l 111 35 l 111 146 l 585 394 l 111 643 l 111 754 l 703 433 l 703 356 z "},"?":{"ha":686,"x_min":67,"x_max":603,"o":"m 314 842 q 199 827 256 842 q 97 792 142 813 l 67 892 q 176 932 111 914 q 315 950 240 950 q 533 887 463 950 q 603 719 603 824 q 585 623 603 665 q 539 546 567 581 q 480 481 511 511 q 421 423 449 451 q 375 365 393 394 q 357 299 357 335 q 369 222 357 253 l 274 222 q 259 259 264 238 q 254 303 254 281 q 271 383 254 347 q 313 449 288 418 q 369 507 339 479 q 424 565 399 535 q 467 629 450 594 q 483 708 483 664 q 474 759 483 735 q 443 801 464 783 q 390 831 422 819 q 314 842 358 842 m 236 69 q 258 128 236 104 q 321 153 281 153 q 383 128 361 153 q 406 69 406 104 q 383 10 406 35 q 321 -14 361 -14 q 258 10 281 -14 q 236 69 236 35 z "},"@":{"ha":1139,"x_min":83,"x_max":1056,"o":"m 708 636 q 658 653 689 647 q 592 660 628 660 q 453 608 496 660 q 411 461 411 556 q 422 373 411 410 q 453 313 433 336 q 497 278 472 289 q 551 267 522 267 q 664 323 619 267 q 708 472 708 379 l 708 636 m 147 454 q 180 277 147 353 q 269 151 213 201 q 400 75 325 100 q 560 50 475 50 q 673 65 617 50 q 774 107 729 79 l 803 50 q 697 3 758 21 q 557 -14 635 -14 q 371 15 457 -14 q 221 103 285 44 q 120 249 157 161 q 83 454 83 336 q 117 642 83 553 q 216 801 151 732 q 374 910 281 869 q 585 950 467 950 q 781 916 693 950 q 929 822 868 882 q 1023 677 990 761 q 1056 493 1056 593 q 1040 352 1056 411 q 999 254 1025 293 q 939 197 974 215 q 867 179 904 179 q 780 216 814 179 q 743 306 746 253 q 712 263 732 285 q 664 223 692 240 q 603 194 636 206 q 533 182 569 182 q 376 256 433 182 q 318 457 318 329 q 331 565 318 513 q 376 656 344 617 q 461 720 408 696 q 593 744 514 744 q 707 731 653 744 q 808 692 761 717 l 808 358 q 812 317 808 336 q 823 282 815 297 q 844 258 831 267 q 876 249 857 249 q 914 261 894 249 q 949 303 933 274 q 976 381 965 332 q 986 506 986 431 q 963 644 986 576 q 890 766 939 713 q 766 853 842 819 q 586 886 690 886 q 401 852 483 886 q 263 759 319 818 q 177 622 207 700 q 147 454 147 543 z "},"A":{"ha":869,"x_min":28,"x_max":842,"o":"m 626 251 l 242 251 l 151 0 l 28 0 l 374 936 l 496 936 l 842 0 l 718 0 l 626 251 m 282 360 l 588 360 l 493 617 l 436 800 l 433 800 l 376 617 l 282 360 z "},"B":{"ha":856,"x_min":111,"x_max":794,"o":"m 615 492 q 679 469 647 486 q 737 426 711 453 q 778 360 763 399 q 794 272 794 322 q 774 163 794 213 q 713 76 754 113 q 608 20 671 40 q 460 0 544 0 l 111 0 l 111 936 l 458 936 q 588 917 532 936 q 681 865 643 899 q 737 785 718 832 q 756 685 756 739 q 742 613 756 644 q 707 556 728 581 q 662 516 686 532 q 615 492 638 500 m 458 107 q 620 150 563 107 q 678 272 678 193 q 662 347 678 317 q 617 395 646 376 q 547 422 588 414 q 457 431 507 431 l 228 431 l 228 107 l 458 107 m 460 536 q 530 546 497 536 q 587 575 563 556 q 625 624 611 594 q 639 690 639 653 q 590 794 639 758 q 458 829 542 829 l 228 829 l 228 536 l 460 536 z "},"C":{"ha":794,"x_min":61,"x_max":742,"o":"m 507 842 q 267 744 354 842 q 181 468 181 647 q 265 193 181 292 q 508 94 350 94 q 613 105 561 94 q 711 138 665 115 l 742 36 q 633 -1 690 11 q 506 -14 575 -14 q 307 21 390 -14 q 169 119 224 56 q 88 271 114 182 q 61 468 61 360 q 90 663 61 574 q 176 815 119 751 q 315 915 232 879 q 506 950 399 950 q 632 939 579 950 q 733 906 685 928 l 703 806 q 507 842 625 842 z "},"D":{"ha":908,"x_min":111,"x_max":844,"o":"m 844 469 q 728 119 844 239 q 383 0 613 0 l 111 0 l 111 936 l 383 936 q 728 818 613 936 q 844 469 844 700 m 725 469 q 637 743 725 661 q 383 825 549 825 l 231 825 l 231 111 l 383 111 q 637 194 549 111 q 725 469 725 278 z "},"E":{"ha":758,"x_min":111,"x_max":692,"o":"m 111 936 l 683 936 l 683 826 l 231 826 l 231 539 l 656 539 l 656 429 l 231 429 l 231 110 l 692 110 l 692 0 l 111 0 l 111 936 z "},"F":{"ha":731,"x_min":111,"x_max":672,"o":"m 111 936 l 672 936 l 672 826 l 231 826 l 231 525 l 644 525 l 644 415 l 231 415 l 231 0 l 111 0 l 111 936 z "},"G":{"ha":894,"x_min":61,"x_max":797,"o":"m 526 842 q 274 749 367 842 q 181 471 181 657 q 201 317 181 386 q 258 198 222 247 q 345 122 294 149 q 457 94 396 94 q 618 148 556 94 q 681 321 681 201 l 681 417 l 493 417 l 493 525 l 797 525 l 797 0 l 700 0 l 681 110 q 597 22 653 58 q 451 -14 542 -14 q 287 20 360 -14 q 164 118 214 54 q 88 271 114 182 q 61 471 61 360 q 92 672 61 583 q 182 823 122 761 q 328 917 242 885 q 525 950 414 950 q 653 938 599 950 q 757 903 708 925 l 726 803 q 633 832 686 822 q 526 842 581 842 z "},"H":{"ha":917,"x_min":111,"x_max":806,"o":"m 686 428 l 231 428 l 231 0 l 111 0 l 111 936 l 231 936 l 231 539 l 686 539 l 686 936 l 806 936 l 806 0 l 686 0 l 686 428 z "},"I":{"ha":347,"x_min":114,"x_max":233,"o":"m 233 0 l 114 0 l 114 936 l 233 936 l 233 0 z "},"J":{"ha":531,"x_min":14,"x_max":422,"o":"m 422 271 q 363 57 422 125 q 179 -11 303 -11 q 83 -1 124 -11 q 14 25 42 10 l 44 126 q 99 106 65 114 q 178 97 133 97 q 268 137 233 97 q 303 271 303 176 l 303 936 l 422 936 l 422 271 z "},"K":{"ha":839,"x_min":111,"x_max":825,"o":"m 411 499 l 825 0 l 678 0 l 293 467 l 293 524 l 668 936 l 810 936 l 411 499 m 231 0 l 111 0 l 111 936 l 231 936 l 231 0 z "},"L":{"ha":714,"x_min":111,"x_max":672,"o":"m 111 936 l 231 936 l 231 111 l 672 111 l 672 0 l 111 0 l 111 936 z "},"M":{"ha":1100,"x_min":111,"x_max":989,"o":"m 486 151 l 286 600 q 253 676 269 638 q 222 767 238 715 l 219 767 q 228 651 226 704 q 231 569 231 599 l 231 0 l 111 0 l 111 936 l 256 936 l 476 438 q 521 334 504 378 q 549 263 538 290 l 551 263 q 579 334 563 290 q 624 438 596 378 l 844 936 l 989 936 l 989 0 l 869 0 l 869 569 q 872 651 869 599 q 881 767 874 704 l 878 767 q 847 676 863 715 q 814 600 831 638 l 614 151 l 486 151 z "},"N":{"ha":925,"x_min":111,"x_max":814,"o":"m 611 332 q 663 241 639 288 q 703 163 688 194 l 706 163 q 697 260 699 211 q 694 368 694 310 l 694 936 l 814 936 l 814 0 l 686 0 l 314 604 q 262 695 286 649 q 222 774 238 742 l 219 774 q 228 676 226 725 q 231 568 231 626 l 231 0 l 111 0 l 111 936 l 239 936 l 611 332 z "},"O":{"ha":961,"x_min":61,"x_max":900,"o":"m 481 86 q 706 185 632 86 q 781 468 781 285 q 706 751 781 651 q 481 850 632 850 q 255 751 329 850 q 181 468 181 651 q 255 185 181 285 q 481 86 329 86 m 481 -14 q 292 23 371 -14 q 161 124 213 60 q 85 277 110 189 q 61 468 61 365 q 85 659 61 571 q 161 812 110 747 q 292 913 213 876 q 481 950 371 950 q 669 913 590 950 q 800 812 749 876 q 876 659 851 747 q 900 468 900 571 q 876 277 900 365 q 800 124 851 189 q 669 23 749 60 q 481 -14 590 -14 z "},"P":{"ha":786,"x_min":111,"x_max":728,"o":"m 728 644 q 706 528 728 582 q 642 433 683 474 q 542 369 601 392 q 410 346 483 346 l 231 346 l 231 0 l 111 0 l 111 936 l 418 936 q 549 913 492 936 q 647 851 607 890 q 707 758 686 811 q 728 644 728 706 m 608 644 q 560 776 608 728 q 418 825 511 825 l 231 825 l 231 457 l 410 457 q 556 507 503 457 q 608 644 608 557 z "},"Q":{"ha":961,"x_min":61,"x_max":900,"o":"m 294 -111 q 395 -82 357 -111 q 449 -12 433 -53 q 274 31 347 -7 q 154 133 201 69 q 84 283 107 197 q 61 468 61 368 q 85 659 61 571 q 161 812 110 747 q 292 913 213 876 q 481 950 371 950 q 669 913 590 950 q 800 812 749 876 q 876 659 851 747 q 900 468 900 571 q 880 294 900 375 q 818 150 860 213 q 713 46 776 88 q 560 -8 649 4 q 527 -66 549 -36 q 474 -111 506 -96 l 744 -111 l 744 -214 l 276 -214 l 276 -111 l 294 -111 m 481 86 q 706 185 632 86 q 781 468 781 285 q 706 751 781 651 q 481 850 632 850 q 255 751 329 850 q 181 468 181 651 q 255 185 181 285 q 481 86 329 86 z "},"R":{"ha":819,"x_min":111,"x_max":764,"o":"m 756 656 q 741 563 756 607 q 699 483 726 519 q 631 421 671 447 q 542 381 592 394 l 764 0 l 633 0 l 419 368 l 231 368 l 231 0 l 111 0 l 111 936 l 446 936 q 577 914 519 936 q 674 854 635 892 q 735 765 714 817 q 756 656 756 714 m 636 656 q 588 779 636 733 q 446 825 539 825 l 231 825 l 231 479 l 438 479 q 583 527 531 479 q 636 656 636 575 z "},"S":{"ha":736,"x_min":69,"x_max":667,"o":"m 324 -14 q 175 1 235 -14 q 69 39 115 15 l 100 138 q 196 106 139 118 q 324 93 253 93 q 415 102 374 93 q 487 130 457 111 q 534 178 517 149 q 551 250 551 208 q 533 319 551 292 q 485 367 515 347 q 415 402 456 388 q 332 431 375 417 q 244 463 290 444 q 158 512 197 482 q 94 587 119 542 q 69 699 69 632 q 88 799 69 753 q 144 878 106 844 q 244 931 183 913 q 388 950 304 950 q 513 937 457 950 q 617 900 568 924 l 586 801 q 495 832 546 821 q 388 843 444 843 q 232 803 279 843 q 185 701 185 764 q 201 636 185 663 q 247 590 218 610 q 313 557 275 571 q 392 529 350 543 q 488 492 439 513 q 577 439 538 471 q 642 360 617 407 q 667 247 667 314 q 642 131 667 181 q 572 49 617 82 q 463 1 526 17 q 324 -14 400 -14 z "},"T":{"ha":714,"x_min":14,"x_max":700,"o":"m 417 826 l 417 0 l 297 0 l 297 826 l 14 825 l 14 936 l 700 936 l 700 825 l 417 826 z "},"U":{"ha":928,"x_min":108,"x_max":819,"o":"m 464 -14 q 204 81 300 -14 q 108 375 108 176 l 108 936 l 228 936 l 228 374 q 289 166 228 235 q 464 97 350 97 q 639 166 578 97 q 700 374 700 235 l 700 936 l 819 936 l 819 375 q 724 81 819 176 q 464 -14 628 -14 z "},"V":{"ha":853,"x_min":25,"x_max":828,"o":"m 704 936 l 828 936 l 488 0 l 365 0 l 25 936 l 149 936 l 351 369 l 425 129 l 428 129 l 501 369 l 704 936 z "},"W":{"ha":1224,"x_min":42,"x_max":1182,"o":"m 260 0 l 42 936 l 163 936 l 281 415 q 308 269 299 338 q 324 135 317 201 l 326 135 q 351 267 338 204 q 389 406 365 331 l 553 936 l 671 936 l 835 406 q 872 267 858 331 q 897 135 886 204 l 900 135 q 916 269 907 201 q 943 415 925 338 l 1061 936 l 1182 936 l 964 0 l 847 0 l 660 610 q 633 709 646 654 q 613 807 619 764 l 610 807 q 590 709 603 764 q 563 610 576 654 l 376 0 l 260 0 z "},"X":{"ha":861,"x_min":39,"x_max":822,"o":"m 432 403 l 429 403 l 172 0 l 39 0 l 363 488 l 65 936 l 199 936 l 429 572 l 432 572 l 663 936 l 796 936 l 499 488 l 822 0 l 689 0 l 432 403 z "},"Y":{"ha":789,"x_min":22,"x_max":767,"o":"m 454 399 l 454 0 l 335 0 l 335 399 l 22 936 l 149 936 l 393 501 l 396 501 l 640 936 l 767 936 l 454 399 z "},"Z":{"ha":761,"x_min":56,"x_max":697,"o":"m 56 83 l 533 826 l 89 826 l 89 936 l 689 936 l 689 853 l 211 110 l 697 110 l 697 0 l 56 0 l 56 83 z "},"[":{"ha":394,"x_min":111,"x_max":367,"o":"m 111 950 l 367 950 l 367 861 l 214 861 l 214 -75 l 367 -75 l 367 -164 l 111 -164 l 111 950 z "},"\\":{"ha":515,"x_min":14,"x_max":501,"o":"m 14 936 l 107 936 l 501 -56 l 408 -56 l 14 936 z "},"]":{"ha":394,"x_min":28,"x_max":283,"o":"m 283 -164 l 28 -164 l 28 -75 l 181 -75 l 181 861 l 28 861 l 28 950 l 283 950 l 283 -164 z "},"^":{"ha":725,"x_min":56,"x_max":669,"o":"m 669 383 l 547 383 l 363 813 l 178 383 l 56 383 l 311 936 l 414 936 l 669 383 z "},"_":{"ha":603,"x_min":0,"x_max":603,"o":"m 603 -93 l 603 -187 l 0 -187 l 0 -93 l 603 -93 z "},"`":{"ha":417,"x_min":-17,"x_max":253,"o":"m 253 804 l 217 753 l -17 890 l 47 978 l 253 804 z "},"a":{"ha":700,"x_min":56,"x_max":599,"o":"m 489 331 l 349 331 q 215 293 261 331 q 169 189 169 256 q 201 108 169 138 q 283 78 233 78 q 367 95 329 78 q 431 141 404 113 q 474 205 458 169 q 489 276 489 240 l 489 331 m 489 439 q 447 554 489 518 q 335 590 404 590 q 223 578 275 590 q 126 544 171 565 l 100 626 q 200 667 138 649 q 339 685 263 685 q 535 617 472 685 q 599 438 599 550 l 599 0 l 511 0 l 489 114 q 456 66 474 89 q 413 26 439 43 q 350 -3 386 8 q 263 -14 314 -14 q 182 -1 219 -14 q 116 38 144 13 q 72 101 88 64 q 56 189 56 139 q 134 360 56 304 q 350 417 213 417 l 489 417 l 489 439 z "},"b":{"ha":778,"x_min":106,"x_max":714,"o":"m 222 329 q 239 231 222 275 q 283 156 256 188 q 345 108 310 125 q 418 92 381 92 q 488 105 454 92 q 546 149 521 118 q 585 228 571 179 q 600 347 600 276 q 553 521 600 463 q 429 579 507 579 q 313 548 368 579 q 222 469 258 517 l 222 329 m 106 936 l 222 936 l 222 571 q 257 609 235 589 q 308 646 279 629 q 374 674 338 663 q 451 685 410 685 q 569 656 519 685 q 651 578 619 626 q 699 470 683 531 q 714 347 714 410 q 638 79 714 172 q 436 -14 561 -14 q 367 -3 400 -14 q 305 24 333 7 q 256 65 276 42 q 222 114 235 89 l 200 0 l 106 0 l 106 936 z "},"c":{"ha":639,"x_min":58,"x_max":589,"o":"m 386 590 q 292 571 332 590 q 225 517 251 551 q 186 437 199 483 q 174 336 174 390 q 186 235 174 282 q 226 153 199 188 q 294 100 253 119 q 392 81 335 81 q 478 90 435 81 q 563 118 522 99 l 589 32 q 495 -3 544 8 q 381 -14 446 -14 q 238 13 299 -14 q 138 88 178 40 q 78 199 97 135 q 58 336 58 263 q 78 474 58 410 q 138 584 97 538 q 241 658 179 631 q 388 685 303 685 q 583 642 501 685 l 557 554 q 386 590 481 590 z "},"d":{"ha":778,"x_min":64,"x_max":672,"o":"m 556 475 q 474 551 522 524 q 375 579 426 579 q 233 519 288 579 q 178 336 178 460 q 193 223 178 269 q 234 147 208 176 q 292 105 260 118 q 360 92 325 92 q 433 108 397 92 q 495 156 468 125 q 539 231 522 188 q 556 329 556 275 l 556 475 m 672 0 l 578 0 l 556 114 q 522 65 543 89 q 473 24 501 42 q 411 -3 444 7 q 342 -14 378 -14 q 229 10 281 -14 q 141 78 178 33 q 84 187 104 122 q 64 335 64 251 q 83 470 64 407 q 139 581 101 533 q 231 657 176 629 q 356 685 285 685 q 424 675 393 685 q 481 650 456 665 q 524 615 506 635 q 556 576 543 596 l 556 936 l 672 936 l 672 0 z "},"e":{"ha":697,"x_min":58,"x_max":633,"o":"m 174 283 q 239 133 185 185 q 394 81 293 81 q 485 89 438 81 q 572 117 532 97 l 599 31 q 383 -14 511 -14 q 139 81 219 -14 q 58 336 58 175 q 75 474 58 410 q 128 584 92 538 q 223 658 165 631 q 364 685 281 685 q 567 608 501 685 q 633 401 633 531 q 630 338 633 365 q 619 283 626 310 l 174 283 m 364 596 q 279 578 314 596 q 222 531 244 561 q 186 460 199 501 q 171 369 174 418 l 525 369 l 525 401 q 488 544 525 493 q 364 596 451 596 z "},"f":{"ha":468,"x_min":25,"x_max":482,"o":"m 350 856 q 294 845 315 856 q 262 816 274 835 q 246 769 250 797 q 242 706 242 740 l 242 671 l 435 671 l 435 576 l 242 576 l 242 0 l 128 0 l 128 576 l 25 576 l 25 671 l 128 671 l 128 707 q 140 807 128 763 q 177 883 151 851 q 244 933 203 915 q 344 950 285 950 q 421 941 389 950 q 482 917 453 932 l 456 832 q 403 851 428 847 q 350 856 378 856 z "},"g":{"ha":776,"x_min":64,"x_max":672,"o":"m 556 467 q 477 547 528 515 q 375 579 426 579 q 233 520 288 579 q 178 343 178 461 q 193 234 178 279 q 234 160 208 189 q 292 119 260 132 q 360 106 325 106 q 438 122 401 106 q 500 170 474 139 q 541 245 526 201 q 556 343 556 289 l 556 467 m 556 128 q 522 79 543 103 q 473 38 501 56 q 411 10 444 21 q 342 0 378 0 q 229 24 281 0 q 141 91 178 47 q 84 198 104 135 q 64 342 64 261 q 83 474 64 411 q 139 583 101 536 q 231 657 176 629 q 356 685 285 685 q 424 674 393 685 q 481 646 456 663 q 524 609 506 629 q 556 571 543 589 l 575 671 l 672 671 l 672 57 q 649 -99 672 -35 q 585 -203 626 -162 q 485 -261 543 -243 q 360 -279 428 -279 q 219 -260 286 -279 q 113 -215 151 -240 l 142 -122 q 233 -160 182 -146 q 343 -175 285 -175 q 429 -165 390 -175 q 496 -129 468 -156 q 540 -58 524 -103 q 556 58 556 -12 l 556 128 z "},"h":{"ha":785,"x_min":106,"x_max":683,"o":"m 222 0 l 106 0 l 106 936 l 222 936 l 222 576 q 257 612 235 593 q 308 647 279 631 q 374 674 338 664 q 453 685 411 685 q 622 613 561 685 q 683 418 683 542 l 683 0 l 569 0 l 569 418 q 533 536 569 493 q 432 579 497 579 q 312 551 365 579 q 222 475 258 522 l 222 0 z "},"i":{"ha":333,"x_min":89,"x_max":244,"o":"m 225 0 l 108 0 l 108 671 l 225 671 l 225 0 m 89 875 q 109 929 89 907 q 167 951 129 951 q 224 929 204 951 q 244 875 244 907 q 224 821 244 843 q 167 799 204 799 q 109 821 129 799 q 89 875 89 843 z "},"j":{"ha":333,"x_min":-78,"x_max":244,"o":"m 225 -32 q 216 -136 225 -90 q 184 -215 207 -182 q 123 -264 161 -247 q 25 -281 85 -281 q -33 -274 -7 -281 q -78 -256 -58 -267 l -49 -164 q 22 -178 -15 -178 q 92 -143 75 -178 q 108 -33 108 -108 l 108 671 l 225 671 l 225 -32 m 89 875 q 109 929 89 907 q 167 951 129 951 q 224 929 204 951 q 244 875 244 907 q 224 821 244 843 q 167 799 204 799 q 109 821 129 799 q 89 875 89 843 z "},"k":{"ha":704,"x_min":106,"x_max":685,"o":"m 685 0 l 547 0 q 410 176 471 99 q 358 242 383 210 q 314 299 333 274 q 283 340 294 324 q 271 356 271 356 l 271 394 l 532 671 l 671 671 l 390 375 l 685 0 m 222 0 l 106 0 l 106 936 l 222 936 l 222 0 z "},"l":{"ha":333,"x_min":108,"x_max":225,"o":"m 225 0 l 108 0 l 108 936 l 225 936 l 225 0 z "},"m":{"ha":1111,"x_min":104,"x_max":1010,"o":"m 221 0 l 104 0 l 104 671 l 201 671 l 221 571 q 251 609 233 589 q 294 646 269 629 q 352 674 319 663 q 426 685 385 685 q 536 650 493 685 q 599 556 579 615 q 687 647 631 608 q 815 685 743 685 q 963 617 915 685 q 1010 440 1010 549 l 1010 0 l 896 0 l 896 440 q 871 543 896 504 q 790 582 846 582 q 733 572 760 582 q 685 543 707 561 q 645 503 663 525 q 615 457 628 481 l 615 0 l 501 0 l 501 440 q 476 543 501 504 q 397 582 451 582 q 291 549 336 582 q 221 469 246 517 l 221 0 z "},"n":{"ha":783,"x_min":104,"x_max":682,"o":"m 221 0 l 104 0 l 104 671 l 201 671 l 221 571 q 256 609 233 589 q 307 646 278 629 q 373 674 336 663 q 451 685 410 685 q 621 613 560 685 q 682 418 682 542 l 682 0 l 568 0 l 568 418 q 532 536 568 493 q 431 579 496 579 q 310 549 364 579 q 221 469 257 518 l 221 0 z "},"o":{"ha":750,"x_min":58,"x_max":692,"o":"m 174 336 q 185 235 174 282 q 222 153 197 188 q 284 100 246 119 q 375 81 322 81 q 466 100 428 81 q 528 153 504 119 q 565 235 553 188 q 576 336 576 282 q 565 437 576 390 q 528 517 553 483 q 466 571 504 551 q 375 590 428 590 q 284 571 322 590 q 222 517 246 551 q 185 437 197 483 q 174 336 174 390 m 58 336 q 77 474 58 410 q 135 584 96 538 q 233 658 174 631 q 375 685 293 685 q 517 658 457 685 q 615 584 576 631 q 673 474 654 538 q 692 336 692 410 q 673 199 692 263 q 615 88 654 135 q 517 13 576 40 q 375 -14 457 -14 q 233 13 293 -14 q 135 88 174 40 q 77 199 96 135 q 58 336 58 263 z "},"p":{"ha":776,"x_min":104,"x_max":713,"o":"m 221 329 q 238 231 221 275 q 281 156 254 188 q 344 108 308 125 q 417 92 379 92 q 486 105 453 92 q 544 149 519 118 q 584 228 569 179 q 599 347 599 276 q 552 521 599 463 q 428 579 506 579 q 312 548 367 579 q 221 469 257 517 l 221 329 m 201 671 l 221 571 q 256 609 233 589 q 307 646 278 629 q 372 674 336 663 q 450 685 408 685 q 568 656 518 685 q 650 578 618 626 q 697 470 682 531 q 713 347 713 410 q 636 79 713 172 q 435 -14 560 -14 q 365 -3 399 -14 q 303 24 332 7 q 254 65 275 42 q 221 114 233 89 l 221 -265 l 104 -265 l 104 671 l 201 671 z "},"q":{"ha":776,"x_min":64,"x_max":672,"o":"m 556 467 q 478 549 524 519 q 375 579 432 579 q 233 519 288 579 q 178 336 178 460 q 193 223 178 269 q 234 147 208 176 q 292 105 260 118 q 360 92 325 92 q 433 108 397 92 q 495 156 468 125 q 539 231 522 188 q 556 329 556 275 l 556 467 m 575 671 l 672 671 l 672 -265 l 556 -265 l 556 114 q 522 65 543 89 q 473 24 501 42 q 411 -3 444 7 q 342 -14 378 -14 q 229 10 281 -14 q 141 78 178 33 q 84 187 104 122 q 64 335 64 251 q 83 470 64 407 q 139 581 101 533 q 231 657 176 629 q 356 685 285 685 q 424 674 393 685 q 481 647 456 664 q 524 610 506 631 q 556 571 543 590 l 575 671 z "},"r":{"ha":517,"x_min":104,"x_max":497,"o":"m 221 557 q 251 601 233 579 q 291 642 268 624 q 342 672 314 660 q 407 685 371 683 q 447 683 431 686 q 475 675 464 679 q 497 663 489 669 l 463 546 q 386 574 435 574 q 221 461 272 574 l 221 0 l 104 0 l 104 671 l 199 671 l 221 557 z "},"s":{"ha":601,"x_min":64,"x_max":538,"o":"m 274 78 q 390 108 356 78 q 425 178 425 138 q 413 223 425 204 q 379 256 400 242 q 331 281 358 271 q 271 301 303 292 q 188 332 225 315 q 123 372 150 349 q 81 428 96 396 q 67 506 67 461 q 131 638 67 590 q 311 685 196 685 q 422 674 368 685 q 517 642 475 664 l 490 554 q 411 583 453 572 q 321 593 369 593 q 213 568 246 593 q 179 506 179 543 q 214 439 179 461 q 308 397 249 417 q 408 359 365 379 q 480 313 451 339 q 523 254 508 288 q 538 176 538 221 q 476 38 538 90 q 279 -14 414 -14 q 158 -3 213 -14 q 64 29 103 7 l 90 117 q 175 88 128 99 q 274 78 222 78 z "},"t":{"ha":492,"x_min":25,"x_max":456,"o":"m 242 188 q 257 109 242 138 q 324 81 272 81 q 381 88 354 81 q 429 106 408 94 l 456 21 q 392 -6 426 3 q 304 -14 357 -14 q 171 34 214 -14 q 128 186 128 82 l 128 576 l 25 576 l 25 671 l 129 671 l 157 863 l 242 863 l 242 671 l 447 671 l 447 576 l 242 576 l 242 188 z "},"u":{"ha":775,"x_min":101,"x_max":671,"o":"m 554 671 l 671 671 l 671 0 l 576 0 l 554 114 q 521 70 542 93 q 471 28 500 47 q 403 -2 442 10 q 318 -14 365 -14 q 230 1 269 -14 q 162 48 190 15 q 117 131 133 81 q 101 253 101 182 l 101 671 l 215 671 l 215 253 q 249 132 215 175 q 339 89 283 89 q 466 128 414 89 q 554 218 518 167 l 554 671 z "},"v":{"ha":651,"x_min":22,"x_max":629,"o":"m 265 0 l 22 671 l 143 671 l 260 343 l 324 119 l 326 119 l 390 343 l 508 671 l 629 671 l 386 0 l 265 0 z "},"w":{"ha":950,"x_min":36,"x_max":914,"o":"m 644 304 q 668 213 658 258 q 689 108 678 168 l 692 108 q 704 231 697 171 q 721 332 711 292 l 799 671 l 914 671 l 754 0 l 639 0 l 531 340 q 499 452 511 399 q 476 568 488 506 l 474 568 q 451 452 463 506 q 419 340 439 399 l 311 0 l 196 0 l 36 671 l 151 671 l 229 332 q 246 231 239 292 q 258 108 253 171 l 261 108 q 282 213 272 168 q 306 304 292 258 l 419 671 l 531 671 l 644 304 z "},"x":{"ha":676,"x_min":33,"x_max":643,"o":"m 339 271 l 336 271 l 156 0 l 33 0 l 275 349 l 53 671 l 175 671 l 336 426 l 339 426 l 501 671 l 624 671 l 400 349 l 643 0 l 521 0 l 339 271 z "},"y":{"ha":771,"x_min":101,"x_max":667,"o":"m 550 128 q 517 84 538 107 q 467 42 496 61 q 401 12 439 24 q 317 0 364 0 q 228 15 268 0 q 161 62 189 29 q 117 145 133 94 q 101 267 101 196 l 101 671 l 215 671 l 215 267 q 249 146 215 189 q 338 103 282 103 q 464 142 413 103 q 550 232 515 181 l 550 671 l 667 671 l 667 57 q 584 -197 667 -114 q 354 -279 501 -279 q 228 -261 290 -279 q 126 -218 165 -243 l 156 -125 q 244 -162 196 -149 q 346 -175 292 -175 q 433 -164 394 -175 q 497 -126 471 -153 q 536 -53 522 -99 q 550 58 550 -8 l 550 128 z "},"z":{"ha":628,"x_min":58,"x_max":567,"o":"m 58 67 l 413 576 l 85 576 l 85 671 l 554 671 l 554 604 l 200 94 l 567 94 l 567 0 l 58 0 l 58 67 z "},"{":{"ha":442,"x_min":72,"x_max":400,"o":"m 72 431 q 160 458 136 431 q 185 539 185 486 q 181 590 185 561 q 174 650 178 619 q 167 710 171 681 q 164 765 164 740 q 218 905 164 860 q 372 950 272 950 l 400 950 l 400 879 l 375 879 q 291 846 315 879 q 267 749 267 813 q 276 648 267 701 q 286 544 286 594 q 263 446 286 482 q 186 394 239 410 l 186 392 q 263 340 239 376 q 286 242 286 304 q 276 138 286 192 q 267 38 267 85 q 291 -60 267 -26 q 375 -93 315 -93 l 400 -93 l 400 -164 l 372 -164 q 218 -119 272 -164 q 164 21 164 -74 q 167 76 164 46 q 174 136 171 106 q 181 195 178 167 q 185 247 185 224 q 160 328 185 300 q 72 356 136 356 l 72 431 z "},"|":{"ha":356,"x_min":125,"x_max":231,"o":"m 231 -278 l 125 -278 l 125 1075 l 231 1075 l 231 -278 z "},"}":{"ha":442,"x_min":42,"x_max":369,"o":"m 369 356 q 281 328 306 356 q 257 247 257 300 q 260 195 257 224 q 267 136 264 167 q 274 76 271 106 q 278 21 278 46 q 224 -119 278 -74 q 69 -164 169 -164 l 42 -164 l 42 -93 l 67 -93 q 151 -60 126 -93 q 175 38 175 -26 q 165 138 175 85 q 156 242 156 192 q 179 340 156 304 q 256 392 203 376 l 256 394 q 179 446 203 410 q 156 544 156 482 q 165 648 156 594 q 175 749 175 701 q 151 846 175 813 q 67 879 126 879 l 42 879 l 42 950 l 69 950 q 224 905 169 950 q 278 765 278 860 q 274 710 278 740 q 267 650 271 681 q 260 590 264 619 q 257 539 257 561 q 281 458 257 486 q 369 431 306 431 l 369 356 z "},"~":{"ha":767,"x_min":56,"x_max":711,"o":"m 711 478 q 635 380 683 421 q 522 339 586 339 q 435 357 471 339 q 368 396 399 375 q 310 435 338 417 q 249 453 282 453 q 166 424 196 453 q 113 357 136 394 l 56 418 q 85 466 67 442 q 126 510 103 490 q 180 543 150 531 q 246 556 210 556 q 333 538 297 556 q 398 499 368 521 q 456 460 428 478 q 519 443 483 443 q 599 472 567 443 q 654 538 631 501 l 711 478 z "},"":{"ha":694,"x_min":0,"x_max":0,"o":""}," ":{"ha":0,"x_min":0,"x_max":0,"o":""},"¡":{"ha":353,"x_min":92,"x_max":261,"o":"m 115 -51 l 131 410 l 222 410 l 238 -51 l 238 -265 l 115 -265 l 115 -51 m 261 601 q 239 542 261 567 q 176 518 217 518 q 114 542 136 518 q 92 601 92 567 q 114 660 92 636 q 176 685 136 685 q 239 660 217 685 q 261 601 261 636 z "},"¢":{"ha":794,"x_min":135,"x_max":679,"o":"m 428 -11 q 299 24 354 -6 q 208 99 244 53 q 153 206 172 146 q 135 336 135 267 q 153 465 135 404 q 208 571 171 525 q 299 646 244 617 q 428 682 354 675 l 428 810 l 506 810 l 506 683 q 674 642 603 679 l 647 554 q 580 578 615 569 q 506 589 544 586 l 506 81 q 581 93 542 83 q 653 118 619 103 l 679 32 q 506 -12 607 -6 l 506 -139 l 428 -139 l 428 -11 m 250 336 q 261 245 250 288 q 294 169 272 203 q 350 115 317 136 q 428 85 383 93 l 428 586 q 294 503 339 572 q 250 336 250 435 z "},"£":{"ha":794,"x_min":92,"x_max":725,"o":"m 461 808 q 381 794 413 808 q 330 758 349 781 q 303 707 311 735 q 294 653 294 679 q 309 571 294 608 q 343 497 324 533 l 558 497 l 558 410 l 388 410 q 403 362 397 386 q 408 310 408 338 q 373 199 408 247 q 275 119 338 150 l 725 119 l 725 0 l 92 0 l 92 119 l 138 119 q 195 152 168 132 q 242 197 222 172 q 272 247 261 221 q 283 296 283 272 q 276 356 283 328 q 257 410 268 383 l 99 410 l 99 497 l 211 497 q 174 577 190 536 q 158 668 158 618 q 181 771 158 725 q 244 849 204 817 q 336 899 283 882 q 449 917 389 917 q 568 903 521 917 q 664 864 615 889 l 633 764 q 553 797 593 785 q 461 808 514 808 z "},"¤":{"ha":794,"x_min":114,"x_max":681,"o":"m 625 169 l 547 250 q 476 215 511 226 q 399 203 440 203 q 318 215 354 203 q 249 250 282 226 l 171 169 q 143 201 158 185 q 115 231 128 217 l 192 308 q 143 456 143 371 q 156 535 143 499 q 192 607 168 571 l 114 685 l 169 742 l 249 663 q 397 713 313 713 q 476 699 439 713 q 547 663 513 686 l 625 740 l 679 683 l 604 607 q 641 535 629 571 q 653 456 653 500 q 640 378 653 415 q 604 308 628 340 l 681 231 l 625 169 m 575 456 q 560 525 575 493 q 522 581 546 557 q 465 618 497 604 q 397 632 432 632 q 329 618 361 632 q 274 581 297 604 q 236 525 250 557 q 222 456 222 493 q 236 388 222 419 q 274 333 250 357 q 329 296 297 310 q 397 282 361 282 q 465 296 432 282 q 522 333 497 310 q 560 388 546 357 q 575 456 575 419 z "},"¥":{"ha":794,"x_min":67,"x_max":728,"o":"m 122 482 l 293 482 l 67 903 l 193 903 l 396 501 l 399 501 l 601 903 l 728 903 l 501 482 l 672 482 l 672 414 l 465 414 l 457 399 l 457 313 l 672 313 l 672 244 l 457 244 l 457 0 l 338 0 l 338 244 l 122 244 l 122 313 l 338 313 l 338 399 l 329 414 l 122 414 l 122 482 z "},"¦":{"ha":347,"x_min":125,"x_max":222,"o":"m 125 936 l 222 936 l 222 449 l 125 449 l 125 936 m 125 244 l 222 244 l 222 -243 l 125 -243 l 125 244 z "},"§":{"ha":794,"x_min":122,"x_max":683,"o":"m 383 519 q 326 537 349 531 q 279 557 303 543 q 260 538 268 549 q 247 514 253 528 q 242 481 242 500 q 259 428 242 450 q 303 390 276 406 q 363 364 331 375 q 424 344 394 353 q 478 328 456 335 q 526 308 501 322 q 544 326 536 315 q 557 350 551 336 q 563 383 563 364 q 514 465 563 433 q 383 519 465 496 m 339 6 q 419 13 382 6 q 483 35 456 21 q 526 70 510 50 q 542 114 542 90 q 528 163 542 143 q 493 199 515 183 q 442 225 471 214 q 383 246 414 236 q 303 271 349 256 q 218 312 258 286 q 150 375 178 338 q 122 467 122 413 q 147 552 122 519 q 211 600 171 585 q 166 666 179 628 q 153 743 153 704 q 225 892 153 835 q 422 950 297 950 q 533 936 479 950 q 628 901 586 922 l 601 814 q 523 846 565 833 q 432 858 481 858 q 306 825 346 858 q 267 743 267 792 q 280 699 267 718 q 315 666 293 681 q 365 640 336 651 q 424 619 393 629 q 510 588 464 606 q 594 546 556 571 q 658 485 632 521 q 683 397 683 449 q 659 313 683 346 q 594 265 635 279 q 642 192 628 232 q 656 114 656 153 q 633 31 656 68 q 571 -32 611 -6 q 474 -72 531 -58 q 349 -86 418 -86 q 231 -73 290 -86 q 129 -37 171 -60 l 156 50 q 240 19 193 32 q 339 6 288 6 z "},"¨":{"ha":417,"x_min":4,"x_max":413,"o":"m 4 849 q 22 897 4 876 q 75 918 40 918 q 128 897 110 918 q 146 849 146 876 q 128 800 146 821 q 75 779 110 779 q 22 800 40 779 q 4 849 4 821 m 271 849 q 289 897 271 876 q 342 918 307 918 q 394 897 376 918 q 413 849 413 876 q 394 800 413 821 q 342 779 376 779 q 289 800 307 779 q 271 849 271 821 z "},"©":{"ha":958,"x_min":56,"x_max":903,"o":"m 56 468 q 90 638 56 558 q 181 776 124 717 q 316 869 239 835 q 479 903 393 903 q 642 869 565 903 q 777 776 719 835 q 869 638 835 717 q 903 468 903 558 q 869 299 903 378 q 777 160 835 219 q 642 67 719 101 q 479 33 565 33 q 316 67 393 33 q 181 160 239 101 q 90 299 124 219 q 56 468 56 378 m 832 468 q 805 613 832 544 q 731 731 778 681 q 619 811 683 782 q 479 840 554 840 q 340 811 404 840 q 228 731 275 782 q 153 613 181 681 q 126 468 126 544 q 153 323 126 390 q 228 205 181 256 q 340 125 275 154 q 479 96 404 96 q 619 125 554 96 q 731 205 683 154 q 805 323 778 256 q 832 468 832 390 m 497 649 q 618 622 563 649 l 638 685 q 497 715 578 715 q 394 696 438 715 q 321 643 350 676 q 278 565 292 610 q 264 467 264 519 q 278 369 264 414 q 320 290 292 324 q 392 238 349 257 q 493 218 435 218 q 574 226 539 218 q 640 250 608 235 l 622 313 q 501 285 564 285 q 431 299 460 285 q 383 337 401 313 q 355 394 364 361 q 346 467 346 428 q 382 597 346 546 q 497 649 418 649 z "},"ª":{"ha":483,"x_min":19,"x_max":425,"o":"m 329 654 l 239 654 q 150 628 181 654 q 119 557 119 603 q 140 503 119 524 q 192 483 160 483 q 248 495 222 483 q 292 526 274 507 q 319 571 310 546 q 329 621 329 596 l 329 654 m 329 735 q 301 813 329 788 q 228 838 272 838 q 149 828 188 838 q 74 800 110 818 l 50 871 q 126 901 79 886 q 232 917 174 917 q 378 867 331 917 q 425 733 425 817 l 425 417 l 346 417 l 333 479 q 278 429 313 451 q 176 407 244 407 q 65 445 111 407 q 19 557 19 483 q 78 683 19 643 q 239 724 138 724 l 329 724 l 329 735 z "},"«":{"ha":635,"x_min":56,"x_max":579,"o":"m 400 336 l 579 86 l 486 86 l 307 336 l 486 586 l 579 586 l 400 336 m 150 336 l 329 86 l 235 86 l 56 336 l 235 586 l 329 586 l 150 336 z "},"¬":{"ha":696,"x_min":56,"x_max":626,"o":"m 522 167 l 522 411 l 56 411 l 56 510 l 626 510 l 626 167 l 522 167 z "},"­":{"ha":417,"x_min":14,"x_max":403,"o":"m 14 392 l 403 392 l 403 301 l 14 301 l 14 392 z "},"®":{"ha":736,"x_min":56,"x_max":681,"o":"m 56 638 q 78 760 56 703 q 142 859 101 817 q 241 926 183 901 q 368 950 299 950 q 495 926 438 950 q 594 859 553 901 q 658 760 635 817 q 681 638 681 703 q 658 515 681 572 q 594 416 635 458 q 495 349 553 374 q 368 325 438 325 q 241 349 299 325 q 142 416 183 374 q 78 515 101 458 q 56 638 56 572 m 622 638 q 603 739 622 692 q 551 822 585 786 q 472 878 518 857 q 368 899 425 899 q 265 878 311 899 q 185 822 218 857 q 133 739 151 786 q 114 638 114 692 q 133 536 114 583 q 185 453 151 489 q 265 397 218 418 q 368 376 311 376 q 472 397 425 376 q 551 453 518 418 q 603 536 585 489 q 622 638 622 583 m 513 704 q 484 778 513 749 q 389 808 456 808 l 257 808 l 257 458 l 315 458 l 315 593 l 372 593 l 453 458 l 515 458 l 432 599 q 490 639 468 610 q 513 704 513 668 m 454 704 q 386 646 454 646 l 315 646 l 315 756 l 388 756 q 439 742 424 756 q 454 704 454 729 z "},"¯":{"ha":417,"x_min":14,"x_max":403,"o":"m 14 796 l 14 876 l 403 876 l 403 796 l 14 796 z "},"°":{"ha":494,"x_min":56,"x_max":439,"o":"m 122 765 q 132 717 122 740 q 158 677 142 694 q 198 650 175 660 q 247 640 221 640 q 297 650 274 640 q 339 677 321 660 q 367 717 357 694 q 376 765 376 740 q 339 852 376 817 q 247 888 301 888 q 198 878 221 888 q 158 851 175 868 q 132 813 142 835 q 122 765 122 790 m 56 765 q 70 837 56 803 q 111 896 85 871 q 172 935 138 921 q 247 950 207 950 q 322 935 288 950 q 383 896 357 921 q 424 837 410 871 q 439 765 439 803 q 424 694 439 728 q 383 635 410 660 q 322 595 357 610 q 247 581 288 581 q 172 595 207 581 q 111 635 138 610 q 70 694 85 660 q 56 765 56 728 z "},"±":{"ha":794,"x_min":97,"x_max":686,"o":"m 444 689 l 444 456 l 686 456 l 686 361 l 444 361 l 444 128 l 339 128 l 339 361 l 97 361 l 97 456 l 339 456 l 339 689 l 444 689 m 686 81 l 686 0 l 97 0 l 97 81 l 686 81 z "},"²":{"ha":431,"x_min":36,"x_max":383,"o":"m 197 839 q 140 830 174 839 q 78 806 107 821 l 54 879 q 121 905 83 893 q 199 917 158 917 q 328 879 286 917 q 369 779 369 842 q 354 717 369 747 q 315 657 339 686 q 265 601 292 628 q 215 551 238 574 l 161 497 l 383 497 l 383 417 l 36 417 l 36 478 l 160 603 q 244 697 213 656 q 275 779 275 738 q 254 824 275 808 q 197 839 233 839 z "},"³":{"ha":424,"x_min":36,"x_max":374,"o":"m 188 486 q 259 508 236 486 q 282 563 282 531 q 259 616 282 599 q 196 633 236 633 l 114 633 l 114 708 l 196 708 q 248 726 228 708 q 268 781 268 743 q 248 824 268 807 q 176 840 228 840 q 118 832 147 840 q 61 810 89 824 l 36 882 q 104 907 67 897 q 181 917 142 917 q 318 877 276 917 q 360 781 360 838 q 341 715 360 740 q 290 676 322 690 q 353 634 332 665 q 374 563 374 603 q 326 451 374 492 q 189 410 279 410 q 103 420 140 410 q 36 446 65 431 l 61 518 q 121 495 88 504 q 188 486 154 486 z "},"´":{"ha":417,"x_min":164,"x_max":433,"o":"m 369 978 l 433 890 l 200 753 l 164 804 l 369 978 z "},"µ":{"ha":778,"x_min":104,"x_max":674,"o":"m 104 671 l 218 671 l 218 253 q 253 132 218 175 q 350 89 288 89 q 470 128 419 89 q 557 218 521 167 l 557 671 l 674 671 l 674 0 l 579 0 l 557 114 q 524 70 544 93 q 476 28 503 47 q 418 -2 450 10 q 350 -14 386 -14 q 267 -1 299 -14 q 218 35 236 11 l 218 -278 l 104 -278 l 104 671 z "},"¶":{"ha":624,"x_min":56,"x_max":582,"o":"m 56 690 q 76 794 56 749 q 130 872 96 840 q 208 919 164 903 q 303 936 253 936 l 582 936 l 582 865 l 528 865 q 454 843 472 865 q 436 775 436 821 l 436 -67 l 331 -67 l 331 450 l 296 450 q 208 465 251 450 q 131 510 165 481 q 76 585 97 540 q 56 690 56 631 z "},"·":{"ha":336,"x_min":83,"x_max":253,"o":"m 83 382 q 106 441 83 417 q 168 465 128 465 q 231 441 208 465 q 253 382 253 417 q 231 323 253 347 q 168 299 208 299 q 106 323 128 299 q 83 382 83 347 z "},"¸":{"ha":417,"x_min":69,"x_max":261,"o":"m 196 -232 l 69 -232 l 185 -53 l 261 -53 l 196 -232 z "},"¹":{"ha":401,"x_min":47,"x_max":365,"o":"m 163 824 l 63 792 l 63 867 l 183 910 l 254 910 l 254 496 l 365 496 l 365 417 l 47 417 l 47 496 l 163 496 l 163 824 z "},"º":{"ha":553,"x_min":42,"x_max":511,"o":"m 142 663 q 174 536 142 588 q 276 485 206 485 q 380 536 347 485 q 413 663 413 588 q 380 788 413 738 q 276 838 347 838 q 174 788 206 838 q 142 663 142 738 m 42 663 q 56 762 42 715 q 99 842 69 808 q 172 897 128 876 q 276 917 215 917 q 381 897 336 917 q 454 842 425 876 q 497 762 483 808 q 511 663 511 715 q 497 562 511 608 q 454 481 483 515 q 381 427 425 447 q 276 407 336 407 q 172 427 215 407 q 99 481 128 447 q 56 562 69 515 q 42 663 42 608 z "},"»":{"ha":635,"x_min":56,"x_max":579,"o":"m 306 586 l 400 586 l 579 336 l 400 86 l 306 86 l 485 336 l 306 586 m 56 586 l 149 586 l 328 336 l 149 86 l 56 86 l 235 336 l 56 586 z "},"¼":{"ha":1078,"x_min":75,"x_max":954,"o":"m 813 171 l 813 347 l 683 171 l 813 171 m 825 493 l 899 493 l 899 171 l 954 171 l 954 90 l 899 90 l 899 0 l 811 0 l 811 90 l 583 90 l 583 154 l 825 493 m 744 917 l 842 917 l 333 0 l 236 0 l 744 917 m 190 824 l 90 792 l 90 867 l 211 910 l 282 910 l 282 496 l 393 496 l 393 417 l 75 417 l 75 496 l 190 496 l 190 824 z "},"½":{"ha":1078,"x_min":75,"x_max":1003,"o":"m 744 917 l 842 917 l 333 0 l 236 0 l 744 917 m 190 824 l 90 792 l 90 867 l 211 910 l 282 910 l 282 496 l 393 496 l 393 417 l 75 417 l 75 496 l 190 496 l 190 824 m 817 422 q 760 413 793 422 q 697 389 726 404 l 674 463 q 740 488 703 476 q 818 500 778 500 q 947 463 906 500 q 989 363 989 425 q 974 300 989 331 q 935 240 958 269 q 884 184 911 211 q 835 135 857 157 l 781 81 l 1003 81 l 1003 0 l 656 0 l 656 61 l 779 186 q 863 280 832 239 q 894 363 894 321 q 874 407 894 392 q 817 422 853 422 z "},"¾":{"ha":1078,"x_min":64,"x_max":954,"o":"m 744 917 l 842 917 l 333 0 l 236 0 l 744 917 m 215 486 q 287 508 264 486 q 310 563 310 531 q 287 616 310 599 q 224 633 264 633 l 142 633 l 142 708 l 224 708 q 276 726 256 708 q 296 781 296 743 q 276 824 296 807 q 204 840 256 840 q 146 832 175 840 q 89 810 117 824 l 64 882 q 132 907 94 897 q 208 917 169 917 q 346 877 304 917 q 388 781 388 838 q 369 715 388 740 q 318 676 350 690 q 381 634 360 665 q 401 563 401 603 q 354 451 401 492 q 217 410 307 410 q 131 420 168 410 q 64 446 93 431 l 89 518 q 149 495 115 504 q 215 486 182 486 m 813 171 l 813 347 l 683 171 l 813 171 m 825 493 l 899 493 l 899 171 l 954 171 l 954 90 l 899 90 l 899 0 l 811 0 l 811 90 l 583 90 l 583 154 l 825 493 z "},"¿":{"ha":686,"x_min":83,"x_max":619,"o":"m 372 -171 q 488 -156 431 -171 q 589 -121 544 -142 l 619 -221 q 510 -261 575 -243 q 371 -279 446 -279 q 153 -216 224 -279 q 83 -49 83 -153 q 101 48 83 6 q 147 125 119 90 q 206 190 175 160 q 265 248 238 219 q 311 306 293 276 q 329 372 329 336 q 317 449 329 417 l 413 449 q 427 412 422 433 q 432 368 432 390 q 415 288 432 322 q 373 222 399 253 q 317 164 347 192 q 262 106 288 136 q 219 42 236 76 q 203 -37 203 7 q 213 -88 203 -64 q 243 -131 222 -112 q 296 -160 264 -149 q 372 -171 328 -171 m 450 601 q 428 542 450 567 q 365 518 406 518 q 303 542 325 518 q 281 601 281 567 q 303 660 281 636 q 365 685 325 685 q 428 660 406 685 q 450 601 450 636 z "},"À":{"ha":869,"x_min":28,"x_max":842,"o":"m 626 251 l 242 251 l 151 0 l 28 0 l 374 936 l 496 936 l 842 0 l 718 0 l 626 251 m 282 360 l 588 360 l 493 617 l 436 800 l 433 800 l 376 617 l 282 360 m 569 1076 l 533 1025 l 300 1163 l 364 1250 l 569 1076 z "},"Á":{"ha":869,"x_min":28,"x_max":842,"o":"m 626 251 l 242 251 l 151 0 l 28 0 l 374 936 l 496 936 l 842 0 l 718 0 l 626 251 m 282 360 l 588 360 l 493 617 l 436 800 l 433 800 l 376 617 l 282 360 m 506 1250 l 569 1163 l 336 1025 l 300 1076 l 506 1250 z "},"Â":{"ha":869,"x_min":28,"x_max":842,"o":"m 626 251 l 242 251 l 151 0 l 28 0 l 374 936 l 496 936 l 842 0 l 718 0 l 626 251 m 282 360 l 588 360 l 493 617 l 436 800 l 433 800 l 376 617 l 282 360 m 636 1029 l 521 1029 l 435 1147 l 349 1029 l 233 1029 l 394 1225 l 475 1225 l 636 1029 z "},"Ã":{"ha":869,"x_min":28,"x_max":842,"o":"m 626 251 l 242 251 l 151 0 l 28 0 l 374 936 l 496 936 l 842 0 l 718 0 l 626 251 m 282 360 l 588 360 l 493 617 l 436 800 l 433 800 l 376 617 l 282 360 m 646 1192 q 615 1081 646 1117 q 525 1044 583 1044 q 471 1055 494 1044 q 428 1078 447 1065 q 391 1102 408 1092 q 354 1113 374 1113 q 317 1092 326 1113 q 307 1049 307 1072 l 224 1049 q 347 1196 224 1196 q 400 1185 376 1196 q 444 1162 424 1175 q 481 1138 464 1149 q 515 1128 499 1128 q 552 1146 543 1128 q 561 1192 561 1164 l 646 1192 z "},"Ä":{"ha":869,"x_min":28,"x_max":842,"o":"m 626 251 l 242 251 l 151 0 l 28 0 l 374 936 l 496 936 l 842 0 l 718 0 l 626 251 m 282 360 l 588 360 l 493 617 l 436 800 l 433 800 l 376 617 l 282 360 m 231 1121 q 249 1169 231 1149 q 301 1190 267 1190 q 354 1169 336 1190 q 372 1121 372 1149 q 354 1072 372 1093 q 301 1051 336 1051 q 249 1072 267 1051 q 231 1121 231 1093 m 497 1121 q 515 1169 497 1149 q 568 1190 533 1190 q 621 1169 603 1190 q 639 1121 639 1149 q 621 1072 639 1093 q 568 1051 603 1051 q 515 1072 533 1051 q 497 1121 497 1093 z "},"Å":{"ha":869,"x_min":28,"x_max":842,"o":"m 626 251 l 242 251 l 151 0 l 28 0 l 374 936 l 496 936 l 842 0 l 718 0 l 626 251 m 282 360 l 588 360 l 493 617 l 436 800 l 433 800 l 376 617 l 282 360 m 369 1154 q 388 1103 369 1122 q 435 1085 407 1085 q 482 1103 463 1085 q 501 1154 501 1122 q 482 1205 501 1186 q 435 1224 463 1224 q 388 1205 407 1224 q 369 1154 369 1186 m 301 1153 q 340 1247 301 1208 q 435 1286 379 1286 q 529 1247 490 1286 q 568 1153 568 1208 q 529 1059 568 1097 q 435 1021 490 1021 q 340 1059 379 1021 q 301 1153 301 1097 z "},"Æ":{"ha":1132,"x_min":28,"x_max":1065,"o":"m 643 251 l 258 251 l 150 0 l 28 0 l 440 936 l 1057 936 l 1057 826 l 594 826 l 681 539 l 1029 539 l 1029 429 l 713 429 l 807 110 l 1065 110 l 1065 0 l 717 0 l 643 251 m 307 360 l 613 360 l 536 617 l 493 800 l 490 800 l 419 617 l 307 360 z "},"Ç":{"ha":794,"x_min":61,"x_max":742,"o":"m 507 842 q 267 744 354 842 q 181 468 181 647 q 265 193 181 292 q 508 94 350 94 q 613 105 561 94 q 711 138 665 115 l 742 36 q 633 -1 690 11 q 506 -14 575 -14 q 307 21 390 -14 q 169 119 224 56 q 88 271 114 182 q 61 468 61 360 q 90 663 61 574 q 176 815 119 751 q 315 915 232 879 q 506 950 399 950 q 632 939 579 950 q 733 906 685 928 l 703 806 q 507 842 625 842 m 456 -232 l 329 -232 l 444 -53 l 521 -53 l 456 -232 z "},"È":{"ha":758,"x_min":111,"x_max":692,"o":"m 111 936 l 683 936 l 683 826 l 231 826 l 231 539 l 656 539 l 656 429 l 231 429 l 231 110 l 692 110 l 692 0 l 111 0 l 111 936 m 528 1076 l 492 1025 l 258 1163 l 322 1250 l 528 1076 z "},"É":{"ha":758,"x_min":111,"x_max":692,"o":"m 111 936 l 683 936 l 683 826 l 231 826 l 231 539 l 656 539 l 656 429 l 231 429 l 231 110 l 692 110 l 692 0 l 111 0 l 111 936 m 492 1250 l 556 1163 l 322 1025 l 286 1076 l 492 1250 z "},"Ê":{"ha":758,"x_min":111,"x_max":692,"o":"m 111 936 l 683 936 l 683 826 l 231 826 l 231 539 l 656 539 l 656 429 l 231 429 l 231 110 l 692 110 l 692 0 l 111 0 l 111 936 m 600 1029 l 485 1029 l 399 1147 l 313 1029 l 197 1029 l 358 1225 l 439 1225 l 600 1029 z "},"Ë":{"ha":758,"x_min":111,"x_max":692,"o":"m 111 936 l 683 936 l 683 826 l 231 826 l 231 539 l 656 539 l 656 429 l 231 429 l 231 110 l 692 110 l 692 0 l 111 0 l 111 936 m 194 1121 q 213 1169 194 1149 q 265 1190 231 1190 q 318 1169 300 1190 q 336 1121 336 1149 q 318 1072 336 1093 q 265 1051 300 1051 q 213 1072 231 1051 q 194 1121 194 1093 m 461 1121 q 479 1169 461 1149 q 532 1190 497 1190 q 585 1169 567 1190 q 603 1121 603 1149 q 585 1072 603 1093 q 532 1051 567 1051 q 479 1072 497 1051 q 461 1121 461 1093 z "},"Ì":{"ha":347,"x_min":39,"x_max":308,"o":"m 233 0 l 114 0 l 114 936 l 233 936 l 233 0 m 308 1076 l 272 1025 l 39 1163 l 103 1250 l 308 1076 z "},"Í":{"ha":347,"x_min":40,"x_max":310,"o":"m 233 0 l 114 0 l 114 936 l 233 936 l 233 0 m 246 1250 l 310 1163 l 76 1025 l 40 1076 l 246 1250 z "},"Î":{"ha":347,"x_min":-26,"x_max":376,"o":"m 233 0 l 114 0 l 114 936 l 233 936 l 233 0 m 376 1029 l 261 1029 l 175 1147 l 89 1029 l -26 1029 l 135 1225 l 215 1225 l 376 1029 z "},"Ï":{"ha":347,"x_min":-29,"x_max":379,"o":"m 233 0 l 114 0 l 114 936 l 233 936 l 233 0 m -29 1121 q -11 1169 -29 1149 q 42 1190 7 1190 q 94 1169 76 1190 q 113 1121 113 1149 q 94 1072 113 1093 q 42 1051 76 1051 q -11 1072 7 1051 q -29 1121 -29 1093 m 238 1121 q 256 1169 238 1149 q 308 1190 274 1190 q 361 1169 343 1190 q 379 1121 379 1149 q 361 1072 379 1093 q 308 1051 343 1051 q 256 1072 274 1051 q 238 1121 238 1093 z "},"Ð":{"ha":908,"x_min":15,"x_max":844,"o":"m 111 511 l 111 936 l 383 936 q 728 818 613 936 q 844 469 844 700 q 728 119 844 239 q 383 0 613 0 l 111 0 l 111 417 l 15 417 l 15 511 l 111 511 m 725 469 q 637 743 725 661 q 383 825 549 825 l 231 825 l 231 511 l 479 511 l 479 417 l 231 417 l 231 111 l 383 111 q 637 194 549 111 q 725 469 725 278 z "},"Ñ":{"ha":925,"x_min":111,"x_max":814,"o":"m 611 332 q 663 241 639 288 q 703 163 688 194 l 706 163 q 697 260 699 211 q 694 368 694 310 l 694 936 l 814 936 l 814 0 l 686 0 l 314 604 q 262 695 286 649 q 222 774 238 742 l 219 774 q 228 676 226 725 q 231 568 231 626 l 231 0 l 111 0 l 111 936 l 239 936 l 611 332 m 674 1192 q 642 1081 674 1117 q 553 1044 611 1044 q 499 1055 522 1044 q 456 1078 475 1065 q 419 1102 436 1092 q 382 1113 401 1113 q 344 1092 354 1113 q 335 1049 335 1072 l 251 1049 q 375 1196 251 1196 q 428 1185 404 1196 q 472 1162 451 1175 q 509 1138 492 1149 q 543 1128 526 1128 q 580 1146 571 1128 q 589 1192 589 1164 l 674 1192 z "},"Ò":{"ha":961,"x_min":61,"x_max":900,"o":"m 481 86 q 706 185 632 86 q 781 468 781 285 q 706 751 781 651 q 481 850 632 850 q 255 751 329 850 q 181 468 181 651 q 255 185 181 285 q 481 86 329 86 m 481 -14 q 292 23 371 -14 q 161 124 213 60 q 85 277 110 189 q 61 468 61 365 q 85 659 61 571 q 161 812 110 747 q 292 913 213 876 q 481 950 371 950 q 669 913 590 950 q 800 812 749 876 q 876 659 851 747 q 900 468 900 571 q 876 277 900 365 q 800 124 851 189 q 669 23 749 60 q 481 -14 590 -14 m 615 1076 l 579 1025 l 346 1163 l 410 1250 l 615 1076 z "},"Ó":{"ha":961,"x_min":61,"x_max":900,"o":"m 481 86 q 706 185 632 86 q 781 468 781 285 q 706 751 781 651 q 481 850 632 850 q 255 751 329 850 q 181 468 181 651 q 255 185 181 285 q 481 86 329 86 m 481 -14 q 292 23 371 -14 q 161 124 213 60 q 85 277 110 189 q 61 468 61 365 q 85 659 61 571 q 161 812 110 747 q 292 913 213 876 q 481 950 371 950 q 669 913 590 950 q 800 812 749 876 q 876 659 851 747 q 900 468 900 571 q 876 277 900 365 q 800 124 851 189 q 669 23 749 60 q 481 -14 590 -14 m 551 1250 l 615 1163 l 382 1025 l 346 1076 l 551 1250 z "},"Ô":{"ha":961,"x_min":61,"x_max":900,"o":"m 481 86 q 706 185 632 86 q 781 468 781 285 q 706 751 781 651 q 481 850 632 850 q 255 751 329 850 q 181 468 181 651 q 255 185 181 285 q 481 86 329 86 m 481 -14 q 292 23 371 -14 q 161 124 213 60 q 85 277 110 189 q 61 468 61 365 q 85 659 61 571 q 161 812 110 747 q 292 913 213 876 q 481 950 371 950 q 669 913 590 950 q 800 812 749 876 q 876 659 851 747 q 900 468 900 571 q 876 277 900 365 q 800 124 851 189 q 669 23 749 60 q 481 -14 590 -14 m 682 1029 l 567 1029 l 481 1147 l 394 1029 l 279 1029 l 440 1225 l 521 1225 l 682 1029 z "},"Õ":{"ha":961,"x_min":61,"x_max":900,"o":"m 481 86 q 706 185 632 86 q 781 468 781 285 q 706 751 781 651 q 481 850 632 850 q 255 751 329 850 q 181 468 181 651 q 255 185 181 285 q 481 86 329 86 m 481 -14 q 292 23 371 -14 q 161 124 213 60 q 85 277 110 189 q 61 468 61 365 q 85 659 61 571 q 161 812 110 747 q 292 913 213 876 q 481 950 371 950 q 669 913 590 950 q 800 812 749 876 q 876 659 851 747 q 900 468 900 571 q 876 277 900 365 q 800 124 851 189 q 669 23 749 60 q 481 -14 590 -14 m 692 1192 q 660 1081 692 1117 q 571 1044 629 1044 q 517 1055 540 1044 q 474 1078 493 1065 q 437 1102 454 1092 q 400 1113 419 1113 q 363 1092 372 1113 q 353 1049 353 1072 l 269 1049 q 393 1196 269 1196 q 446 1185 422 1196 q 490 1162 469 1175 q 527 1138 510 1149 q 561 1128 544 1128 q 598 1146 589 1128 q 607 1192 607 1164 l 692 1192 z "},"Ö":{"ha":961,"x_min":61,"x_max":900,"o":"m 481 86 q 706 185 632 86 q 781 468 781 285 q 706 751 781 651 q 481 850 632 850 q 255 751 329 850 q 181 468 181 651 q 255 185 181 285 q 481 86 329 86 m 481 -14 q 292 23 371 -14 q 161 124 213 60 q 85 277 110 189 q 61 468 61 365 q 85 659 61 571 q 161 812 110 747 q 292 913 213 876 q 481 950 371 950 q 669 913 590 950 q 800 812 749 876 q 876 659 851 747 q 900 468 900 571 q 876 277 900 365 q 800 124 851 189 q 669 23 749 60 q 481 -14 590 -14 m 276 1121 q 294 1169 276 1149 q 347 1190 313 1190 q 400 1169 382 1190 q 418 1121 418 1149 q 400 1072 418 1093 q 347 1051 382 1051 q 294 1072 313 1051 q 276 1121 276 1093 m 543 1121 q 561 1169 543 1149 q 614 1190 579 1190 q 667 1169 649 1190 q 685 1121 685 1149 q 667 1072 685 1093 q 614 1051 649 1051 q 561 1072 579 1051 q 543 1121 543 1093 z "},"×":{"ha":794,"x_min":121,"x_max":674,"o":"m 600 118 l 397 321 l 194 118 l 121 192 l 324 394 l 121 597 l 194 671 l 397 468 l 600 671 l 674 597 l 471 394 l 674 192 l 600 118 z "},"Ø":{"ha":961,"x_min":61,"x_max":900,"o":"m 764 851 q 867 687 835 785 q 900 468 900 589 q 876 277 900 365 q 800 124 851 189 q 669 23 749 60 q 481 -14 590 -14 q 263 38 353 -14 l 206 -56 l 113 -56 l 199 83 q 94 248 128 150 q 61 468 61 346 q 85 659 61 571 q 161 812 110 747 q 292 913 213 876 q 481 950 371 950 q 601 936 547 950 q 699 897 654 922 l 757 992 l 850 992 l 764 851 m 181 468 q 199 301 181 374 q 258 181 218 229 l 643 807 q 481 850 576 850 q 255 751 329 850 q 181 468 181 651 m 481 86 q 706 185 632 86 q 781 468 781 285 q 703 753 781 654 l 318 128 q 481 86 382 86 z "},"Ù":{"ha":928,"x_min":108,"x_max":819,"o":"m 464 -14 q 204 81 300 -14 q 108 375 108 176 l 108 936 l 228 936 l 228 374 q 289 166 228 235 q 464 97 350 97 q 639 166 578 97 q 700 374 700 235 l 700 936 l 819 936 l 819 375 q 724 81 819 176 q 464 -14 628 -14 m 599 1076 l 563 1025 l 329 1163 l 393 1250 l 599 1076 z "},"Ú":{"ha":928,"x_min":108,"x_max":819,"o":"m 464 -14 q 204 81 300 -14 q 108 375 108 176 l 108 936 l 228 936 l 228 374 q 289 166 228 235 q 464 97 350 97 q 639 166 578 97 q 700 374 700 235 l 700 936 l 819 936 l 819 375 q 724 81 819 176 q 464 -14 628 -14 m 535 1250 l 599 1163 l 365 1025 l 329 1076 l 535 1250 z "},"Û":{"ha":928,"x_min":108,"x_max":819,"o":"m 464 -14 q 204 81 300 -14 q 108 375 108 176 l 108 936 l 228 936 l 228 374 q 289 166 228 235 q 464 97 350 97 q 639 166 578 97 q 700 374 700 235 l 700 936 l 819 936 l 819 375 q 724 81 819 176 q 464 -14 628 -14 m 665 1029 l 550 1029 l 464 1147 l 378 1029 l 263 1029 l 424 1225 l 504 1225 l 665 1029 z "},"Ü":{"ha":928,"x_min":108,"x_max":819,"o":"m 464 -14 q 204 81 300 -14 q 108 375 108 176 l 108 936 l 228 936 l 228 374 q 289 166 228 235 q 464 97 350 97 q 639 166 578 97 q 700 374 700 235 l 700 936 l 819 936 l 819 375 q 724 81 819 176 q 464 -14 628 -14 m 260 1121 q 278 1169 260 1149 q 331 1190 296 1190 q 383 1169 365 1190 q 401 1121 401 1149 q 383 1072 401 1093 q 331 1051 365 1051 q 278 1072 296 1051 q 260 1121 260 1093 m 526 1121 q 544 1169 526 1149 q 597 1190 563 1190 q 650 1169 632 1190 q 668 1121 668 1149 q 650 1072 668 1093 q 597 1051 632 1051 q 544 1072 563 1051 q 526 1121 526 1093 z "},"Ý":{"ha":789,"x_min":22,"x_max":767,"o":"m 454 399 l 454 0 l 335 0 l 335 399 l 22 936 l 149 936 l 393 501 l 396 501 l 640 936 l 767 936 l 454 399 m 465 1250 l 529 1163 l 296 1025 l 260 1076 l 465 1250 z "},"Þ":{"ha":792,"x_min":111,"x_max":728,"o":"m 728 474 q 706 358 728 411 q 642 265 683 304 q 542 203 601 225 q 410 181 483 181 l 231 181 l 231 0 l 111 0 l 111 936 l 231 936 l 231 760 l 418 760 q 549 738 492 760 q 647 678 607 717 q 707 587 686 639 q 728 474 728 535 m 608 474 q 560 603 608 557 q 418 649 511 649 l 231 649 l 231 292 l 410 292 q 556 339 503 292 q 608 474 608 386 z "},"ß":{"ha":832,"x_min":103,"x_max":768,"o":"m 485 78 q 606 125 560 78 q 651 275 651 172 q 586 428 651 372 q 394 483 521 483 l 365 483 l 365 579 l 461 579 q 567 608 525 579 q 610 697 610 638 q 595 767 610 739 q 558 813 581 796 q 506 839 535 831 q 449 847 476 847 q 276 778 332 847 q 219 593 219 710 l 219 0 l 103 0 l 103 593 q 125 735 103 669 q 190 848 147 800 q 297 923 233 896 q 446 950 361 950 q 555 933 504 950 q 643 886 606 917 q 702 811 681 856 q 724 711 724 767 q 709 642 724 672 q 672 589 694 611 q 620 552 649 567 q 565 532 592 538 q 641 506 604 525 q 706 453 678 486 q 751 374 733 421 q 768 265 768 328 q 747 140 768 192 q 688 53 725 88 q 599 2 650 18 q 490 -14 549 -14 q 289 29 365 -14 l 315 117 q 394 88 353 99 q 485 78 436 78 z "},"à":{"ha":700,"x_min":56,"x_max":599,"o":"m 489 331 l 349 331 q 215 293 261 331 q 169 189 169 256 q 201 108 169 138 q 283 78 233 78 q 367 95 329 78 q 431 141 404 113 q 474 205 458 169 q 489 276 489 240 l 489 331 m 489 439 q 447 554 489 518 q 335 590 404 590 q 223 578 275 590 q 126 544 171 565 l 100 626 q 200 667 138 649 q 339 685 263 685 q 535 617 472 685 q 599 438 599 550 l 599 0 l 511 0 l 489 114 q 456 66 474 89 q 413 26 439 43 q 350 -3 386 8 q 263 -14 314 -14 q 182 -1 219 -14 q 116 38 144 13 q 72 101 88 64 q 56 189 56 139 q 134 360 56 304 q 350 417 213 417 l 489 417 l 489 439 m 485 804 l 449 753 l 215 890 l 279 978 l 485 804 z "},"á":{"ha":700,"x_min":56,"x_max":599,"o":"m 489 331 l 349 331 q 215 293 261 331 q 169 189 169 256 q 201 108 169 138 q 283 78 233 78 q 367 95 329 78 q 431 141 404 113 q 474 205 458 169 q 489 276 489 240 l 489 331 m 489 439 q 447 554 489 518 q 335 590 404 590 q 223 578 275 590 q 126 544 171 565 l 100 626 q 200 667 138 649 q 339 685 263 685 q 535 617 472 685 q 599 438 599 550 l 599 0 l 511 0 l 489 114 q 456 66 474 89 q 413 26 439 43 q 350 -3 386 8 q 263 -14 314 -14 q 182 -1 219 -14 q 116 38 144 13 q 72 101 88 64 q 56 189 56 139 q 134 360 56 304 q 350 417 213 417 l 489 417 l 489 439 m 421 978 l 485 890 l 251 753 l 215 804 l 421 978 z "},"â":{"ha":700,"x_min":56,"x_max":599,"o":"m 489 331 l 349 331 q 215 293 261 331 q 169 189 169 256 q 201 108 169 138 q 283 78 233 78 q 367 95 329 78 q 431 141 404 113 q 474 205 458 169 q 489 276 489 240 l 489 331 m 489 439 q 447 554 489 518 q 335 590 404 590 q 223 578 275 590 q 126 544 171 565 l 100 626 q 200 667 138 649 q 339 685 263 685 q 535 617 472 685 q 599 438 599 550 l 599 0 l 511 0 l 489 114 q 456 66 474 89 q 413 26 439 43 q 350 -3 386 8 q 263 -14 314 -14 q 182 -1 219 -14 q 116 38 144 13 q 72 101 88 64 q 56 189 56 139 q 134 360 56 304 q 350 417 213 417 l 489 417 l 489 439 m 551 757 l 436 757 l 350 875 l 264 757 l 149 757 l 310 953 l 390 953 l 551 757 z "},"ã":{"ha":700,"x_min":56,"x_max":599,"o":"m 489 331 l 349 331 q 215 293 261 331 q 169 189 169 256 q 201 108 169 138 q 283 78 233 78 q 367 95 329 78 q 431 141 404 113 q 474 205 458 169 q 489 276 489 240 l 489 331 m 489 439 q 447 554 489 518 q 335 590 404 590 q 223 578 275 590 q 126 544 171 565 l 100 626 q 200 667 138 649 q 339 685 263 685 q 535 617 472 685 q 599 438 599 550 l 599 0 l 511 0 l 489 114 q 456 66 474 89 q 413 26 439 43 q 350 -3 386 8 q 263 -14 314 -14 q 182 -1 219 -14 q 116 38 144 13 q 72 101 88 64 q 56 189 56 139 q 134 360 56 304 q 350 417 213 417 l 489 417 l 489 439 m 561 919 q 530 808 561 844 q 440 772 499 772 q 386 783 410 772 q 343 806 363 793 q 306 830 324 819 q 269 840 289 840 q 232 820 242 840 q 222 776 222 800 l 139 776 q 263 924 139 924 q 315 913 292 924 q 359 890 339 903 q 397 866 379 876 q 431 856 414 856 q 467 874 458 856 q 476 919 476 892 l 561 919 z "},"ä":{"ha":700,"x_min":56,"x_max":599,"o":"m 489 331 l 349 331 q 215 293 261 331 q 169 189 169 256 q 201 108 169 138 q 283 78 233 78 q 367 95 329 78 q 431 141 404 113 q 474 205 458 169 q 489 276 489 240 l 489 331 m 489 439 q 447 554 489 518 q 335 590 404 590 q 223 578 275 590 q 126 544 171 565 l 100 626 q 200 667 138 649 q 339 685 263 685 q 535 617 472 685 q 599 438 599 550 l 599 0 l 511 0 l 489 114 q 456 66 474 89 q 413 26 439 43 q 350 -3 386 8 q 263 -14 314 -14 q 182 -1 219 -14 q 116 38 144 13 q 72 101 88 64 q 56 189 56 139 q 134 360 56 304 q 350 417 213 417 l 489 417 l 489 439 m 146 849 q 164 897 146 876 q 217 918 182 918 q 269 897 251 918 q 288 849 288 876 q 269 800 288 821 q 217 779 251 779 q 164 800 182 779 q 146 849 146 821 m 413 849 q 431 897 413 876 q 483 918 449 918 q 536 897 518 918 q 554 849 554 876 q 536 800 554 821 q 483 779 518 779 q 431 800 449 779 q 413 849 413 821 z "},"å":{"ha":700,"x_min":56,"x_max":599,"o":"m 489 331 l 349 331 q 215 293 261 331 q 169 189 169 256 q 201 108 169 138 q 283 78 233 78 q 367 95 329 78 q 431 141 404 113 q 474 205 458 169 q 489 276 489 240 l 489 331 m 489 439 q 447 554 489 518 q 335 590 404 590 q 223 578 275 590 q 126 544 171 565 l 100 626 q 200 667 138 649 q 339 685 263 685 q 535 617 472 685 q 599 438 599 550 l 599 0 l 511 0 l 489 114 q 456 66 474 89 q 413 26 439 43 q 350 -3 386 8 q 263 -14 314 -14 q 182 -1 219 -14 q 116 38 144 13 q 72 101 88 64 q 56 189 56 139 q 134 360 56 304 q 350 417 213 417 l 489 417 l 489 439 m 285 882 q 303 831 285 850 q 350 813 322 813 q 397 831 378 813 q 417 882 417 850 q 397 933 417 914 q 350 951 378 951 q 303 933 322 951 q 285 882 285 914 m 217 881 q 256 975 217 936 q 350 1014 294 1014 q 444 975 406 1014 q 483 881 483 936 q 444 787 483 825 q 350 749 406 749 q 256 787 294 749 q 217 881 217 825 z "},"æ":{"ha":1103,"x_min":56,"x_max":1039,"o":"m 599 283 q 660 133 610 185 q 811 81 710 81 q 896 89 854 81 q 978 117 938 97 l 1004 31 q 913 -3 960 7 q 800 -14 865 -14 q 633 29 690 -14 q 546 150 576 72 q 504 89 529 118 q 444 37 479 60 q 365 0 410 14 q 263 -14 319 -14 q 182 -1 219 -14 q 116 38 144 13 q 72 101 88 64 q 56 189 56 139 q 134 360 56 304 q 350 417 213 417 l 489 417 l 489 439 q 447 554 489 518 q 335 590 404 590 q 223 578 275 590 q 126 544 171 565 l 100 626 q 200 667 138 649 q 339 685 263 685 q 473 658 422 685 q 554 582 524 631 q 645 658 588 631 q 781 685 703 685 q 975 608 911 685 q 1039 401 1039 531 q 1035 338 1039 365 q 1025 283 1032 310 l 599 283 m 489 331 l 349 331 q 215 293 261 331 q 169 189 169 256 q 201 108 169 138 q 283 78 233 78 q 367 94 329 78 q 431 138 404 110 q 474 201 458 165 q 489 276 489 236 l 489 331 m 781 596 q 697 578 731 596 q 643 531 664 561 q 612 460 622 501 q 599 369 601 418 l 933 369 l 933 401 q 901 544 933 493 q 781 596 868 596 z "},"ç":{"ha":639,"x_min":58,"x_max":589,"o":"m 386 590 q 292 571 332 590 q 225 517 251 551 q 186 437 199 483 q 174 336 174 390 q 186 235 174 282 q 226 153 199 188 q 294 100 253 119 q 392 81 335 81 q 478 90 435 81 q 563 118 522 99 l 589 32 q 495 -3 544 8 q 381 -14 446 -14 q 238 13 299 -14 q 138 88 178 40 q 78 199 97 135 q 58 336 58 263 q 78 474 58 410 q 138 584 97 538 q 241 658 179 631 q 388 685 303 685 q 583 642 501 685 l 557 554 q 386 590 481 590 m 358 -232 l 232 -232 l 347 -53 l 424 -53 l 358 -232 z "},"è":{"ha":697,"x_min":58,"x_max":633,"o":"m 174 283 q 239 133 185 185 q 394 81 293 81 q 485 89 438 81 q 572 117 532 97 l 599 31 q 383 -14 511 -14 q 139 81 219 -14 q 58 336 58 175 q 75 474 58 410 q 128 584 92 538 q 223 658 165 631 q 364 685 281 685 q 567 608 501 685 q 633 401 633 531 q 630 338 633 365 q 619 283 626 310 l 174 283 m 364 596 q 279 578 314 596 q 222 531 244 561 q 186 460 199 501 q 171 369 174 418 l 525 369 l 525 401 q 488 544 525 493 q 364 596 451 596 m 483 804 l 447 753 l 214 890 l 278 978 l 483 804 z "},"é":{"ha":697,"x_min":58,"x_max":633,"o":"m 174 283 q 239 133 185 185 q 394 81 293 81 q 485 89 438 81 q 572 117 532 97 l 599 31 q 383 -14 511 -14 q 139 81 219 -14 q 58 336 58 175 q 75 474 58 410 q 128 584 92 538 q 223 658 165 631 q 364 685 281 685 q 567 608 501 685 q 633 401 633 531 q 630 338 633 365 q 619 283 626 310 l 174 283 m 364 596 q 279 578 314 596 q 222 531 244 561 q 186 460 199 501 q 171 369 174 418 l 525 369 l 525 401 q 488 544 525 493 q 364 596 451 596 m 419 978 l 483 890 l 250 753 l 214 804 l 419 978 z "},"ê":{"ha":697,"x_min":58,"x_max":633,"o":"m 174 283 q 239 133 185 185 q 394 81 293 81 q 485 89 438 81 q 572 117 532 97 l 599 31 q 383 -14 511 -14 q 139 81 219 -14 q 58 336 58 175 q 75 474 58 410 q 128 584 92 538 q 223 658 165 631 q 364 685 281 685 q 567 608 501 685 q 633 401 633 531 q 630 338 633 365 q 619 283 626 310 l 174 283 m 364 596 q 279 578 314 596 q 222 531 244 561 q 186 460 199 501 q 171 369 174 418 l 525 369 l 525 401 q 488 544 525 493 q 364 596 451 596 m 550 757 l 435 757 l 349 875 l 263 757 l 147 757 l 308 953 l 389 953 l 550 757 z "},"ë":{"ha":697,"x_min":58,"x_max":633,"o":"m 174 283 q 239 133 185 185 q 394 81 293 81 q 485 89 438 81 q 572 117 532 97 l 599 31 q 383 -14 511 -14 q 139 81 219 -14 q 58 336 58 175 q 75 474 58 410 q 128 584 92 538 q 223 658 165 631 q 364 685 281 685 q 567 608 501 685 q 633 401 633 531 q 630 338 633 365 q 619 283 626 310 l 174 283 m 364 596 q 279 578 314 596 q 222 531 244 561 q 186 460 199 501 q 171 369 174 418 l 525 369 l 525 401 q 488 544 525 493 q 364 596 451 596 m 144 849 q 163 897 144 876 q 215 918 181 918 q 268 897 250 918 q 286 849 286 876 q 268 800 286 821 q 215 779 250 779 q 163 800 181 779 q 144 849 144 821 m 411 849 q 429 897 411 876 q 482 918 447 918 q 535 897 517 918 q 553 849 553 876 q 535 800 553 821 q 482 779 517 779 q 429 800 447 779 q 411 849 411 821 z "},"ì":{"ha":333,"x_min":32,"x_max":301,"o":"m 225 0 l 108 0 l 108 671 l 225 671 l 225 0 m 301 804 l 265 753 l 32 890 l 96 978 l 301 804 z "},"í":{"ha":333,"x_min":33,"x_max":303,"o":"m 225 0 l 108 0 l 108 671 l 225 671 l 225 0 m 239 978 l 303 890 l 69 753 l 33 804 l 239 978 z "},"î":{"ha":333,"x_min":-33,"x_max":369,"o":"m 225 0 l 108 0 l 108 671 l 225 671 l 225 0 m 369 757 l 254 757 l 168 875 l 82 757 l -33 757 l 128 953 l 208 953 l 369 757 z "},"ï":{"ha":333,"x_min":-36,"x_max":372,"o":"m 225 0 l 108 0 l 108 671 l 225 671 l 225 0 m -36 849 q -18 897 -36 876 q 35 918 0 918 q 88 897 69 918 q 106 849 106 876 q 88 800 106 821 q 35 779 69 779 q -18 800 0 779 q -36 849 -36 821 m 231 849 q 249 897 231 876 q 301 918 267 918 q 354 897 336 918 q 372 849 372 876 q 354 800 372 821 q 301 779 336 779 q 249 800 267 779 q 231 849 231 821 z "},"ð":{"ha":763,"x_min":56,"x_max":701,"o":"m 243 714 l 217 774 l 353 838 q 206 910 283 883 l 246 985 q 443 881 354 949 l 604 957 l 635 897 l 499 833 q 646 624 590 746 q 701 350 701 501 q 679 208 701 275 q 615 92 657 142 q 512 15 572 43 q 375 -14 451 -14 q 242 13 301 -14 q 142 87 183 40 q 78 196 100 133 q 56 328 56 258 q 79 465 56 400 q 144 578 103 529 q 242 656 185 626 q 365 685 299 685 q 551 614 485 685 l 556 614 q 503 705 540 658 q 413 793 465 751 l 243 714 m 588 336 q 575 433 588 386 q 537 515 563 479 q 472 573 511 551 q 378 594 432 594 q 288 573 326 594 q 222 515 249 551 q 183 431 196 479 q 169 331 169 383 q 183 235 169 281 q 224 156 197 190 q 289 102 251 122 q 375 82 326 82 q 466 106 426 82 q 533 167 506 129 q 574 249 560 204 q 588 336 588 294 z "},"ñ":{"ha":783,"x_min":104,"x_max":682,"o":"m 221 0 l 104 0 l 104 671 l 201 671 l 221 571 q 256 609 233 589 q 307 646 278 629 q 373 674 336 663 q 451 685 410 685 q 621 613 560 685 q 682 418 682 542 l 682 0 l 568 0 l 568 418 q 532 536 568 493 q 431 579 496 579 q 310 549 364 579 q 221 469 257 518 l 221 0 m 603 919 q 572 808 603 844 q 482 772 540 772 q 428 783 451 772 q 385 806 404 793 q 348 830 365 819 q 311 840 331 840 q 274 820 283 840 q 264 776 264 800 l 181 776 q 304 924 181 924 q 357 913 333 924 q 401 890 381 903 q 438 866 421 876 q 472 856 456 856 q 509 874 500 856 q 518 919 518 892 l 603 919 z "},"ò":{"ha":750,"x_min":58,"x_max":692,"o":"m 174 336 q 185 235 174 282 q 222 153 197 188 q 284 100 246 119 q 375 81 322 81 q 466 100 428 81 q 528 153 504 119 q 565 235 553 188 q 576 336 576 282 q 565 437 576 390 q 528 517 553 483 q 466 571 504 551 q 375 590 428 590 q 284 571 322 590 q 222 517 246 551 q 185 437 197 483 q 174 336 174 390 m 58 336 q 77 474 58 410 q 135 584 96 538 q 233 658 174 631 q 375 685 293 685 q 517 658 457 685 q 615 584 576 631 q 673 474 654 538 q 692 336 692 410 q 673 199 692 263 q 615 88 654 135 q 517 13 576 40 q 375 -14 457 -14 q 233 13 293 -14 q 135 88 174 40 q 77 199 96 135 q 58 336 58 263 m 510 804 l 474 753 l 240 890 l 304 978 l 510 804 z "},"ó":{"ha":750,"x_min":58,"x_max":692,"o":"m 174 336 q 185 235 174 282 q 222 153 197 188 q 284 100 246 119 q 375 81 322 81 q 466 100 428 81 q 528 153 504 119 q 565 235 553 188 q 576 336 576 282 q 565 437 576 390 q 528 517 553 483 q 466 571 504 551 q 375 590 428 590 q 284 571 322 590 q 222 517 246 551 q 185 437 197 483 q 174 336 174 390 m 58 336 q 77 474 58 410 q 135 584 96 538 q 233 658 174 631 q 375 685 293 685 q 517 658 457 685 q 615 584 576 631 q 673 474 654 538 q 692 336 692 410 q 673 199 692 263 q 615 88 654 135 q 517 13 576 40 q 375 -14 457 -14 q 233 13 293 -14 q 135 88 174 40 q 77 199 96 135 q 58 336 58 263 m 446 978 l 510 890 l 276 753 l 240 804 l 446 978 z "},"ô":{"ha":750,"x_min":58,"x_max":692,"o":"m 174 336 q 185 235 174 282 q 222 153 197 188 q 284 100 246 119 q 375 81 322 81 q 466 100 428 81 q 528 153 504 119 q 565 235 553 188 q 576 336 576 282 q 565 437 576 390 q 528 517 553 483 q 466 571 504 551 q 375 590 428 590 q 284 571 322 590 q 222 517 246 551 q 185 437 197 483 q 174 336 174 390 m 58 336 q 77 474 58 410 q 135 584 96 538 q 233 658 174 631 q 375 685 293 685 q 517 658 457 685 q 615 584 576 631 q 673 474 654 538 q 692 336 692 410 q 673 199 692 263 q 615 88 654 135 q 517 13 576 40 q 375 -14 457 -14 q 233 13 293 -14 q 135 88 174 40 q 77 199 96 135 q 58 336 58 263 m 576 757 l 461 757 l 375 875 l 289 757 l 174 757 l 335 953 l 415 953 l 576 757 z "},"õ":{"ha":750,"x_min":58,"x_max":692,"o":"m 174 336 q 185 235 174 282 q 222 153 197 188 q 284 100 246 119 q 375 81 322 81 q 466 100 428 81 q 528 153 504 119 q 565 235 553 188 q 576 336 576 282 q 565 437 576 390 q 528 517 553 483 q 466 571 504 551 q 375 590 428 590 q 284 571 322 590 q 222 517 246 551 q 185 437 197 483 q 174 336 174 390 m 58 336 q 77 474 58 410 q 135 584 96 538 q 233 658 174 631 q 375 685 293 685 q 517 658 457 685 q 615 584 576 631 q 673 474 654 538 q 692 336 692 410 q 673 199 692 263 q 615 88 654 135 q 517 13 576 40 q 375 -14 457 -14 q 233 13 293 -14 q 135 88 174 40 q 77 199 96 135 q 58 336 58 263 m 586 919 q 555 808 586 844 q 465 772 524 772 q 411 783 435 772 q 368 806 388 793 q 331 830 349 819 q 294 840 314 840 q 257 820 267 840 q 247 776 247 800 l 164 776 q 288 924 164 924 q 340 913 317 924 q 384 890 364 903 q 422 866 404 876 q 456 856 439 856 q 492 874 483 856 q 501 919 501 892 l 586 919 z "},"ö":{"ha":750,"x_min":58,"x_max":692,"o":"m 174 336 q 185 235 174 282 q 222 153 197 188 q 284 100 246 119 q 375 81 322 81 q 466 100 428 81 q 528 153 504 119 q 565 235 553 188 q 576 336 576 282 q 565 437 576 390 q 528 517 553 483 q 466 571 504 551 q 375 590 428 590 q 284 571 322 590 q 222 517 246 551 q 185 437 197 483 q 174 336 174 390 m 58 336 q 77 474 58 410 q 135 584 96 538 q 233 658 174 631 q 375 685 293 685 q 517 658 457 685 q 615 584 576 631 q 673 474 654 538 q 692 336 692 410 q 673 199 692 263 q 615 88 654 135 q 517 13 576 40 q 375 -14 457 -14 q 233 13 293 -14 q 135 88 174 40 q 77 199 96 135 q 58 336 58 263 m 171 849 q 189 897 171 876 q 242 918 207 918 q 294 897 276 918 q 313 849 313 876 q 294 800 313 821 q 242 779 276 779 q 189 800 207 779 q 171 849 171 821 m 438 849 q 456 897 438 876 q 508 918 474 918 q 561 897 543 918 q 579 849 579 876 q 561 800 579 821 q 508 779 543 779 q 456 800 474 779 q 438 849 438 821 z "},"÷":{"ha":794,"x_min":110,"x_max":685,"o":"m 685 442 l 685 347 l 110 347 l 110 442 l 685 442 m 307 185 q 329 244 307 219 q 392 268 351 268 q 454 244 432 268 q 476 185 476 219 q 454 126 476 150 q 392 101 432 101 q 329 126 351 101 q 307 185 307 150 m 307 601 q 329 660 307 636 q 392 685 351 685 q 454 660 432 685 q 476 601 476 636 q 454 542 476 567 q 392 518 432 518 q 329 542 351 518 q 307 601 307 567 z "},"ø":{"ha":750,"x_min":58,"x_max":692,"o":"m 567 629 q 661 506 631 582 q 692 336 692 429 q 673 199 692 263 q 615 88 654 135 q 517 13 576 40 q 375 -14 457 -14 q 231 14 293 -14 l 193 -56 l 114 -56 l 172 50 q 86 172 114 99 q 58 336 58 246 q 77 474 58 410 q 135 584 96 538 q 233 658 174 631 q 375 685 293 685 q 506 661 447 685 l 557 754 l 636 754 l 567 629 m 576 336 q 562 449 576 399 q 515 533 547 499 l 279 103 q 375 81 321 81 q 466 100 428 81 q 528 153 504 119 q 565 235 553 188 q 576 336 576 282 m 174 336 q 186 231 174 278 q 225 149 199 183 l 458 574 q 375 590 422 590 q 284 571 322 590 q 222 517 246 551 q 185 437 197 483 q 174 336 174 390 z "},"ù":{"ha":775,"x_min":101,"x_max":671,"o":"m 554 671 l 671 671 l 671 0 l 576 0 l 554 114 q 521 70 542 93 q 471 28 500 47 q 403 -2 442 10 q 318 -14 365 -14 q 230 1 269 -14 q 162 48 190 15 q 117 131 133 81 q 101 253 101 182 l 101 671 l 215 671 l 215 253 q 249 132 215 175 q 339 89 283 89 q 466 128 414 89 q 554 218 518 167 l 554 671 m 522 804 l 486 753 l 253 890 l 317 978 l 522 804 z "},"ú":{"ha":775,"x_min":101,"x_max":671,"o":"m 554 671 l 671 671 l 671 0 l 576 0 l 554 114 q 521 70 542 93 q 471 28 500 47 q 403 -2 442 10 q 318 -14 365 -14 q 230 1 269 -14 q 162 48 190 15 q 117 131 133 81 q 101 253 101 182 l 101 671 l 215 671 l 215 253 q 249 132 215 175 q 339 89 283 89 q 466 128 414 89 q 554 218 518 167 l 554 671 m 458 978 l 522 890 l 289 753 l 253 804 l 458 978 z "},"û":{"ha":775,"x_min":101,"x_max":671,"o":"m 554 671 l 671 671 l 671 0 l 576 0 l 554 114 q 521 70 542 93 q 471 28 500 47 q 403 -2 442 10 q 318 -14 365 -14 q 230 1 269 -14 q 162 48 190 15 q 117 131 133 81 q 101 253 101 182 l 101 671 l 215 671 l 215 253 q 249 132 215 175 q 339 89 283 89 q 466 128 414 89 q 554 218 518 167 l 554 671 m 589 757 l 474 757 l 388 875 l 301 757 l 186 757 l 347 953 l 428 953 l 589 757 z "},"ü":{"ha":775,"x_min":101,"x_max":671,"o":"m 554 671 l 671 671 l 671 0 l 576 0 l 554 114 q 521 70 542 93 q 471 28 500 47 q 403 -2 442 10 q 318 -14 365 -14 q 230 1 269 -14 q 162 48 190 15 q 117 131 133 81 q 101 253 101 182 l 101 671 l 215 671 l 215 253 q 249 132 215 175 q 339 89 283 89 q 466 128 414 89 q 554 218 518 167 l 554 671 m 183 849 q 201 897 183 876 q 254 918 219 918 q 307 897 289 918 q 325 849 325 876 q 307 800 325 821 q 254 779 289 779 q 201 800 219 779 q 183 849 183 821 m 450 849 q 468 897 450 876 q 521 918 486 918 q 574 897 556 918 q 592 849 592 876 q 574 800 592 821 q 521 779 556 779 q 468 800 486 779 q 450 849 450 821 z "},"ý":{"ha":771,"x_min":101,"x_max":667,"o":"m 550 128 q 517 84 538 107 q 467 42 496 61 q 401 12 439 24 q 317 0 364 0 q 228 15 268 0 q 161 62 189 29 q 117 145 133 94 q 101 267 101 196 l 101 671 l 215 671 l 215 267 q 249 146 215 189 q 338 103 282 103 q 464 142 413 103 q 550 232 515 181 l 550 671 l 667 671 l 667 57 q 584 -197 667 -114 q 354 -279 501 -279 q 228 -261 290 -279 q 126 -218 165 -243 l 156 -125 q 244 -162 196 -149 q 346 -175 292 -175 q 433 -164 394 -175 q 497 -126 471 -153 q 536 -53 522 -99 q 550 58 550 -8 l 550 128 m 456 978 l 519 890 l 286 753 l 250 804 l 456 978 z "},"þ":{"ha":778,"x_min":106,"x_max":714,"o":"m 222 329 q 239 231 222 275 q 283 156 256 188 q 345 108 310 125 q 418 92 381 92 q 488 105 454 92 q 546 149 521 118 q 585 228 571 179 q 600 347 600 276 q 553 521 600 463 q 429 579 507 579 q 313 548 368 579 q 222 469 258 517 l 222 329 m 222 936 l 222 571 q 257 609 235 589 q 308 646 279 629 q 374 674 338 663 q 451 685 410 685 q 569 656 519 685 q 651 578 619 626 q 699 470 683 531 q 714 347 714 410 q 638 79 714 172 q 436 -14 561 -14 q 367 -3 400 -14 q 305 24 333 7 q 256 65 276 42 q 222 114 235 89 l 222 -265 l 106 -265 l 106 936 l 222 936 z "},"ÿ":{"ha":771,"x_min":101,"x_max":667,"o":"m 550 128 q 517 84 538 107 q 467 42 496 61 q 401 12 439 24 q 317 0 364 0 q 228 15 268 0 q 161 62 189 29 q 117 145 133 94 q 101 267 101 196 l 101 671 l 215 671 l 215 267 q 249 146 215 189 q 338 103 282 103 q 464 142 413 103 q 550 232 515 181 l 550 671 l 667 671 l 667 57 q 584 -197 667 -114 q 354 -279 501 -279 q 228 -261 290 -279 q 126 -218 165 -243 l 156 -125 q 244 -162 196 -149 q 346 -175 292 -175 q 433 -164 394 -175 q 497 -126 471 -153 q 536 -53 522 -99 q 550 58 550 -8 l 550 128 m 181 849 q 199 897 181 876 q 251 918 217 918 q 304 897 286 918 q 322 849 322 876 q 304 800 322 821 q 251 779 286 779 q 199 800 217 779 q 181 849 181 821 m 447 849 q 465 897 447 876 q 518 918 483 918 q 571 897 553 918 q 589 849 589 876 q 571 800 589 821 q 518 779 553 779 q 465 800 483 779 q 447 849 447 821 z "},"ı":{"ha":333,"x_min":108,"x_max":225,"o":"m 225 0 l 108 0 l 108 671 l 225 671 l 225 0 z "},"Ł":{"ha":714,"x_min":29,"x_max":672,"o":"m 29 464 l 111 499 l 111 936 l 231 936 l 231 551 l 433 640 l 433 529 l 231 440 l 231 111 l 672 111 l 672 0 l 111 0 l 111 388 l 29 353 l 29 464 z "},"ł":{"ha":333,"x_min":35,"x_max":299,"o":"m 225 547 l 299 579 l 299 468 l 225 436 l 225 0 l 108 0 l 108 385 l 35 353 l 35 464 l 108 496 l 108 936 l 225 936 l 225 547 z "},"Œ":{"ha":1354,"x_min":61,"x_max":1288,"o":"m 707 94 q 619 19 675 53 q 472 -14 564 -14 q 288 23 365 -14 q 160 124 211 60 q 85 277 110 189 q 61 468 61 365 q 85 659 61 571 q 160 812 110 747 q 286 913 210 876 q 467 950 363 950 q 552 941 514 950 q 619 917 590 932 q 670 882 649 901 q 707 842 692 863 l 707 936 l 1279 936 l 1279 826 l 826 826 l 826 539 l 1251 539 l 1251 429 l 826 429 l 826 110 l 1288 110 l 1288 0 l 707 0 l 707 94 m 481 86 q 620 117 565 86 q 707 211 675 149 l 707 713 q 620 813 675 775 q 481 850 565 850 q 255 751 329 850 q 181 468 181 651 q 255 185 181 285 q 481 86 329 86 z "},"œ":{"ha":1169,"x_min":58,"x_max":1106,"o":"m 646 283 q 711 133 657 185 q 867 81 765 81 q 957 89 910 81 q 1044 117 1004 97 l 1071 31 q 856 -14 983 -14 q 701 15 765 -14 q 596 99 636 44 q 558 53 578 74 q 511 17 538 32 q 451 -6 485 3 q 375 -14 418 -14 q 233 13 293 -14 q 135 88 174 40 q 77 199 96 135 q 58 336 58 263 q 77 474 58 410 q 135 584 96 538 q 233 658 174 631 q 375 685 293 685 q 514 652 461 685 q 594 575 567 619 q 690 656 631 626 q 836 685 749 685 q 1040 608 974 685 q 1106 401 1106 531 q 1102 338 1106 365 q 1092 283 1099 310 l 646 283 m 174 336 q 185 235 174 282 q 222 153 197 188 q 284 100 246 119 q 375 81 322 81 q 553 186 506 81 q 536 257 542 218 q 531 336 531 296 q 535 412 531 375 q 549 481 539 449 q 483 560 525 531 q 375 590 442 590 q 284 571 322 590 q 222 517 246 551 q 185 437 197 483 q 174 336 174 390 m 836 596 q 751 578 786 596 q 694 531 717 561 q 658 460 671 501 q 643 369 646 418 l 997 369 l 997 401 q 960 544 997 493 q 836 596 924 596 z "},"Š":{"ha":736,"x_min":69,"x_max":667,"o":"m 324 -14 q 175 1 235 -14 q 69 39 115 15 l 100 138 q 196 106 139 118 q 324 93 253 93 q 415 102 374 93 q 487 130 457 111 q 534 178 517 149 q 551 250 551 208 q 533 319 551 292 q 485 367 515 347 q 415 402 456 388 q 332 431 375 417 q 244 463 290 444 q 158 512 197 482 q 94 587 119 542 q 69 699 69 632 q 88 799 69 753 q 144 878 106 844 q 244 931 183 913 q 388 950 304 950 q 513 937 457 950 q 617 900 568 924 l 586 801 q 495 832 546 821 q 388 843 444 843 q 232 803 279 843 q 185 701 185 764 q 201 636 185 663 q 247 590 218 610 q 313 557 275 571 q 392 529 350 543 q 488 492 439 513 q 577 439 538 471 q 642 360 617 407 q 667 247 667 314 q 642 131 667 181 q 572 49 617 82 q 463 1 526 17 q 324 -14 400 -14 m 408 1026 l 328 1026 l 167 1222 l 282 1222 l 368 1104 l 454 1222 l 569 1222 l 408 1026 z "},"š":{"ha":601,"x_min":64,"x_max":538,"o":"m 274 78 q 390 108 356 78 q 425 178 425 138 q 413 223 425 204 q 379 256 400 242 q 331 281 358 271 q 271 301 303 292 q 188 332 225 315 q 123 372 150 349 q 81 428 96 396 q 67 506 67 461 q 131 638 67 590 q 311 685 196 685 q 422 674 368 685 q 517 642 475 664 l 490 554 q 411 583 453 572 q 321 593 369 593 q 213 568 246 593 q 179 506 179 543 q 214 439 179 461 q 308 397 249 417 q 408 359 365 379 q 480 313 451 339 q 523 254 508 288 q 538 176 538 221 q 476 38 538 90 q 279 -14 414 -14 q 158 -3 213 -14 q 64 29 103 7 l 90 117 q 175 88 128 99 q 274 78 222 78 m 340 754 l 260 754 l 99 950 l 214 950 l 300 832 l 386 950 l 501 950 l 340 754 z "},"Ÿ":{"ha":789,"x_min":22,"x_max":767,"o":"m 454 399 l 454 0 l 335 0 l 335 399 l 22 936 l 149 936 l 393 501 l 396 501 l 640 936 l 767 936 l 454 399 m 190 1121 q 208 1169 190 1149 q 261 1190 226 1190 q 314 1169 296 1190 q 332 1121 332 1149 q 314 1072 332 1093 q 261 1051 296 1051 q 208 1072 226 1051 q 190 1121 190 1093 m 457 1121 q 475 1169 457 1149 q 528 1190 493 1190 q 581 1169 563 1190 q 599 1121 599 1149 q 581 1072 599 1093 q 528 1051 563 1051 q 475 1072 493 1051 q 457 1121 457 1093 z "},"Ž":{"ha":761,"x_min":56,"x_max":697,"o":"m 56 83 l 533 826 l 89 826 l 89 936 l 689 936 l 689 853 l 211 110 l 697 110 l 697 0 l 56 0 l 56 83 m 435 1026 l 354 1026 l 193 1222 l 308 1222 l 394 1104 l 481 1222 l 596 1222 l 435 1026 z "},"ž":{"ha":628,"x_min":58,"x_max":567,"o":"m 58 67 l 413 576 l 85 576 l 85 671 l 554 671 l 554 604 l 200 94 l 567 94 l 567 0 l 58 0 l 58 67 m 354 754 l 274 754 l 113 950 l 228 950 l 314 832 l 400 950 l 515 950 l 354 754 z "},"ƒ":{"ha":794,"x_min":69,"x_max":692,"o":"m 342 551 l 356 654 q 380 761 364 713 q 423 844 396 810 q 491 897 450 878 q 592 917 532 917 q 648 910 624 917 q 692 892 672 903 l 650 800 q 581 814 618 814 q 506 772 528 814 q 472 656 483 731 l 457 551 l 621 551 l 621 483 l 449 483 l 404 154 q 380 47 396 96 q 337 -35 364 -1 q 269 -89 310 -69 q 168 -108 228 -108 q 112 -101 136 -108 q 69 -83 88 -94 l 110 8 q 179 -6 142 -6 q 254 36 232 -6 q 288 153 276 78 l 332 483 l 204 483 l 204 551 l 342 551 z "},"ˆ":{"ha":417,"x_min":7,"x_max":410,"o":"m 410 757 l 294 757 l 208 875 l 122 757 l 7 757 l 168 953 l 249 953 l 410 757 z "},"ˇ":{"ha":417,"x_min":7,"x_max":410,"o":"m 249 754 l 168 754 l 7 950 l 122 950 l 208 832 l 294 950 l 410 950 l 249 754 z "},"˘":{"ha":417,"x_min":7,"x_max":410,"o":"m 410 969 q 392 897 406 931 q 353 838 378 863 q 292 798 328 813 q 210 783 256 783 q 126 798 163 783 q 65 838 90 813 q 26 897 40 863 q 7 969 11 931 l 93 969 q 131 897 100 925 q 211 869 161 869 q 290 897 260 869 q 328 969 321 925 l 410 969 z "},"˙":{"ha":417,"x_min":131,"x_max":286,"o":"m 131 853 q 151 907 131 885 q 208 929 171 929 q 266 907 246 929 q 286 853 286 885 q 266 799 286 821 q 208 776 246 776 q 151 799 171 776 q 131 853 131 821 z "},"˚":{"ha":417,"x_min":75,"x_max":342,"o":"m 143 882 q 162 831 143 850 q 208 813 181 813 q 256 831 236 813 q 275 882 275 850 q 256 933 275 914 q 208 951 236 951 q 162 933 181 951 q 143 882 143 914 m 75 881 q 114 975 75 936 q 208 1014 153 1014 q 303 975 264 1014 q 342 881 342 936 q 303 787 342 825 q 208 749 264 749 q 114 787 153 749 q 75 881 75 825 z "},"˛":{"ha":417,"x_min":167,"x_max":358,"o":"m 167 3 l 243 3 l 358 -176 l 232 -176 l 167 3 z "},"˜":{"ha":417,"x_min":-3,"x_max":419,"o":"m 419 919 q 388 808 419 844 q 299 772 357 772 q 244 783 268 772 q 201 806 221 793 q 165 830 182 819 q 128 840 147 840 q 90 820 100 840 q 81 776 81 800 l -3 776 q 121 924 -3 924 q 174 913 150 924 q 217 890 197 903 q 255 866 238 876 q 289 856 272 856 q 326 874 317 856 q 335 919 335 892 l 419 919 z "},"˝":{"ha":417,"x_min":47,"x_max":521,"o":"m 392 960 l 521 960 l 361 765 l 271 765 l 392 960 m 168 960 l 297 960 l 136 765 l 47 765 l 168 960 z "},"Ω":{"ha":1044,"x_min":97,"x_max":947,"o":"m 525 839 q 299 753 381 839 q 217 510 217 667 q 241 367 217 435 q 301 244 265 300 q 378 145 338 188 q 453 76 419 103 l 453 0 l 149 0 l 149 104 l 315 104 q 247 171 285 131 q 176 265 210 211 q 120 385 143 318 q 97 531 97 451 q 127 703 97 626 q 212 835 157 781 q 345 920 267 890 q 522 950 424 950 q 699 920 619 950 q 833 835 778 890 q 917 703 888 781 q 947 531 947 626 q 924 385 947 451 q 868 265 901 318 q 797 171 835 211 q 729 104 760 131 l 896 104 l 896 0 l 592 0 l 592 76 q 666 145 625 103 q 743 244 707 188 q 803 367 779 300 q 828 510 828 435 q 747 753 828 667 q 525 839 665 839 z "},"π":{"ha":832,"x_min":44,"x_max":776,"o":"m 776 13 q 728 -5 757 1 q 668 -11 700 -11 q 585 4 618 -11 q 531 47 551 19 q 503 108 511 74 q 496 183 496 143 l 496 579 l 326 579 l 326 279 q 323 204 326 246 q 313 123 319 163 q 298 50 307 83 q 278 0 289 17 l 164 0 q 186 56 176 21 q 201 133 196 92 q 210 213 207 174 q 213 279 213 251 l 213 579 q 128 568 164 578 q 63 543 92 558 l 44 633 q 76 649 57 642 q 119 660 96 656 q 166 669 142 665 q 214 672 190 672 l 772 672 l 772 579 l 608 579 l 608 174 q 627 106 608 132 q 682 81 646 81 q 724 83 710 81 q 751 92 738 86 l 776 13 z "},"฀":{"ha":271,"x_min":0,"x_max":0,"o":""},"ก":{"ha":839,"x_min":67,"x_max":735,"o":"m 615 0 l 615 490 q 564 640 615 590 q 417 689 513 689 q 276 655 338 689 q 193 565 215 621 l 299 468 q 243 420 261 449 q 225 347 225 392 l 225 0 l 106 0 l 106 331 q 125 407 106 371 q 181 461 144 443 l 67 558 q 109 645 78 603 q 186 720 140 688 q 291 772 232 753 q 417 792 350 792 q 556 769 496 792 q 655 707 615 747 q 715 612 694 667 q 735 490 735 557 l 735 0 l 615 0 z "},"ข":{"ha":772,"x_min":90,"x_max":668,"o":"m 549 778 l 668 778 l 668 268 q 601 59 668 132 q 381 -14 533 -14 q 249 6 304 -14 q 159 63 194 26 q 107 147 124 99 q 90 251 90 194 l 90 358 q 112 433 90 399 q 160 499 133 468 q 208 556 186 529 q 229 608 229 583 l 229 642 q 222 666 229 657 q 194 675 214 675 l 99 675 l 99 778 l 208 778 q 313 744 283 778 q 343 651 343 710 l 343 610 q 322 539 343 572 q 275 476 300 506 q 228 417 250 446 q 207 358 207 388 l 207 251 q 247 132 207 176 q 381 88 286 88 q 508 126 467 88 q 549 267 549 164 l 549 778 z "},"ฃ":{"ha":778,"x_min":47,"x_max":674,"o":"m 96 358 q 119 432 96 399 q 169 497 142 465 q 220 558 197 528 q 243 622 243 588 l 243 649 q 235 674 243 664 q 208 683 228 683 q 157 638 172 683 l 47 686 l 47 792 l 144 742 q 185 774 158 763 q 239 786 211 786 q 328 749 300 786 q 357 650 357 713 l 357 622 q 334 541 357 576 q 284 475 311 506 q 235 417 257 444 q 213 358 213 389 l 213 251 q 252 132 213 176 q 386 88 292 88 q 513 126 472 88 q 554 267 554 164 l 554 778 l 674 778 l 674 268 q 606 59 674 132 q 386 -14 539 -14 q 255 6 310 -14 q 165 63 200 26 q 113 147 129 99 q 96 251 96 194 l 96 358 z "},"ค":{"ha":861,"x_min":104,"x_max":757,"o":"m 431 792 q 570 769 510 792 q 672 706 631 746 q 735 611 714 665 q 757 493 757 557 l 757 0 l 638 0 l 638 494 q 586 635 638 582 q 431 689 535 689 q 275 635 326 689 q 224 494 224 582 l 224 325 q 281 393 242 365 q 378 421 319 421 l 476 421 l 476 317 l 378 317 q 282 285 322 317 q 224 192 242 254 l 224 0 l 104 0 l 104 493 q 126 611 104 557 q 189 706 147 665 q 291 769 231 746 q 431 792 351 792 z "},"ฅ":{"ha":875,"x_min":106,"x_max":769,"o":"m 225 325 q 283 393 243 365 q 382 421 324 421 l 481 421 l 481 317 l 382 317 q 285 285 326 317 q 225 192 243 254 l 225 0 l 106 0 l 106 536 q 155 706 106 639 q 297 792 204 772 l 438 699 l 578 792 q 720 706 671 772 q 769 536 769 639 l 769 0 l 650 0 l 650 544 q 629 631 650 597 q 571 679 608 664 l 438 603 l 304 679 q 246 631 267 664 q 225 544 225 597 l 225 325 z "},"ฆ":{"ha":842,"x_min":44,"x_max":738,"o":"m 226 247 q 265 187 240 215 q 319 136 289 158 q 384 101 350 114 q 453 89 418 89 q 579 141 540 89 q 618 292 618 193 l 618 778 l 738 778 l 738 290 q 671 68 738 150 q 467 -14 604 -14 q 325 21 383 -14 q 226 114 267 56 l 219 0 l 107 0 l 107 344 q 128 419 107 385 q 174 487 149 454 q 219 552 199 519 q 240 622 240 585 l 240 649 q 233 674 240 664 q 206 683 225 683 q 154 638 169 683 l 44 686 l 44 792 l 142 742 q 182 774 156 763 q 236 786 208 786 q 326 749 297 786 q 354 650 354 713 l 354 622 q 334 535 354 574 q 290 465 314 497 q 247 404 267 433 q 226 344 226 375 l 226 247 z "},"ง":{"ha":782,"x_min":19,"x_max":713,"o":"m 254 0 l 19 778 l 142 778 l 347 103 l 364 103 q 451 123 410 103 q 524 181 492 143 q 574 276 556 219 q 593 407 593 333 q 580 538 593 483 q 544 625 567 592 q 490 674 521 658 q 424 689 458 689 q 378 685 400 689 q 339 675 356 682 l 321 771 q 374 787 343 782 q 429 792 406 792 q 544 766 492 792 q 633 691 596 740 q 692 570 671 642 q 713 407 713 499 q 685 238 713 313 q 611 110 658 163 q 500 28 564 57 q 361 0 436 0 l 254 0 z "},"จ":{"ha":753,"x_min":19,"x_max":683,"o":"m 242 0 l 167 313 q 154 337 163 331 q 131 343 146 343 l 78 343 l 78 446 l 140 446 q 231 424 199 446 q 278 336 263 401 l 332 103 l 350 103 q 430 124 392 103 q 498 184 468 144 q 546 282 528 224 q 564 415 564 340 q 501 625 564 561 q 325 689 439 689 q 176 660 246 689 q 57 589 107 632 l 19 682 q 157 761 78 731 q 324 792 236 792 q 594 692 504 792 q 683 414 683 592 q 658 247 683 322 q 588 116 633 171 q 478 31 542 61 q 339 0 415 0 l 242 0 z "},"ฉ":{"ha":819,"x_min":47,"x_max":715,"o":"m 603 0 l 596 114 q 560 66 579 89 q 513 26 540 43 q 449 -3 486 8 q 361 -14 411 -14 q 187 46 246 -14 q 128 222 128 106 l 128 313 q 101 343 128 343 l 57 343 l 57 446 l 138 446 q 215 420 186 446 q 244 332 244 394 l 244 226 q 278 122 244 156 q 386 89 311 89 q 453 101 421 89 q 512 136 485 114 q 560 187 539 158 q 596 247 581 215 l 596 465 q 542 631 596 574 q 383 689 489 689 q 221 660 296 689 q 90 590 146 631 l 47 683 q 197 761 114 731 q 382 792 279 792 q 632 703 549 792 q 715 465 715 615 l 715 0 l 603 0 z "},"ช":{"ha":772,"x_min":90,"x_max":694,"o":"m 668 268 q 601 59 668 132 q 381 -14 533 -14 q 249 6 304 -14 q 159 63 194 26 q 107 147 124 99 q 90 251 90 194 l 90 358 q 112 433 90 399 q 160 499 133 468 q 208 556 186 529 q 229 608 229 583 l 229 642 q 222 666 229 657 q 194 675 214 675 l 99 675 l 99 778 l 208 778 q 313 744 283 778 q 343 651 343 710 l 343 610 q 322 539 343 572 q 275 476 300 506 q 228 417 250 446 q 207 358 207 388 l 207 251 q 247 132 207 176 q 381 88 286 88 q 508 126 467 88 q 549 267 549 164 l 549 407 q 524 490 549 465 q 460 515 500 515 l 433 515 l 417 565 l 564 778 l 694 778 l 538 574 q 631 519 593 563 q 668 408 668 475 l 668 268 z "},"ซ":{"ha":778,"x_min":47,"x_max":700,"o":"m 213 251 q 252 132 213 176 q 386 88 292 88 q 513 126 472 88 q 554 267 554 164 l 554 407 q 530 490 554 465 q 465 515 506 515 l 439 515 l 422 565 l 569 778 l 700 778 l 543 574 q 636 519 599 563 q 674 408 674 475 l 674 268 q 606 59 674 132 q 386 -14 539 -14 q 255 6 310 -14 q 165 63 200 26 q 113 147 129 99 q 96 251 96 194 l 96 358 q 119 432 96 399 q 169 497 142 465 q 220 558 197 528 q 243 622 243 588 l 243 649 q 235 674 243 664 q 208 683 228 683 q 157 638 172 683 l 47 686 l 47 792 l 144 742 q 185 774 158 763 q 239 786 211 786 q 328 749 300 786 q 357 650 357 713 l 357 622 q 334 541 357 576 q 284 475 311 506 q 235 417 257 444 q 213 358 213 389 l 213 251 z "},"ฌ":{"ha":1281,"x_min":67,"x_max":1176,"o":"m 585 490 q 537 640 585 590 q 401 689 489 689 q 273 655 331 689 q 193 565 215 621 l 299 468 q 243 420 261 449 q 225 347 225 392 l 225 136 q 231 110 225 119 q 257 100 238 100 l 332 100 l 332 0 l 225 0 q 137 35 168 0 q 106 125 106 71 l 106 331 q 125 407 106 371 q 181 461 144 443 l 67 558 q 108 645 78 603 q 181 720 138 688 q 281 772 225 753 q 401 792 338 792 q 535 769 478 792 q 629 707 592 747 q 685 612 667 667 q 704 490 704 557 l 704 247 q 742 187 718 215 q 793 136 765 158 q 851 101 821 114 q 911 89 882 89 q 1022 141 988 89 q 1057 292 1057 193 l 1057 778 l 1176 778 l 1176 290 q 1115 67 1176 149 q 925 -14 1053 -14 q 798 21 851 -14 q 704 114 744 56 l 697 0 l 585 0 l 585 490 z "},"ญ":{"ha":1281,"x_min":67,"x_max":1176,"o":"m 1176 85 q 1153 -56 1176 3 q 1090 -153 1131 -115 q 991 -208 1049 -190 q 864 -226 933 -226 q 719 -208 783 -226 q 615 -165 654 -190 l 644 -72 q 738 -109 685 -96 q 846 -122 792 -122 q 933 -115 894 -122 q 1000 -85 972 -107 q 1042 -22 1028 -62 q 1057 86 1057 19 l 1057 128 q 1027 84 1046 107 q 981 42 1008 61 q 915 12 953 24 q 831 0 878 0 q 738 15 782 0 q 660 62 694 29 q 605 145 625 94 q 585 267 585 196 l 585 490 q 537 640 585 590 q 401 689 489 689 q 273 655 331 689 q 193 565 215 621 l 299 468 q 243 420 261 449 q 225 347 225 392 l 225 136 q 231 110 225 119 q 257 100 238 100 l 332 100 l 332 0 l 225 0 q 137 35 168 0 q 106 125 106 71 l 106 331 q 125 407 106 371 q 181 461 144 443 l 67 558 q 108 645 78 603 q 181 720 138 688 q 281 772 225 753 q 401 792 338 792 q 535 769 478 792 q 629 707 592 747 q 685 612 667 667 q 704 490 704 557 l 704 267 q 742 146 704 189 q 851 103 779 103 q 977 142 926 103 q 1057 232 1028 182 l 1057 778 l 1176 778 l 1176 85 z "},"ฎ":{"ha":853,"x_min":42,"x_max":749,"o":"m 629 490 q 578 640 629 590 q 431 689 526 689 q 290 655 351 689 q 207 565 229 621 l 326 458 q 271 410 289 439 q 253 338 253 382 l 253 125 q 222 35 253 71 q 133 0 190 -1 l 42 0 l 42 100 l 101 100 q 127 110 121 100 q 133 136 133 119 l 133 321 q 153 397 133 361 q 208 451 172 433 l 81 558 q 123 645 92 603 q 200 720 154 688 q 305 772 246 753 q 431 792 364 792 q 569 769 510 792 q 669 707 629 747 q 728 612 708 667 q 749 490 749 557 l 749 -278 l 600 -278 q 521 -224 565 -246 q 419 -201 476 -201 q 303 -222 350 -201 q 211 -278 257 -242 l 179 -186 q 276 -125 219 -150 q 404 -100 333 -100 q 532 -129 471 -100 q 629 -196 593 -158 l 629 490 z "},"ฏ":{"ha":853,"x_min":42,"x_max":749,"o":"m 749 -278 l 635 -278 l 469 -179 q 399 -257 447 -228 q 296 -286 350 -286 q 199 -274 246 -286 q 124 -243 153 -262 l 154 -142 q 221 -176 183 -161 q 289 -192 258 -192 q 391 -152 347 -192 q 446 -54 435 -112 l 629 -164 l 629 490 q 578 640 629 590 q 431 689 526 689 q 290 655 351 689 q 207 565 229 621 l 326 458 q 271 410 289 439 q 253 338 253 382 l 253 125 q 222 35 253 71 q 133 0 190 -1 l 42 0 l 42 100 l 101 100 q 127 110 121 100 q 133 136 133 119 l 133 321 q 153 397 133 361 q 208 451 172 433 l 81 558 q 123 645 92 603 q 200 720 154 688 q 305 772 246 753 q 431 792 364 792 q 569 769 510 792 q 669 707 629 747 q 728 612 708 667 q 749 490 749 557 l 749 -278 z "},"ฐ":{"ha":753,"x_min":19,"x_max":708,"o":"m 242 0 l 167 313 q 154 337 163 331 q 131 343 146 343 l 78 343 l 78 446 l 140 446 q 231 424 199 446 q 278 336 263 401 l 332 103 l 350 103 q 430 124 392 103 q 498 184 468 144 q 546 282 528 224 q 564 415 564 340 q 502 624 564 558 q 325 689 440 689 q 176 660 246 689 q 57 589 107 632 l 19 682 q 157 761 78 731 q 324 792 236 792 q 503 751 426 792 l 572 832 l 708 832 l 588 688 q 683 414 683 585 q 658 247 683 322 q 588 116 633 171 q 478 31 542 61 q 339 0 415 0 l 242 0 m 460 -278 q 377 -258 411 -278 q 324 -211 343 -237 q 267 -258 306 -239 q 179 -278 228 -278 l 88 -278 l 88 -172 l 186 -172 q 263 -153 231 -172 q 324 -104 296 -135 q 379 -153 351 -135 q 454 -172 407 -172 l 528 -172 l 528 -92 l 642 -92 l 642 -278 l 460 -278 z "},"ฑ":{"ha":846,"x_min":58,"x_max":740,"o":"m 226 0 l 107 0 l 107 303 q 119 397 107 353 q 152 478 132 440 q 196 547 172 515 q 240 603 219 578 l 240 649 q 233 674 240 664 q 206 683 225 683 q 154 638 169 683 l 58 686 l 58 792 l 142 742 q 182 774 156 763 q 236 786 208 786 q 310 756 283 786 q 338 686 336 726 q 415 760 365 728 q 535 792 464 792 q 683 726 625 792 q 740 533 740 661 l 740 0 l 621 0 l 621 533 q 594 653 621 617 q 513 689 568 689 q 411 651 463 689 q 319 555 360 613 q 252 430 278 497 q 226 303 226 363 l 226 0 z "},"ฒ":{"ha":1371,"x_min":69,"x_max":1267,"o":"m 767 247 q 805 187 781 215 q 858 136 829 158 q 921 101 888 114 q 988 89 954 89 q 1110 141 1072 89 q 1147 292 1147 193 l 1147 778 l 1267 778 l 1267 290 q 1202 67 1267 149 q 1001 -14 1138 -14 q 863 21 919 -14 q 767 114 807 56 l 760 0 l 647 0 l 647 544 q 626 631 647 597 q 568 679 606 664 l 461 608 l 357 679 q 236 592 283 664 q 189 393 189 519 q 207 251 189 308 q 253 158 225 193 q 317 109 282 124 q 389 94 353 94 q 440 99 418 94 q 483 111 461 103 l 506 17 q 450 -1 482 6 q 383 -8 418 -8 q 260 14 317 -8 q 160 85 203 36 q 94 209 118 133 q 69 393 69 285 q 90 541 69 474 q 147 660 110 608 q 235 746 183 713 q 350 792 288 779 l 461 704 l 575 792 q 717 706 668 772 q 767 536 767 639 l 767 247 z "},"ณ":{"ha":1281,"x_min":67,"x_max":1174,"o":"m 1061 0 l 1054 114 q 960 21 1014 56 q 824 -14 907 -14 q 645 57 706 -14 q 585 249 585 128 l 585 490 q 537 640 585 590 q 401 689 489 689 q 273 655 331 689 q 193 565 215 621 l 299 468 q 243 420 261 449 q 225 347 225 392 l 225 136 q 231 110 225 119 q 257 100 238 100 l 332 100 l 332 0 l 225 0 q 137 35 168 0 q 106 125 106 71 l 106 331 q 125 407 106 371 q 181 461 144 443 l 67 558 q 108 645 78 603 q 181 720 138 688 q 281 772 225 753 q 401 792 338 792 q 535 769 478 792 q 629 707 592 747 q 685 612 667 667 q 704 490 704 557 l 704 250 q 736 132 704 175 q 829 89 768 89 q 901 101 867 89 q 964 136 935 114 q 1016 187 993 158 q 1054 247 1039 215 l 1054 778 l 1174 778 l 1174 0 l 1061 0 z "},"ด":{"ha":868,"x_min":69,"x_max":764,"o":"m 644 0 l 644 463 q 633 553 644 511 q 596 624 621 594 q 533 672 571 654 q 442 689 494 689 q 253 608 318 689 q 189 381 189 526 q 208 245 189 300 q 256 157 226 190 q 322 109 286 124 q 394 94 358 94 q 445 99 424 94 q 489 111 467 103 l 511 17 q 456 -1 488 6 q 389 -8 424 -8 q 268 15 326 -8 q 166 87 210 39 q 96 208 122 135 q 69 381 69 281 q 92 543 69 468 q 161 673 115 618 q 276 760 207 728 q 439 792 346 792 q 585 765 524 792 q 685 693 646 739 q 744 588 725 647 q 764 461 764 528 l 764 0 l 644 0 z "},"ต":{"ha":888,"x_min":69,"x_max":783,"o":"m 363 679 q 239 590 289 664 q 189 388 189 517 q 208 249 189 304 q 256 158 226 193 q 322 109 286 124 q 394 94 358 94 q 445 99 424 94 q 489 111 467 103 l 511 17 q 456 -1 488 6 q 389 -8 424 -8 q 265 14 322 -8 q 163 84 207 36 q 94 207 119 132 q 69 388 69 282 q 90 539 69 469 q 149 660 111 608 q 240 746 188 713 q 356 792 293 779 l 472 704 l 592 792 q 734 706 685 772 q 783 536 783 639 l 783 0 l 664 0 l 664 544 q 643 631 664 597 q 585 679 622 664 l 472 608 l 363 679 z "},"ถ":{"ha":842,"x_min":67,"x_max":738,"o":"m 225 136 q 231 110 225 119 q 257 100 238 100 l 332 100 l 332 0 l 225 0 q 137 35 168 0 q 106 125 106 71 l 106 331 q 125 407 106 371 q 181 461 144 443 l 67 558 q 109 645 78 603 q 187 720 140 688 q 292 772 233 753 q 418 792 351 792 q 557 769 497 792 q 657 707 617 747 q 717 612 697 667 q 738 490 738 557 l 738 0 l 618 0 l 618 490 q 566 640 618 590 q 418 689 514 689 q 277 655 339 689 q 193 565 215 621 l 299 468 q 243 420 261 449 q 225 347 225 392 l 225 136 z "},"ท":{"ha":853,"x_min":107,"x_max":749,"o":"m 629 499 q 592 644 629 599 q 493 689 554 689 q 409 676 449 689 q 335 641 369 663 q 272 590 300 619 q 226 531 244 561 l 226 0 l 107 0 l 107 778 l 219 778 l 226 664 q 276 710 247 688 q 339 751 304 733 q 414 781 374 769 q 499 792 454 792 q 606 771 560 792 q 685 711 653 750 q 733 619 717 672 q 749 499 749 565 l 749 0 l 629 0 l 629 499 z "},"ธ":{"ha":772,"x_min":64,"x_max":703,"o":"m 703 217 q 685 104 703 149 q 628 34 667 60 q 530 -2 590 8 q 386 -12 469 -12 q 242 0 301 -12 q 144 40 182 13 q 88 115 106 68 q 69 229 69 161 l 69 317 l 185 317 l 185 229 q 196 158 185 186 q 231 115 207 131 q 293 92 254 99 q 386 86 332 86 q 481 91 442 86 q 543 110 519 96 q 577 150 567 125 q 588 217 588 175 l 588 285 q 568 340 588 322 q 513 364 549 358 l 242 401 q 113 456 163 413 q 64 586 64 500 q 147 735 64 678 q 382 792 231 792 q 667 731 549 792 l 643 635 q 524 678 590 663 q 385 693 457 693 q 230 663 281 693 q 179 586 179 632 q 201 530 179 547 q 254 507 222 513 l 525 468 q 656 412 610 456 q 703 283 703 368 l 703 217 z "},"น":{"ha":842,"x_min":104,"x_max":735,"o":"m 224 278 q 263 134 224 179 q 389 89 301 89 q 458 101 424 89 q 522 136 492 114 q 576 187 553 158 q 615 247 600 215 l 615 778 l 735 778 l 735 0 l 622 0 l 615 114 q 515 21 575 56 q 361 -14 456 -14 q 169 60 233 -14 q 104 276 104 135 l 104 778 l 224 778 l 224 278 z "},"บ":{"ha":839,"x_min":104,"x_max":735,"o":"m 419 89 q 567 142 519 89 q 615 286 615 194 l 615 778 l 735 778 l 735 286 q 654 64 735 142 q 419 -14 574 -14 q 185 64 265 -14 q 104 286 104 142 l 104 778 l 224 778 l 224 286 q 272 142 224 194 q 419 89 319 89 z "},"ป":{"ha":839,"x_min":104,"x_max":735,"o":"m 419 89 q 567 142 519 89 q 615 286 615 194 l 615 1042 l 735 1042 l 735 286 q 654 64 735 142 q 419 -14 574 -14 q 185 64 265 -14 q 104 286 104 142 l 104 778 l 224 778 l 224 286 q 272 142 224 194 q 419 89 319 89 z "},"ผ":{"ha":917,"x_min":107,"x_max":810,"o":"m 643 300 q 676 222 663 261 q 703 135 689 183 l 706 135 q 695 244 697 190 q 693 363 693 299 l 693 778 l 810 778 l 810 0 l 682 0 l 506 351 q 477 417 489 383 q 463 465 465 450 l 460 465 q 445 417 457 450 q 417 351 433 383 l 235 0 l 107 0 l 107 653 q 138 743 107 707 q 226 778 169 779 l 318 778 l 318 675 l 258 675 q 224 639 224 675 l 224 363 q 221 244 224 299 q 211 135 218 190 l 214 135 q 240 219 225 175 q 275 301 254 263 l 414 560 l 508 560 l 643 300 z "},"ฝ":{"ha":917,"x_min":107,"x_max":810,"o":"m 643 300 q 676 222 663 261 q 703 135 689 183 l 706 135 q 695 244 697 190 q 693 363 693 299 l 693 1042 l 810 1042 l 810 0 l 682 0 l 506 351 q 477 417 489 383 q 463 465 465 450 l 460 465 q 445 417 457 450 q 417 351 433 383 l 235 0 l 107 0 l 107 653 q 138 743 107 707 q 226 778 169 779 l 318 778 l 318 675 l 258 675 q 224 639 224 675 l 224 363 q 221 244 224 299 q 211 135 218 190 l 214 135 q 240 219 225 175 q 275 301 254 263 l 414 560 l 508 560 l 643 300 z "},"พ":{"ha":986,"x_min":50,"x_max":936,"o":"m 492 619 q 472 499 483 550 q 444 399 460 447 l 311 0 l 179 0 l 50 778 l 171 778 l 242 336 q 249 284 246 307 q 255 238 253 261 q 259 189 257 215 q 263 125 261 163 l 267 125 q 289 247 278 194 q 315 353 300 300 l 442 739 l 544 739 l 671 353 q 697 247 686 300 q 719 125 708 194 l 724 125 q 727 189 725 163 q 731 238 729 215 q 737 284 733 261 q 744 336 740 307 l 815 778 l 936 778 l 807 0 l 675 0 l 542 399 q 515 499 526 447 q 494 619 503 550 l 492 619 z "},"ฟ":{"ha":986,"x_min":50,"x_max":931,"o":"m 492 619 q 472 499 483 550 q 444 399 460 447 l 311 0 l 179 0 l 50 778 l 171 778 l 242 336 q 249 284 246 307 q 255 238 253 261 q 259 189 257 215 q 263 125 261 163 l 267 125 q 289 247 278 194 q 315 353 300 300 l 442 739 l 544 739 l 675 353 q 707 247 694 300 q 731 125 719 194 l 735 125 q 737 186 736 160 q 740 236 738 213 q 744 283 742 260 q 749 336 746 307 l 821 1042 l 931 1042 l 821 0 l 689 0 l 549 399 q 518 499 533 447 q 494 619 503 550 l 492 619 z "},"ภ":{"ha":853,"x_min":42,"x_max":749,"o":"m 253 125 q 222 35 253 71 q 133 0 190 -1 l 42 0 l 42 100 l 101 100 q 127 110 121 100 q 133 136 133 119 l 133 321 q 153 397 133 361 q 208 451 172 433 l 81 558 q 123 645 92 603 q 200 720 154 688 q 305 772 246 753 q 431 792 364 792 q 569 769 510 792 q 669 707 629 747 q 728 612 708 667 q 749 490 749 557 l 749 0 l 629 0 l 629 490 q 578 640 629 590 q 431 689 526 689 q 290 655 351 689 q 207 565 229 621 l 326 458 q 271 410 289 439 q 253 338 253 382 l 253 125 z "},"ม":{"ha":842,"x_min":107,"x_max":738,"o":"m 618 778 l 738 778 l 738 290 q 671 68 738 150 q 467 -14 604 -14 q 325 21 383 -14 q 226 114 267 56 l 219 0 l 107 0 l 107 778 l 226 778 l 226 247 q 265 187 240 215 q 319 136 289 158 q 384 101 350 114 q 453 89 418 89 q 579 141 540 89 q 618 292 618 193 l 618 778 z "},"ย":{"ha":806,"x_min":64,"x_max":701,"o":"m 582 778 l 701 778 l 701 290 q 683 166 701 222 q 626 70 665 110 q 524 8 586 31 q 374 -14 463 -14 q 145 51 226 -14 q 64 238 64 117 q 99 356 64 307 q 193 425 133 406 q 102 483 140 439 q 64 607 64 528 q 117 735 64 685 q 263 786 169 786 q 332 779 301 786 q 385 763 363 772 l 371 663 q 333 676 357 669 q 282 683 308 683 q 205 658 231 683 q 179 592 179 632 q 191 544 179 564 q 221 509 203 524 q 261 488 239 494 q 306 481 283 481 l 424 481 l 433 378 l 324 378 q 222 342 263 378 q 181 244 181 306 q 197 178 181 207 q 240 128 213 149 q 302 99 267 108 q 376 89 338 89 q 531 141 481 89 q 582 292 582 193 l 582 778 z "},"ร":{"ha":685,"x_min":61,"x_max":621,"o":"m 313 88 q 456 124 407 88 q 504 208 504 161 q 487 260 504 238 q 441 299 469 282 q 377 329 413 317 q 306 353 342 342 q 208 387 253 368 q 130 433 163 406 q 79 497 97 460 q 61 585 61 533 q 140 738 61 683 q 353 792 218 792 q 481 778 418 792 q 592 740 543 765 l 561 646 q 364 690 476 690 q 227 660 276 690 q 178 585 178 629 q 192 540 178 560 q 229 506 206 521 q 283 480 253 492 q 349 457 314 468 q 465 413 414 436 q 550 361 515 390 q 603 294 585 332 q 621 206 621 257 q 547 47 621 107 q 318 -14 472 -14 q 177 0 242 -14 q 68 40 113 14 l 97 133 q 196 100 140 113 q 313 88 251 88 z "},"ฤ":{"ha":842,"x_min":67,"x_max":738,"o":"m 225 136 q 231 110 225 119 q 257 100 238 100 l 332 100 l 332 0 l 225 0 q 137 35 168 0 q 106 125 106 71 l 106 331 q 125 407 106 371 q 181 461 144 443 l 67 558 q 109 645 78 603 q 187 720 140 688 q 292 772 233 753 q 418 792 351 792 q 557 769 497 792 q 657 707 617 747 q 717 612 697 667 q 738 490 738 557 l 738 -278 l 618 -278 l 618 490 q 566 640 618 590 q 418 689 514 689 q 277 655 339 689 q 193 565 215 621 l 299 468 q 243 420 261 449 q 225 347 225 392 l 225 136 z "},"ล":{"ha":800,"x_min":50,"x_max":696,"o":"m 576 0 l 576 375 l 382 375 q 226 337 283 375 q 169 219 169 299 q 210 119 169 151 q 311 86 250 86 q 373 92 340 86 q 431 110 406 99 l 450 11 q 379 -7 419 0 q 299 -14 339 -14 q 201 1 246 -14 q 122 44 156 15 q 69 116 89 72 q 50 218 50 160 q 136 409 50 340 q 396 478 222 478 l 576 478 l 576 496 q 533 640 576 588 q 381 692 490 692 q 233 668 301 692 q 115 610 165 644 l 76 694 q 130 730 97 713 q 203 761 163 747 q 292 783 244 775 q 390 792 339 792 q 618 712 540 792 q 696 497 696 632 l 696 0 l 576 0 z "},"ฦ":{"ha":853,"x_min":42,"x_max":749,"o":"m 253 125 q 222 35 253 71 q 133 0 190 -1 l 42 0 l 42 100 l 101 100 q 127 110 121 100 q 133 136 133 119 l 133 321 q 153 397 133 361 q 208 451 172 433 l 81 558 q 123 645 92 603 q 200 720 154 688 q 305 772 246 753 q 431 792 364 792 q 569 769 510 792 q 669 707 629 747 q 728 612 708 667 q 749 490 749 557 l 749 -278 l 629 -278 l 629 490 q 578 640 629 590 q 431 689 526 689 q 290 655 351 689 q 207 565 229 621 l 326 458 q 271 410 289 439 q 253 338 253 382 l 253 125 z "},"ว":{"ha":731,"x_min":50,"x_max":661,"o":"m 81 158 q 187 108 131 128 q 310 89 243 89 q 478 161 415 89 q 542 383 542 233 q 481 615 542 542 q 310 689 421 689 q 183 670 236 689 q 78 617 131 651 l 50 713 q 176 770 106 749 q 319 792 246 792 q 574 687 488 792 q 661 394 661 582 q 569 90 661 194 q 307 -14 476 -14 q 167 6 228 -14 q 51 61 106 25 l 81 158 z "},"ศ":{"ha":861,"x_min":104,"x_max":792,"o":"m 433 792 q 589 753 526 792 l 656 832 l 792 832 l 674 692 q 738 600 718 656 q 757 485 757 544 l 757 0 l 638 0 l 638 486 q 625 567 638 529 q 588 631 613 604 q 524 674 563 658 q 433 689 485 689 q 276 635 329 689 q 224 494 224 582 l 224 325 q 281 393 242 365 q 378 421 319 421 l 471 421 l 471 317 l 378 317 q 282 285 322 317 q 224 192 242 254 l 224 0 l 104 0 l 104 493 q 126 611 104 557 q 190 706 149 665 q 293 769 232 746 q 433 792 354 792 z "},"ษ":{"ha":858,"x_min":104,"x_max":853,"o":"m 419 89 q 567 142 519 89 q 615 286 615 194 l 615 408 l 433 408 l 433 511 l 615 511 l 615 778 l 735 778 l 735 511 l 853 511 l 825 408 l 735 408 l 735 286 q 654 64 735 142 q 419 -14 574 -14 q 185 64 265 -14 q 104 286 104 142 l 104 778 l 224 778 l 224 286 q 272 142 224 194 q 419 89 319 89 z "},"ส":{"ha":800,"x_min":50,"x_max":738,"o":"m 576 0 l 576 375 l 382 375 q 226 337 283 375 q 169 219 169 299 q 210 119 169 151 q 311 86 250 86 q 373 92 340 86 q 431 110 406 99 l 450 11 q 379 -7 419 0 q 299 -14 339 -14 q 201 1 246 -14 q 122 44 156 15 q 69 116 89 72 q 50 218 50 160 q 136 409 50 340 q 396 478 222 478 l 576 478 l 576 496 q 567 575 576 539 q 534 638 557 611 q 474 678 511 664 q 385 692 438 692 q 233 668 300 692 q 115 610 165 644 l 76 694 q 133 731 99 713 q 208 762 167 749 q 294 783 249 775 q 385 792 340 792 q 542 761 474 792 l 601 832 l 738 832 l 628 700 q 679 611 663 663 q 696 497 696 560 l 696 0 l 576 0 z "},"ห":{"ha":814,"x_min":107,"x_max":772,"o":"m 644 0 l 542 353 q 400 483 503 481 l 226 340 l 226 0 l 107 0 l 107 778 l 226 778 l 226 472 l 596 778 l 757 778 l 485 553 q 601 490 560 542 q 665 363 642 439 l 772 0 l 644 0 z "},"ฬ":{"ha":917,"x_min":107,"x_max":847,"o":"m 693 582 q 670 694 693 658 q 578 729 647 729 l 561 729 l 544 779 l 725 1042 l 847 1042 l 661 788 q 728 765 700 783 q 774 718 756 746 q 801 656 792 690 q 810 583 810 621 l 810 0 l 682 0 l 500 351 q 472 417 483 383 q 457 465 460 450 l 454 465 q 440 417 451 450 q 411 351 428 383 l 235 0 l 107 0 l 107 778 l 224 778 l 224 363 q 222 244 224 299 q 211 135 219 190 l 214 135 q 241 222 228 183 q 274 300 254 261 l 408 560 l 503 560 l 642 301 q 677 219 663 263 q 703 135 692 175 l 706 135 q 696 244 699 190 q 693 363 693 299 l 693 582 z "},"อ":{"ha":822,"x_min":69,"x_max":753,"o":"m 225 343 q 199 333 210 343 q 189 303 189 322 l 189 265 q 240 131 189 174 q 397 89 292 89 q 571 160 508 89 q 633 393 633 232 q 571 613 633 536 q 396 689 508 689 q 234 663 304 689 q 111 597 164 638 l 72 686 q 131 724 96 706 q 207 758 165 743 q 297 783 249 774 q 396 792 344 792 q 662 683 571 792 q 753 388 753 575 q 662 88 753 190 q 400 -14 571 -14 q 151 58 232 -14 q 69 265 69 131 l 69 307 q 108 413 69 379 q 211 446 146 446 l 336 446 l 336 343 l 225 343 z "},"ฮ":{"ha":822,"x_min":69,"x_max":767,"o":"m 225 343 q 199 333 210 343 q 189 303 189 322 l 189 265 q 240 131 189 174 q 397 89 292 89 q 571 160 508 89 q 633 393 633 232 q 615 519 633 464 q 566 611 597 574 q 491 669 535 649 q 396 689 447 689 q 234 663 304 689 q 111 597 164 638 l 72 686 q 131 724 96 706 q 207 758 165 743 q 297 783 249 774 q 396 792 344 792 q 564 754 490 792 l 631 832 l 767 832 l 647 692 q 726 561 700 639 q 753 388 753 483 q 662 88 753 190 q 400 -14 571 -14 q 151 58 232 -14 q 69 265 69 131 l 69 307 q 108 413 69 379 q 211 446 146 446 l 336 446 l 336 343 l 225 343 z "},"ฯ":{"ha":763,"x_min":56,"x_max":656,"o":"m 536 0 l 536 581 q 497 527 522 551 q 438 485 471 503 q 367 459 406 468 q 289 450 329 450 q 181 471 225 450 q 108 528 136 492 q 68 616 81 565 q 56 728 56 667 l 56 778 l 172 778 l 172 726 q 206 590 172 636 q 315 544 240 544 q 396 563 356 544 q 469 612 436 582 q 522 680 501 642 q 542 757 542 718 l 542 778 l 656 778 l 656 0 l 536 0 z "},"ะ":{"ha":417,"x_min":61,"x_max":347,"o":"m 186 503 q 95 528 129 503 q 61 615 61 553 l 61 683 l 175 683 l 175 626 q 201 600 175 600 l 347 600 l 347 503 l 186 503 m 186 119 q 95 144 129 119 q 61 232 61 169 l 61 300 l 175 300 l 175 243 q 201 217 175 217 l 347 217 l 347 119 l 186 119 z "},"ั":{"ha":0,"x_min":-399,"x_max":82,"o":"m -258 883 q -399 1008 -399 883 l -399 1064 l -285 1064 l -285 1022 q -246 981 -285 981 l 82 981 l 82 883 l -258 883 z "},"า":{"ha":658,"x_min":14,"x_max":554,"o":"m 435 0 l 435 501 q 269 689 435 689 q 144 665 203 689 q 46 607 86 640 l 14 697 q 65 733 35 715 q 130 763 94 750 q 203 784 165 776 q 281 792 242 792 q 485 715 417 792 q 554 496 554 638 l 554 0 l 435 0 z "},"ำ":{"ha":658,"x_min":-304,"x_max":554,"o":"m -167 864 q -221 874 -196 864 q -265 903 -246 885 q -294 948 -283 922 q -304 1003 -304 974 q -294 1057 -304 1032 q -265 1101 -283 1082 q -221 1131 -246 1119 q -167 1142 -196 1142 q -112 1131 -137 1142 q -69 1101 -87 1119 q -39 1057 -50 1082 q -28 1003 -28 1032 q -39 948 -28 974 q -69 903 -50 922 q -112 874 -87 885 q -167 864 -137 864 m -167 943 q -124 961 -140 943 q -107 1004 -107 979 q -124 1047 -107 1031 q -167 1064 -140 1064 q -208 1047 -190 1064 q -225 1004 -225 1031 q -208 961 -225 979 q -167 943 -190 943 m 435 0 l 435 501 q 269 689 435 689 q 144 665 203 689 q 46 607 86 640 l 14 697 q 65 733 35 715 q 130 763 94 750 q 203 784 165 776 q 281 792 242 792 q 485 715 417 792 q 554 496 554 638 l 554 0 l 435 0 z "},"ิ":{"ha":0,"x_min":-700,"x_max":-104,"o":"m -700 883 l -700 981 l -104 981 l -104 883 l -700 883 z "},"ี":{"ha":0,"x_min":-700,"x_max":-104,"o":"m -700 883 l -700 981 l -217 981 l -217 1108 l -104 1108 l -104 883 l -700 883 z "},"ึ":{"ha":0,"x_min":-700,"x_max":-72,"o":"m -200 883 l -700 883 l -700 981 l -315 981 q -317 994 -317 988 q -318 1007 -318 1000 q -283 1095 -318 1060 q -196 1131 -247 1131 q -108 1095 -143 1131 q -72 1007 -72 1060 q -106 921 -72 956 q -190 883 -140 886 l -196 883 l -200 883 m -196 958 q -161 974 -175 958 q -147 1008 -147 989 q -161 1043 -147 1029 q -196 1057 -175 1057 q -229 1043 -215 1057 q -243 1008 -243 1029 q -229 974 -243 989 q -196 958 -215 958 z "},"ื":{"ha":0,"x_min":-700,"x_max":-104,"o":"m -700 883 l -700 981 l -375 981 l -375 1108 l -276 1108 l -276 978 l -203 978 l -203 1108 l -104 1108 l -104 883 l -700 883 z "},"ุ":{"ha":0,"x_min":-304,"x_max":-104,"o":"m -221 -362 l -221 -225 q -250 -196 -221 -196 l -304 -196 l -304 -96 l -214 -96 q -130 -124 -156 -96 q -104 -214 -104 -151 l -104 -362 l -221 -362 z "},"ู":{"ha":0,"x_min":-539,"x_max":-104,"o":"m -285 -378 q -418 -340 -374 -378 q -462 -232 -462 -303 l -462 -193 l -539 -193 l -539 -96 l -351 -96 l -351 -232 q -332 -278 -351 -264 q -285 -292 -312 -292 q -237 -278 -257 -292 q -218 -232 -218 -264 l -218 -96 l -104 -96 l -104 -232 q -150 -340 -104 -303 q -285 -378 -196 -378 z "},"ฺ":{"ha":0,"x_min":-262,"x_max":-81,"o":"m -81 -174 q -107 -235 -81 -210 q -172 -261 -133 -261 q -235 -235 -208 -261 q -262 -174 -262 -210 q -235 -111 -262 -137 q -172 -85 -208 -85 q -107 -111 -133 -85 q -81 -174 -81 -137 z "},"฿":{"ha":794,"x_min":103,"x_max":750,"o":"m 378 0 l 103 0 l 103 903 l 378 903 l 378 1042 l 456 1042 l 456 901 q 647 827 583 892 q 711 661 711 763 q 697 590 711 621 q 663 537 683 560 q 617 499 642 514 q 571 475 593 483 q 635 454 603 469 q 692 413 667 439 q 734 351 718 388 q 750 264 750 314 q 677 81 750 153 q 456 1 604 10 l 456 -139 l 378 -139 l 378 0 m 378 104 l 378 415 l 217 415 l 217 104 l 378 104 m 378 518 l 378 799 l 217 799 l 217 518 l 378 518 m 636 264 q 623 330 636 303 q 586 375 610 357 q 529 402 563 393 q 456 414 496 411 l 456 106 q 588 153 540 113 q 636 264 636 193 m 597 667 q 559 757 597 725 q 456 796 521 789 l 456 521 q 556 565 515 529 q 597 667 597 600 z "},"เ":{"ha":336,"x_min":108,"x_max":228,"o":"m 108 0 l 108 778 l 228 778 l 228 0 l 108 0 z "},"แ":{"ha":606,"x_min":108,"x_max":497,"o":"m 108 0 l 108 778 l 225 778 l 225 0 l 108 0 m 381 0 l 381 778 l 497 778 l 497 0 l 381 0 z "},"โ":{"ha":381,"x_min":-14,"x_max":542,"o":"m 144 0 l 144 854 q 124 965 144 918 q 78 1045 104 1013 q 26 1095 51 1078 q -11 1117 0 1113 l -14 1142 q 42 1210 8 1181 q 119 1260 76 1240 q 210 1290 161 1281 q 313 1300 260 1300 q 449 1290 397 1300 q 542 1263 500 1279 l 524 1157 q 430 1189 483 1179 q 324 1199 376 1199 q 202 1183 257 1199 q 122 1136 147 1168 q 228 1019 192 1099 q 264 843 264 939 l 264 0 l 144 0 z "},"ใ":{"ha":381,"x_min":-51,"x_max":438,"o":"m 144 0 l 144 749 q 171 853 144 807 q 228 940 197 900 q 286 1018 260 981 q 313 1096 313 1056 q 287 1168 313 1140 q 200 1196 261 1196 q 92 1172 149 1196 q -14 1100 35 1149 l -51 1183 q -6 1230 -33 1208 q 57 1267 22 1251 q 131 1291 92 1282 q 208 1300 169 1300 q 307 1284 264 1300 q 379 1240 350 1268 q 423 1176 408 1213 q 438 1096 438 1139 q 410 1001 438 1044 q 351 916 383 958 q 291 826 318 874 q 264 719 264 779 l 264 0 l 144 0 z "},"ไ":{"ha":381,"x_min":-92,"x_max":404,"o":"m 144 0 l 144 926 q 173 1074 144 1011 q 251 1181 201 1136 l -92 1181 l -92 1279 l 404 1279 l 404 1196 q 301 1105 338 1165 q 264 953 264 1044 l 264 0 l 144 0 z "},"ๅ":{"ha":658,"x_min":14,"x_max":554,"o":"m 435 -278 l 435 501 q 269 689 435 689 q 144 665 203 689 q 46 607 86 640 l 14 697 q 65 733 35 715 q 130 763 94 750 q 203 784 165 776 q 281 792 242 792 q 485 715 417 792 q 554 496 554 638 l 554 -278 l 435 -278 z "},"ๆ":{"ha":776,"x_min":69,"x_max":672,"o":"m 553 -278 l 553 578 q 486 697 553 685 l 372 615 l 256 697 q 169 607 169 678 q 193 544 169 567 q 257 522 217 522 q 294 528 279 522 l 308 438 q 276 430 293 432 q 243 428 258 428 q 178 438 210 428 q 123 470 147 449 q 84 526 99 492 q 69 607 69 560 q 85 681 69 649 q 128 735 101 713 q 189 773 154 758 q 261 794 224 788 l 372 710 l 485 794 q 567 772 532 792 q 626 722 603 753 q 661 652 650 692 q 672 569 672 613 l 672 -278 l 553 -278 z "},"็":{"ha":0,"x_min":-614,"x_max":-153,"o":"m -239 883 q -302 902 -275 883 q -343 950 -329 921 q -382 899 -353 921 q -461 878 -411 878 q -526 890 -497 878 q -574 924 -554 903 q -603 971 -593 944 q -614 1026 -614 997 q -603 1085 -614 1057 q -572 1135 -593 1113 q -518 1170 -551 1157 q -439 1183 -485 1183 l -154 1183 l -154 1089 l -435 1089 q -487 1069 -472 1089 q -503 1025 -503 1050 q -487 983 -503 1000 q -442 967 -472 967 q -401 985 -418 967 q -379 1022 -383 1003 l -312 1022 q -291 992 -307 1003 q -244 981 -275 981 l -153 981 l -153 883 l -239 883 z "},"่":{"ha":0,"x_min":-217,"x_max":-104,"o":"m -217 1176 l -217 1363 l -104 1363 l -104 1176 l -217 1176 z "},"้":{"ha":0,"x_min":-372,"x_max":25,"o":"m -225 1176 q -266 1192 -249 1176 q -283 1232 -283 1207 l -283 1268 q -286 1285 -283 1279 q -301 1290 -289 1290 l -372 1290 l -372 1388 l -260 1388 q -203 1372 -224 1388 q -182 1322 -182 1356 l -182 1292 q -162 1272 -182 1272 l 25 1272 l 25 1176 l -225 1176 z "},"๊":{"ha":0,"x_min":-481,"x_max":43,"o":"m -185 1176 l -196 1200 q -183 1233 -183 1213 q -195 1263 -183 1253 q -224 1274 -207 1272 l -285 1225 l -346 1269 q -370 1259 -361 1269 q -379 1233 -379 1249 q -376 1208 -379 1222 q -364 1174 -374 1194 l -469 1174 q -478 1212 -476 1193 q -481 1246 -481 1231 q -449 1324 -481 1288 q -356 1367 -418 1361 l -285 1303 l -219 1368 q -110 1243 -99 1364 q -74 1277 -82 1256 q -65 1343 -65 1299 q -69 1376 -65 1361 q -79 1404 -72 1390 l 32 1404 q 39 1380 36 1393 q 43 1350 42 1367 q 31 1283 43 1314 q -5 1228 18 1251 q -59 1190 -28 1204 q -129 1176 -90 1176 l -185 1176 z "},"๋":{"ha":0,"x_min":-307,"x_max":-12,"o":"m -111 1261 l -108 1176 l -212 1176 l -208 1261 l -307 1258 l -307 1342 l -208 1339 l -212 1425 l -108 1425 l -111 1339 l -12 1342 l -12 1258 l -111 1261 z "},"์":{"ha":0,"x_min":-293,"x_max":-26,"o":"m -117 1133 q -155 1123 -142 1133 q -168 1086 -168 1113 l -168 1057 l -293 1057 l -293 1101 q -258 1196 -293 1161 q -151 1231 -222 1231 l -26 1231 l -26 1133 l -117 1133 z "},"ํ":{"ha":0,"x_min":-304,"x_max":-28,"o":"m -167 864 q -221 874 -196 864 q -265 903 -246 885 q -294 948 -283 922 q -304 1003 -304 974 q -294 1057 -304 1032 q -265 1101 -283 1082 q -221 1131 -246 1119 q -167 1142 -196 1142 q -112 1131 -137 1142 q -69 1101 -87 1119 q -39 1057 -50 1082 q -28 1003 -28 1032 q -39 948 -28 974 q -69 903 -50 922 q -112 874 -87 885 q -167 864 -137 864 m -167 943 q -124 961 -140 943 q -107 1004 -107 979 q -124 1047 -107 1031 q -167 1064 -140 1064 q -208 1047 -190 1064 q -225 1004 -225 1031 q -208 961 -225 979 q -167 943 -190 943 z "},"๎":{"ha":0,"x_min":-428,"x_max":-97,"o":"m -199 901 q -235 885 -217 890 q -282 881 -254 881 q -336 888 -310 881 q -383 909 -362 894 q -415 946 -403 924 q -428 1000 -428 968 q -393 1085 -428 1051 q -282 1113 -358 1119 q -294 1135 -290 1122 q -299 1160 -299 1147 q -275 1207 -299 1188 q -200 1226 -251 1226 l -117 1226 l -97 1149 l -181 1149 q -198 1142 -192 1149 q -204 1124 -204 1135 q -169 1085 -204 1101 l -192 1026 q -274 1039 -233 1039 q -328 1000 -328 1039 q -268 960 -328 960 q -235 962 -251 960 q -199 971 -218 964 l -199 901 z "},"๏":{"ha":758,"x_min":83,"x_max":675,"o":"m 379 36 q 264 60 318 36 q 169 124 210 83 q 106 218 129 164 q 83 333 83 272 q 106 449 83 394 q 169 543 129 503 q 264 606 210 583 q 379 629 318 629 q 494 606 440 629 q 589 543 549 583 q 652 449 629 503 q 675 333 675 394 q 652 218 675 272 q 589 124 629 164 q 494 60 549 83 q 379 36 440 36 m 379 83 q 476 103 431 83 q 556 156 522 122 q 610 235 590 190 q 629 333 629 281 q 610 431 629 385 q 556 510 590 476 q 476 564 522 544 q 379 583 431 583 q 282 564 328 583 q 202 510 236 544 q 149 431 168 476 q 129 333 129 385 q 149 235 129 281 q 202 156 168 190 q 282 103 236 122 q 379 83 328 83 m 379 163 q 312 176 343 163 q 257 212 281 189 q 220 266 233 235 q 207 332 207 297 q 221 400 207 368 q 258 455 235 432 q 312 491 281 478 q 378 504 343 504 q 445 491 414 504 q 500 454 476 478 q 537 399 524 431 q 550 333 550 368 q 536 266 550 297 q 499 212 522 235 q 445 176 476 189 q 379 163 414 163 m 379 233 q 448 262 419 233 q 476 333 476 290 q 448 402 476 374 q 378 431 419 431 q 308 401 338 431 q 279 332 279 372 q 308 263 279 292 q 379 233 338 233 z "},"๐":{"ha":886,"x_min":67,"x_max":819,"o":"m 444 685 q 589 661 521 685 q 708 592 657 638 q 790 483 760 547 q 819 336 819 418 q 790 190 819 254 q 708 80 760 125 q 588 11 657 35 q 442 -12 519 -12 q 297 11 365 -12 q 178 80 229 35 q 97 190 126 125 q 67 336 67 254 q 97 483 67 418 q 178 592 126 547 q 298 661 229 638 q 444 685 367 685 m 443 88 q 544 104 497 88 q 627 153 592 121 q 683 231 663 185 q 704 336 704 278 q 683 441 704 394 q 627 519 663 488 q 544 568 592 551 q 443 585 497 585 q 342 568 389 585 q 259 519 294 551 q 203 441 224 488 q 182 336 182 394 q 203 231 182 278 q 259 153 224 185 q 342 104 294 121 q 443 88 389 88 z "},"๑":{"ha":890,"x_min":61,"x_max":824,"o":"m 374 -61 l 419 -61 q 522 -40 471 -61 q 615 24 574 -18 q 683 128 657 65 q 708 272 708 190 q 689 401 708 343 q 633 500 669 460 q 546 563 597 540 q 431 585 494 585 q 325 567 372 585 q 243 517 278 549 q 190 441 208 485 q 171 346 171 397 q 223 197 171 249 q 353 146 275 146 q 416 153 385 146 q 471 169 447 160 q 474 122 472 142 q 478 75 476 101 q 417 53 447 60 q 353 46 388 46 q 240 65 293 46 q 148 122 188 85 q 85 216 108 160 q 61 347 61 272 q 88 483 61 421 q 164 590 115 544 q 281 660 213 635 q 433 685 350 685 q 596 656 524 685 q 719 572 668 626 q 797 442 769 518 q 824 275 824 367 q 791 99 824 178 q 702 -37 758 19 q 571 -126 646 -94 q 411 -157 496 -157 l 363 -157 l 374 -61 z "},"๒":{"ha":1039,"x_min":101,"x_max":942,"o":"m 942 269 q 924 160 942 210 q 874 76 907 111 q 791 20 840 40 q 678 0 742 0 l 365 0 q 251 20 300 0 q 168 76 201 40 q 118 160 135 111 q 101 269 101 210 l 101 778 l 217 778 l 217 269 q 260 141 217 182 q 372 100 303 100 l 671 100 q 783 141 740 100 q 826 269 826 182 l 826 436 q 805 538 826 504 q 733 576 783 571 l 622 489 l 503 579 q 447 539 467 572 q 428 469 428 506 q 460 390 428 421 q 538 344 493 358 l 507 257 q 372 327 421 272 q 322 467 322 382 q 373 616 322 560 q 507 685 424 672 l 622 583 l 728 685 q 892 609 842 674 q 942 432 942 544 l 942 269 z "},"๓":{"ha":918,"x_min":78,"x_max":821,"o":"m 413 250 l 413 451 q 392 549 413 514 q 321 585 372 585 q 260 566 285 585 q 221 515 236 547 q 199 436 206 482 q 193 336 193 390 q 228 150 193 215 q 322 85 263 85 q 357 88 340 85 q 389 97 374 92 l 411 18 q 318 -8 372 -8 q 217 17 261 -8 q 142 87 172 42 q 94 195 111 132 q 78 335 78 258 q 92 476 78 411 q 135 587 106 540 q 207 659 164 633 q 308 685 250 685 q 413 656 378 685 q 465 586 449 628 q 522 656 485 628 q 625 685 558 685 q 712 668 675 685 q 773 622 749 651 q 809 550 797 592 q 821 460 821 508 l 821 0 l 706 0 l 706 461 q 703 506 706 483 q 691 546 700 528 q 665 574 682 564 q 619 585 649 585 q 540 549 563 585 q 517 451 517 514 l 517 250 l 413 250 z "},"๔":{"ha":849,"x_min":67,"x_max":821,"o":"m 724 0 q 613 13 654 0 q 536 61 571 25 q 469 8 510 29 q 350 -14 428 -14 q 237 10 289 -14 q 147 80 185 35 q 88 189 110 125 q 67 332 67 253 q 96 480 67 417 q 175 585 125 543 q 294 649 225 628 q 442 671 363 671 l 583 671 q 646 678 622 671 q 683 697 669 685 q 701 725 696 708 q 706 761 706 742 l 706 778 l 821 778 l 821 761 q 767 620 821 669 q 604 571 713 571 l 443 571 q 337 558 385 571 q 254 516 289 544 q 201 442 219 488 q 182 335 182 397 q 197 231 182 278 q 239 152 213 185 q 301 102 265 119 q 376 85 336 85 q 446 96 418 85 q 496 128 474 107 q 463 240 463 176 q 476 315 463 282 q 514 369 490 347 q 569 403 538 392 q 635 415 600 415 l 732 415 l 710 318 l 661 318 q 599 293 625 318 q 574 224 574 268 q 614 131 574 164 q 739 97 654 97 l 810 97 l 789 0 l 724 0 z "},"๕":{"ha":849,"x_min":67,"x_max":821,"o":"m 724 0 q 613 13 654 0 q 536 61 571 25 q 469 8 510 29 q 350 -14 428 -14 q 237 10 289 -14 q 147 80 185 35 q 88 189 110 125 q 67 332 67 253 q 125 532 67 454 q 279 644 183 610 q 269 673 272 658 q 265 704 265 688 q 276 756 265 732 q 303 798 286 781 q 344 826 321 815 q 396 836 368 836 q 447 826 422 836 q 488 798 471 815 q 516 756 506 781 q 526 704 526 732 q 522 671 526 685 l 583 671 q 646 678 622 671 q 683 697 669 685 q 701 725 696 708 q 706 761 706 742 l 706 778 l 821 778 l 821 761 q 767 620 821 669 q 604 571 713 571 l 443 571 q 337 558 385 571 q 254 516 289 544 q 201 442 219 488 q 182 335 182 397 q 197 231 182 278 q 239 152 213 185 q 301 102 265 119 q 376 85 336 85 q 446 96 418 85 q 496 128 474 107 q 463 240 463 176 q 476 315 463 282 q 514 369 490 347 q 569 403 538 392 q 635 415 600 415 l 732 415 l 710 318 l 661 318 q 599 293 625 318 q 574 224 574 268 q 614 131 574 164 q 739 97 654 97 l 810 97 l 789 0 l 724 0 m 396 653 q 433 669 418 653 q 447 706 447 685 q 433 744 447 729 q 396 758 418 758 q 360 744 375 758 q 344 706 344 729 q 360 669 344 685 q 396 653 375 653 z "},"๖":{"ha":857,"x_min":14,"x_max":790,"o":"m 238 318 q 214 277 222 303 q 206 231 206 251 q 219 177 206 203 q 260 131 233 151 q 325 99 286 111 q 414 86 364 86 q 528 105 479 86 q 610 158 578 124 q 659 239 643 192 q 675 344 675 286 q 658 442 675 397 q 610 519 642 486 q 536 569 579 551 q 442 588 493 588 q 303 556 356 588 q 215 474 251 525 l 125 474 l 14 792 l 131 792 l 201 575 q 304 655 238 625 q 450 685 371 685 q 585 660 522 685 q 693 589 647 635 q 765 480 739 543 q 790 340 790 417 q 769 206 790 271 q 701 93 747 142 q 585 15 656 44 q 415 -14 514 -14 q 283 5 342 -14 q 182 57 224 24 q 117 137 140 90 q 94 240 94 183 q 113 321 94 283 q 151 381 131 358 l 238 318 z "},"๗":{"ha":1118,"x_min":78,"x_max":1017,"o":"m 386 417 l 386 493 q 371 558 386 531 q 318 585 356 585 q 259 566 283 585 q 220 515 235 547 q 199 436 206 482 q 193 336 193 390 q 231 150 193 215 q 322 85 268 85 q 358 88 340 85 q 389 97 375 92 l 411 18 q 368 -3 390 3 q 318 -8 346 -8 q 217 17 261 -8 q 142 87 172 42 q 94 195 111 132 q 78 335 78 258 q 93 476 78 411 q 138 587 108 540 q 210 659 167 633 q 308 685 253 685 q 398 658 369 685 q 438 592 426 632 q 494 658 457 632 q 593 685 532 685 q 660 668 631 685 q 710 622 689 651 q 741 550 731 592 q 751 460 751 508 l 751 88 l 785 88 q 869 126 838 88 q 901 232 901 164 l 901 778 l 1017 778 l 1017 250 q 1002 150 1017 196 q 958 71 988 104 q 885 19 929 38 q 783 0 842 0 l 639 0 l 639 461 q 637 506 639 483 q 627 546 635 528 q 604 574 619 564 q 563 585 589 585 q 507 559 526 585 q 488 493 488 533 l 488 417 l 386 417 z "},"๘":{"ha":885,"x_min":94,"x_max":835,"o":"m 408 571 q 260 517 310 571 q 210 381 210 464 l 210 221 q 240 135 210 172 q 314 99 269 99 l 469 249 l 635 100 q 703 149 681 113 q 726 232 726 185 q 692 323 726 288 q 610 365 658 358 l 646 451 q 721 428 686 447 q 781 378 756 408 q 820 308 806 347 q 835 229 835 269 q 816 138 835 181 q 766 65 797 96 q 696 15 735 33 q 617 -6 657 -4 l 469 131 l 340 -6 q 163 53 232 -3 q 94 218 94 110 l 94 389 q 116 498 94 447 q 177 588 138 549 q 273 649 217 626 q 400 671 329 671 l 568 671 q 631 678 607 671 q 667 697 654 685 q 685 725 681 708 q 690 761 690 742 l 690 778 l 806 778 l 806 761 q 751 620 806 669 q 589 571 697 571 l 408 571 z "},"๙":{"ha":868,"x_min":58,"x_max":854,"o":"m 610 0 l 447 463 q 401 552 428 521 q 321 583 375 583 q 260 565 288 583 q 213 514 232 547 q 184 435 194 481 q 174 336 174 390 q 186 229 174 276 q 218 149 199 182 q 263 98 238 115 q 317 81 289 81 q 359 87 335 81 q 403 106 383 93 l 425 26 q 373 -1 401 10 q 313 -12 344 -12 q 214 10 260 -12 q 133 77 168 33 q 78 186 99 121 q 58 335 58 251 q 78 476 58 411 q 133 587 99 540 q 213 659 167 633 q 314 685 260 685 q 385 677 356 685 q 435 655 414 669 q 473 621 457 640 q 501 579 489 601 q 529 660 497 635 q 603 685 561 685 q 676 666 647 685 q 721 611 704 647 l 750 778 l 854 778 l 801 500 l 719 500 q 687 563 707 535 q 631 592 667 592 q 574 563 594 592 q 554 497 554 533 l 724 0 l 610 0 z "},"๚":{"ha":1033,"x_min":56,"x_max":926,"o":"m 536 0 l 536 581 q 497 527 522 551 q 438 485 471 503 q 367 459 406 468 q 289 450 329 450 q 181 471 225 450 q 108 528 136 492 q 68 616 81 565 q 56 728 56 667 l 56 778 l 172 778 l 172 726 q 206 590 172 636 q 315 544 240 544 q 396 563 356 544 q 469 612 436 582 q 522 680 501 642 q 542 757 542 718 l 542 778 l 656 778 l 656 546 q 715 583 686 560 q 765 635 743 606 q 800 695 788 664 q 813 757 813 726 l 813 778 l 926 778 l 926 0 l 807 0 l 807 581 q 747 507 788 539 q 656 453 707 475 l 656 0 l 536 0 z "},"๛":{"ha":1585,"x_min":83,"x_max":1557,"o":"m 1557 261 q 1490 245 1521 250 q 1435 240 1458 240 q 1328 272 1372 240 q 1256 367 1283 304 l 1196 169 l 1143 169 l 1051 419 l 967 144 l 913 144 l 826 390 q 770 263 807 322 q 681 160 733 204 q 565 92 629 117 q 428 67 500 67 q 290 92 353 67 q 181 163 226 118 q 109 269 135 207 q 83 401 83 331 q 104 526 83 468 q 164 625 125 583 q 258 690 203 667 q 381 714 313 714 q 484 692 438 714 q 564 632 531 669 q 617 547 597 594 q 638 449 636 499 l 543 449 q 493 574 538 524 q 378 624 449 624 q 294 604 331 624 q 233 553 258 585 q 196 483 208 522 q 183 401 183 443 q 202 303 183 347 q 254 228 221 260 q 332 178 288 196 q 428 161 376 161 q 583 205 519 161 q 689 315 647 249 q 751 459 731 381 q 776 608 772 538 l 839 608 l 940 317 l 1017 579 l 1078 579 l 1165 331 l 1233 549 l 1286 549 q 1340 381 1300 442 q 1449 319 1381 319 q 1529 333 1489 319 l 1557 261 z "},"–":{"ha":714,"x_min":42,"x_max":672,"o":"m 672 393 l 672 313 l 42 313 l 42 393 l 672 393 z "},"—":{"ha":1381,"x_min":97,"x_max":1283,"o":"m 1283 393 l 1283 313 l 97 313 l 97 393 l 1283 393 z "},"‘":{"ha":300,"x_min":83,"x_max":233,"o":"m 218 944 q 197 901 207 925 q 179 855 186 878 q 168 813 172 832 q 164 781 164 793 q 178 763 164 763 q 219 745 206 763 q 233 696 233 728 q 215 644 233 664 q 160 625 196 625 q 83 711 83 625 q 91 770 83 738 q 110 836 99 803 q 138 900 122 869 q 169 954 153 931 l 218 944 z "},"’":{"ha":300,"x_min":67,"x_max":217,"o":"m 82 635 q 103 678 93 654 q 121 724 114 701 q 132 767 128 747 q 136 799 136 786 q 122 817 136 817 q 81 834 94 817 q 67 883 67 851 q 85 935 67 915 q 140 954 104 954 q 217 868 217 954 q 209 809 217 842 q 190 743 201 776 q 163 678 178 710 q 131 625 147 647 l 82 635 l 82 635 z "},"‚":{"ha":300,"x_min":67,"x_max":217,"o":"m 82 -154 q 103 -111 93 -135 q 121 -65 114 -87 q 132 -22 128 -42 q 136 10 136 -3 q 122 28 136 28 q 81 45 94 28 q 67 94 67 63 q 85 146 67 126 q 140 165 104 165 q 217 79 217 165 q 209 20 217 53 q 190 -46 201 -12 q 163 -110 178 -79 q 131 -164 147 -142 l 82 -154 l 82 -154 z "},"“":{"ha":522,"x_min":83,"x_max":456,"o":"m 440 944 q 419 901 429 925 q 401 855 408 878 q 390 813 394 832 q 386 781 386 793 q 400 763 386 763 q 442 745 428 763 q 456 696 456 728 q 437 644 456 664 q 382 625 418 625 q 306 711 306 625 q 313 770 306 738 q 333 836 321 803 q 360 900 344 869 q 392 954 375 931 l 440 944 m 218 944 q 197 901 207 925 q 179 855 186 878 q 168 813 172 832 q 164 781 164 793 q 178 763 164 763 q 219 745 206 763 q 233 696 233 728 q 215 644 233 664 q 160 625 196 625 q 83 711 83 625 q 91 770 83 738 q 110 836 99 803 q 138 900 122 869 q 169 954 153 931 l 218 944 z "},"”":{"ha":522,"x_min":67,"x_max":439,"o":"m 82 635 q 103 678 93 654 q 121 724 114 701 q 132 767 128 747 q 136 799 136 786 q 122 817 136 817 q 81 834 94 817 q 67 883 67 851 q 85 935 67 915 q 140 954 104 954 q 217 868 217 954 q 209 809 217 842 q 190 743 201 776 q 163 678 178 710 q 131 625 147 647 l 82 635 m 304 635 q 326 678 315 654 q 343 724 336 701 q 354 767 350 747 q 358 799 358 786 q 344 817 358 817 q 303 834 317 817 q 289 883 289 851 q 308 935 289 915 q 363 954 326 954 q 439 868 439 954 q 431 809 439 842 q 412 743 424 776 q 385 678 400 710 q 353 625 369 647 l 304 635 z "},"„":{"ha":522,"x_min":67,"x_max":439,"o":"m 82 -154 q 103 -111 93 -135 q 121 -65 114 -87 q 132 -22 128 -42 q 136 10 136 -3 q 122 28 136 28 q 81 45 94 28 q 67 94 67 63 q 85 146 67 126 q 140 165 104 165 q 217 79 217 165 q 209 20 217 53 q 190 -46 201 -12 q 163 -110 178 -79 q 131 -164 147 -142 l 82 -154 m 304 -154 q 326 -111 315 -135 q 343 -65 336 -87 q 354 -22 350 -42 q 358 10 358 -3 q 344 28 358 28 q 303 45 317 28 q 289 94 289 63 q 308 146 289 126 q 363 165 326 165 q 439 79 439 165 q 431 20 439 53 q 412 -46 424 -12 q 385 -110 400 -79 q 353 -164 369 -142 l 304 -154 z "},"†":{"ha":753,"x_min":83,"x_max":669,"o":"m 433 936 l 433 671 l 669 671 l 669 576 l 433 576 l 433 0 l 319 0 l 319 576 l 83 576 l 83 671 l 319 671 l 319 936 l 433 936 z "},"‡":{"ha":753,"x_min":83,"x_max":669,"o":"m 319 -69 l 319 196 l 83 196 l 83 290 l 319 290 l 319 576 l 83 576 l 83 671 l 319 671 l 319 936 l 433 936 l 433 671 l 669 671 l 669 576 l 433 576 l 433 290 l 669 290 l 669 196 l 433 196 l 433 -69 l 319 -69 z "},"•":{"ha":431,"x_min":69,"x_max":361,"o":"m 361 478 q 324 376 361 419 q 214 332 288 332 q 106 374 142 332 q 69 475 69 417 q 106 577 69 535 q 215 619 142 619 q 324 578 288 619 q 361 478 361 536 z "},"…":{"ha":1008,"x_min":83,"x_max":925,"o":"m 83 69 q 106 128 83 104 q 168 153 128 153 q 231 128 208 153 q 253 69 253 104 q 231 10 253 35 q 168 -14 208 -14 q 106 10 128 -14 q 83 69 83 35 m 419 69 q 442 128 419 104 q 504 153 464 153 q 567 128 544 153 q 589 69 589 104 q 567 10 589 35 q 504 -14 544 -14 q 442 10 464 -14 q 419 69 419 35 m 756 69 q 778 128 756 104 q 840 153 800 153 q 903 128 881 153 q 925 69 925 104 q 903 10 925 35 q 840 -14 881 -14 q 778 10 800 -14 q 756 69 756 35 z "},"‰":{"ha":1567,"x_min":58,"x_max":1508,"o":"m 744 917 l 842 917 l 333 0 l 236 0 l 744 917 m 153 672 q 158 610 153 640 q 176 556 164 579 q 208 518 189 532 q 256 504 228 504 q 303 519 283 504 q 335 556 322 533 q 353 609 347 579 q 358 671 358 639 q 353 733 358 703 q 335 788 347 764 q 303 826 322 811 q 256 840 283 840 q 208 826 228 840 q 176 788 189 811 q 158 733 164 764 q 153 672 153 703 m 58 672 q 71 767 58 722 q 108 844 83 811 q 170 897 133 878 q 256 917 207 917 q 340 897 303 917 q 401 844 376 878 q 440 767 426 811 q 453 672 453 722 q 440 578 453 622 q 401 500 426 533 q 340 447 376 467 q 256 428 303 428 q 170 447 207 428 q 108 500 133 467 q 71 578 83 533 q 58 672 58 622 m 719 231 q 725 168 719 199 q 743 114 731 138 q 775 76 756 90 q 822 63 794 63 q 869 77 850 63 q 901 115 889 92 q 919 167 914 138 q 925 229 925 197 q 919 292 925 261 q 901 346 914 322 q 869 384 889 369 q 822 399 850 399 q 775 384 794 399 q 743 346 756 369 q 725 292 731 322 q 719 231 719 261 m 625 231 q 638 325 625 281 q 675 403 650 369 q 737 456 700 436 q 822 475 774 475 q 906 456 869 475 q 968 403 943 436 q 1006 325 993 369 q 1019 231 1019 281 q 1006 136 1019 181 q 968 58 993 92 q 906 6 943 25 q 822 -14 869 -14 q 737 6 774 -14 q 675 58 700 25 q 638 136 650 92 q 625 231 625 181 m 1208 231 q 1214 168 1208 199 q 1232 114 1219 138 q 1264 76 1244 90 q 1311 63 1283 63 q 1358 77 1339 63 q 1390 115 1378 92 q 1408 167 1403 138 q 1414 229 1414 197 q 1408 292 1414 261 q 1390 346 1403 322 q 1358 384 1378 369 q 1311 399 1339 399 q 1264 384 1283 399 q 1232 346 1244 369 q 1214 292 1219 322 q 1208 231 1208 261 m 1114 231 q 1126 325 1114 281 q 1164 403 1139 369 q 1226 456 1189 436 q 1311 475 1263 475 q 1395 456 1358 475 q 1457 403 1432 436 q 1495 325 1482 369 q 1508 231 1508 281 q 1495 136 1508 181 q 1457 58 1482 92 q 1395 6 1432 25 q 1311 -14 1358 -14 q 1226 6 1263 -14 q 1164 58 1189 25 q 1126 136 1139 92 q 1114 231 1114 181 z "},"‹":{"ha":385,"x_min":56,"x_max":329,"o":"m 150 336 l 329 86 l 235 86 l 56 336 l 235 586 l 329 586 l 150 336 z "},"›":{"ha":383,"x_min":56,"x_max":328,"o":"m 56 586 l 149 586 l 328 336 l 149 86 l 56 86 l 235 336 l 56 586 z "},"⁄":{"ha":606,"x_min":-14,"x_max":592,"o":"m 494 917 l 592 917 l 83 0 l -14 0 l 494 917 z "},"€":{"ha":794,"x_min":64,"x_max":742,"o":"m 85 403 l 172 403 q 169 435 169 418 q 169 468 169 451 q 169 493 169 481 q 171 518 169 506 l 64 518 l 85 586 l 178 586 q 222 735 190 668 q 299 849 253 801 q 404 924 344 897 q 535 950 464 950 q 649 931 606 950 q 731 878 693 911 l 700 778 q 630 824 668 807 q 542 842 592 842 q 381 776 444 842 q 297 586 318 710 l 607 586 l 586 518 l 290 518 q 289 493 289 506 q 289 468 289 481 q 289 434 289 450 q 292 403 289 418 l 607 403 l 586 335 l 301 335 q 389 156 325 218 q 547 94 453 94 q 638 112 597 94 q 711 158 679 129 l 742 58 q 658 6 704 25 q 540 -14 611 -14 q 412 11 471 -14 q 306 82 353 36 q 228 192 260 128 q 181 335 196 256 l 64 335 l 85 403 z "},"ℓ":{"ha":554,"x_min":14,"x_max":513,"o":"m 276 221 q 295 118 276 146 q 363 90 314 90 q 433 104 400 90 l 463 13 q 417 -6 443 1 q 360 -12 392 -12 q 262 2 300 -12 q 201 47 224 17 q 169 120 178 76 q 160 222 160 164 l 160 256 l 54 188 l 14 244 q 89 293 53 268 q 160 349 125 318 l 160 653 q 210 893 160 818 q 344 968 260 968 q 466 915 419 968 q 513 750 513 861 q 453 515 513 621 q 276 321 393 408 l 276 221 m 276 428 q 374 575 346 490 q 401 750 401 660 q 388 854 401 822 q 346 886 374 886 q 316 876 329 886 q 294 839 303 865 q 281 767 285 813 q 276 653 276 722 l 276 428 z "},"™":{"ha":1081,"x_min":28,"x_max":1011,"o":"m 264 869 l 264 410 l 183 410 l 183 869 l 28 868 l 28 936 l 422 936 l 422 868 l 264 869 m 760 565 q 776 613 767 589 q 794 657 785 636 l 918 936 l 1011 936 l 1011 410 l 932 410 l 932 728 q 934 771 932 751 q 938 808 936 790 l 935 808 q 925 778 932 797 q 907 735 918 760 l 800 494 l 718 494 l 611 735 q 593 778 600 760 q 583 808 586 797 l 581 808 q 584 771 582 790 q 586 728 586 751 l 586 410 l 507 410 l 507 936 l 600 936 l 724 657 q 742 613 733 636 q 758 565 751 589 l 760 565 z "},"Ω":{"ha":1044,"x_min":97,"x_max":947,"o":"m 525 839 q 299 753 381 839 q 217 510 217 667 q 241 367 217 435 q 301 244 265 300 q 378 145 338 188 q 453 76 419 103 l 453 0 l 149 0 l 149 104 l 315 104 q 247 171 285 131 q 176 265 210 211 q 120 385 143 318 q 97 531 97 451 q 127 703 97 626 q 212 835 157 781 q 345 920 267 890 q 522 950 424 950 q 699 920 619 950 q 833 835 778 890 q 917 703 888 781 q 947 531 947 626 q 924 385 947 451 q 868 265 901 318 q 797 171 835 211 q 729 104 760 131 l 896 104 l 896 0 l 592 0 l 592 76 q 666 145 625 103 q 743 244 707 188 q 803 367 779 300 q 828 510 828 435 q 747 753 828 667 q 525 839 665 839 z "},"℮":{"ha":1136,"x_min":50,"x_max":1086,"o":"m 1086 429 l 239 429 l 239 175 q 283 133 251 160 q 358 82 314 107 q 456 38 401 57 q 567 19 510 19 q 680 36 626 19 q 776 76 733 53 q 851 127 819 100 q 897 175 882 154 l 997 175 q 804 31 918 79 q 568 -18 690 -18 q 367 16 461 -18 q 202 112 272 50 q 91 260 132 174 q 50 449 50 346 q 91 636 50 550 q 202 784 132 722 q 367 881 272 846 q 568 915 461 915 q 769 881 675 915 q 934 786 864 847 q 1045 642 1004 725 q 1086 460 1086 558 l 1086 429 m 897 721 q 851 769 882 742 q 776 820 819 796 q 679 860 732 844 q 567 876 626 876 q 456 858 510 876 q 358 814 401 839 q 283 763 314 789 q 239 721 251 736 l 239 468 l 897 468 l 897 721 z "},"∂":{"ha":833,"x_min":56,"x_max":772,"o":"m 415 497 q 315 474 360 497 q 240 414 271 451 q 193 328 210 376 q 176 229 176 281 q 213 124 176 161 q 317 86 250 86 q 406 107 361 86 q 491 169 451 128 q 563 268 531 210 q 614 401 594 326 q 536 469 586 440 q 415 497 486 497 m 475 817 q 380 806 422 817 q 299 772 338 794 l 285 864 q 378 902 322 888 q 488 917 435 917 q 699 838 626 917 q 772 619 772 758 q 759 485 772 557 q 719 344 746 414 q 654 209 693 274 q 565 94 615 144 q 452 15 514 44 q 318 -14 390 -14 q 119 51 182 -14 q 56 225 56 115 q 82 362 56 294 q 156 482 108 429 q 271 567 204 535 q 417 599 338 599 q 500 589 464 599 q 563 564 536 579 q 609 530 590 549 q 639 494 628 511 q 656 621 656 565 q 609 767 656 717 q 475 817 563 817 z "},"∆":{"ha":868,"x_min":42,"x_max":826,"o":"m 433 743 l 186 93 l 676 93 l 433 743 m 826 0 l 42 0 l 411 936 l 456 936 l 826 0 z "},"∏":{"ha":853,"x_min":125,"x_max":728,"o":"m 125 936 l 728 936 l 728 -67 l 608 -67 l 608 825 l 244 825 l 244 -67 l 125 -67 l 125 936 z "},"∑":{"ha":758,"x_min":56,"x_max":703,"o":"m 56 -67 l 56 -15 l 406 438 l 82 879 l 82 936 l 676 936 l 676 850 l 224 850 l 525 440 l 203 19 l 703 19 l 703 -67 l 56 -67 z "},"−":{"ha":794,"x_min":110,"x_max":685,"o":"m 685 442 l 685 347 l 110 347 l 110 442 l 685 442 z "},"√":{"ha":722,"x_min":28,"x_max":681,"o":"m 28 489 l 28 579 l 213 579 l 347 118 l 579 936 l 681 936 l 406 -17 l 294 -17 l 142 489 l 28 489 z "},"∞":{"ha":1064,"x_min":75,"x_max":989,"o":"m 486 429 q 400 517 449 485 q 296 550 351 550 q 203 515 235 550 q 172 431 172 479 q 208 340 172 374 q 299 306 243 306 q 403 342 356 306 q 486 429 451 378 m 892 431 q 861 515 892 479 q 765 550 831 550 q 663 518 707 550 q 578 429 619 486 q 662 338 614 371 q 767 306 710 306 q 861 344 831 306 q 892 431 892 382 m 989 432 q 974 350 989 388 q 931 285 958 313 q 863 241 903 257 q 774 225 824 225 q 634 263 696 225 q 533 358 572 301 l 531 358 q 430 265 489 306 q 290 225 371 225 q 205 240 244 225 q 136 281 165 254 q 91 345 107 307 q 75 429 75 383 q 91 512 75 475 q 136 576 107 549 q 205 617 165 603 q 292 632 244 632 q 368 621 333 632 q 433 592 403 610 q 487 549 463 574 q 531 499 511 525 l 533 499 q 572 543 549 519 q 624 587 594 567 q 690 619 654 607 q 771 632 726 632 q 858 617 818 632 q 926 576 897 603 q 972 513 956 550 q 989 432 989 476 z "},"∫":{"ha":600,"x_min":56,"x_max":544,"o":"m 358 174 q 349 69 358 115 q 317 -9 340 24 q 256 -58 294 -42 q 158 -75 218 -75 q 101 -68 126 -75 q 56 -50 75 -61 l 85 42 q 156 28 118 28 q 225 63 208 28 q 242 172 242 97 l 242 701 q 251 806 242 760 q 283 884 260 851 q 344 933 306 917 q 442 950 382 950 q 499 943 474 950 q 544 925 525 936 l 515 833 q 444 847 482 847 q 375 813 392 847 q 358 703 358 778 l 358 174 z "},"≈":{"ha":794,"x_min":69,"x_max":725,"o":"m 725 551 q 649 453 697 494 q 536 413 600 413 q 449 431 485 413 q 382 469 413 449 q 324 508 351 490 q 263 526 296 526 q 180 497 210 526 q 126 431 150 468 l 69 492 q 99 540 81 515 q 140 584 117 564 q 194 617 164 604 q 260 629 224 629 q 347 612 311 629 q 412 573 382 594 q 469 534 442 551 q 533 517 497 517 q 613 546 581 517 q 668 611 644 575 l 725 551 m 725 303 q 649 205 697 246 q 536 164 600 164 q 449 182 485 164 q 382 221 413 200 q 324 260 351 242 q 263 278 296 278 q 180 249 210 278 q 126 182 150 219 l 69 243 q 99 291 81 267 q 140 335 117 315 q 194 368 164 356 q 260 381 224 381 q 347 363 311 381 q 412 324 382 346 q 469 285 442 303 q 533 268 497 268 q 613 297 581 268 q 668 363 644 326 l 725 303 z "},"≠":{"ha":794,"x_min":117,"x_max":678,"o":"m 513 567 l 678 567 l 678 472 l 475 472 l 413 317 l 678 317 l 678 222 l 375 222 l 288 0 l 194 0 l 282 222 l 117 222 l 117 317 l 319 317 l 382 472 l 117 472 l 117 567 l 419 567 l 514 803 l 607 803 l 513 567 z "},"≤":{"ha":794,"x_min":92,"x_max":683,"o":"m 92 503 l 683 824 l 683 713 l 210 464 l 683 215 l 683 104 l 92 425 l 92 503 m 683 81 l 683 0 l 92 0 l 92 81 l 683 81 z "},"≥":{"ha":794,"x_min":111,"x_max":703,"o":"m 703 81 l 703 0 l 111 0 l 111 81 l 703 81 m 703 425 l 111 104 l 111 215 l 585 464 l 111 713 l 111 824 l 703 503 l 703 425 z "},"◊":{"ha":817,"x_min":56,"x_max":761,"o":"m 647 475 l 408 828 l 168 475 l 408 121 l 647 475 m 761 475 l 443 0 l 374 0 l 56 474 l 374 950 l 443 950 l 761 475 z "},"":{"ha":753,"x_min":19,"x_max":708,"o":"m 242 0 l 167 313 q 154 337 163 331 q 131 343 146 343 l 78 343 l 78 446 l 140 446 q 231 424 199 446 q 278 336 263 401 l 332 103 l 350 103 q 430 124 392 103 q 498 184 468 144 q 546 282 528 224 q 564 415 564 340 q 502 624 564 558 q 325 689 440 689 q 176 660 246 689 q 57 589 107 632 l 19 682 q 157 761 78 731 q 324 792 236 792 q 503 751 426 792 l 572 832 l 708 832 l 588 688 q 683 414 683 585 q 658 247 683 322 q 588 116 633 171 q 478 31 542 61 q 339 0 415 0 l 242 0 z "},"":{"ha":0,"x_min":-819,"x_max":-293,"o":"m -819 883 l -819 981 l -293 981 l -293 883 l -819 883 z "},"":{"ha":0,"x_min":-819,"x_max":-293,"o":"m -819 883 l -819 981 l -406 981 l -406 1108 l -293 1108 l -293 883 l -819 883 z "},"":{"ha":0,"x_min":-819,"x_max":-261,"o":"m -389 883 l -819 883 l -819 981 l -504 981 q -506 994 -506 988 q -507 1007 -507 1000 q -472 1095 -507 1060 q -385 1131 -436 1131 q -297 1095 -332 1131 q -261 1007 -261 1060 q -295 921 -261 956 q -379 883 -329 886 l -385 883 l -389 883 m -385 958 q -350 974 -364 958 q -336 1008 -336 989 q -350 1043 -336 1029 q -385 1057 -364 1057 q -418 1043 -404 1057 q -432 1008 -432 1029 q -418 974 -432 989 q -385 958 -404 958 z "},"":{"ha":0,"x_min":-819,"x_max":-293,"o":"m -819 883 l -819 981 l -564 981 l -564 1108 l -465 1108 l -465 978 l -392 978 l -392 1108 l -293 1108 l -293 883 l -819 883 z "},"":{"ha":0,"x_min":-493,"x_max":-376,"o":"m -493 883 l -493 1114 l -376 1114 l -376 883 l -493 883 z "},"":{"ha":0,"x_min":-640,"x_max":-201,"o":"m -482 883 q -524 900 -506 883 q -542 944 -542 917 l -542 983 q -546 1005 -542 999 q -567 1011 -550 1011 l -640 1011 l -640 1108 l -526 1108 q -465 1092 -487 1108 q -442 1039 -442 1075 l -442 1004 q -437 987 -442 993 q -417 981 -432 981 l -201 981 l -201 883 l -482 883 z "},"":{"ha":0,"x_min":-804,"x_max":-256,"o":"m -499 883 l -510 907 q -496 946 -496 922 q -539 993 -496 992 l -597 939 l -654 989 q -686 976 -674 989 q -699 946 -699 963 q -697 917 -699 931 q -685 881 -694 903 l -792 881 q -801 921 -799 899 q -804 960 -804 943 q -770 1044 -804 1004 q -669 1090 -736 1083 l -599 1018 l -531 1092 q -412 950 -400 1085 q -374 997 -381 968 q -368 1057 -368 1025 q -372 1101 -368 1085 q -382 1132 -375 1117 l -267 1132 q -259 1104 -262 1119 q -256 1060 -256 1089 q -267 994 -256 1026 q -301 938 -279 963 q -355 899 -322 914 q -429 883 -387 883 l -499 883 z "},"":{"ha":0,"x_min":-615,"x_max":-282,"o":"m -397 988 l -394 883 l -506 883 l -501 988 l -615 985 l -615 1071 l -501 1068 l -506 1172 l -394 1172 l -397 1068 l -282 1071 l -282 985 l -397 988 z "},"":{"ha":0,"x_min":-581,"x_max":-292,"o":"m -387 965 q -433 953 -418 965 q -449 910 -449 940 l -449 881 l -581 881 l -581 926 q -542 1030 -581 993 q -426 1067 -504 1067 l -292 1067 l -292 965 l -387 965 z "},"":{"ha":0,"x_min":-221,"x_max":-104,"o":"m -221 883 l -221 1114 l -104 1114 l -104 883 l -221 883 z "},"":{"ha":0,"x_min":-424,"x_max":-12,"o":"m -265 883 q -307 900 -289 883 q -325 944 -325 917 l -325 983 q -329 1005 -325 999 q -350 1011 -333 1011 l -424 1011 l -424 1108 l -310 1108 q -248 1092 -271 1108 q -225 1039 -225 1075 l -225 1004 q -220 987 -225 993 q -200 981 -215 981 l -12 981 l -12 883 l -265 883 z "},"":{"ha":0,"x_min":-560,"x_max":17,"o":"m -240 883 l -251 907 q -237 946 -237 922 q -281 993 -237 992 l -346 939 l -410 989 q -442 976 -429 989 q -454 946 -454 963 q -452 917 -454 931 q -440 881 -450 903 l -547 881 q -557 921 -554 899 q -560 960 -560 943 q -526 1044 -560 1004 q -425 1090 -492 1083 l -347 1018 l -272 1092 q -154 950 -142 1085 q -109 997 -122 968 q -96 1057 -96 1025 q -99 1101 -96 1085 q -110 1132 -103 1117 l 6 1132 q 13 1104 10 1119 q 17 1060 17 1089 q 3 994 17 1026 q -35 938 -11 963 q -94 899 -60 914 q -171 883 -129 883 l -240 883 z "},"":{"ha":0,"x_min":-329,"x_max":4,"o":"m -111 988 l -108 883 l -219 883 l -215 988 l -329 985 l -329 1071 l -215 1068 l -219 1172 l -108 1172 l -111 1068 l 4 1071 l 4 985 l -111 988 z "},"":{"ha":0,"x_min":-322,"x_max":-33,"o":"m -129 965 q -175 953 -160 965 q -190 910 -190 940 l -190 881 l -322 881 l -322 926 q -284 1030 -322 993 q -168 1067 -246 1067 l -33 1067 l -33 965 l -129 965 z "},"":{"ha":1281,"x_min":67,"x_max":1176,"o":"m 1176 267 q 1155 140 1176 193 q 1094 52 1133 86 q 1001 2 1056 18 q 881 -14 947 -14 q 760 2 814 -14 q 667 52 706 18 q 606 140 628 86 q 585 267 585 193 l 585 490 q 537 640 585 590 q 401 689 489 689 q 273 655 331 689 q 193 565 215 621 l 299 468 q 243 420 261 449 q 225 347 225 392 l 225 136 q 231 110 225 119 q 257 100 238 100 l 332 100 l 332 0 l 225 0 q 137 35 168 0 q 106 125 106 71 l 106 331 q 125 407 106 371 q 181 461 144 443 l 67 558 q 108 645 78 603 q 181 720 138 688 q 281 772 225 753 q 401 792 338 792 q 535 769 478 792 q 629 707 592 747 q 685 612 667 667 q 704 490 704 557 l 704 267 q 746 135 704 181 q 879 89 788 89 q 1015 135 974 89 q 1057 267 1057 181 l 1057 778 l 1176 778 l 1176 267 z "},"":{"ha":0,"x_min":-593,"x_max":-126,"o":"m -453 883 q -593 1008 -593 883 l -593 1064 l -479 1064 l -479 1022 q -440 981 -479 981 l -126 981 l -126 883 l -453 883 z "},"":{"ha":0,"x_min":-587,"x_max":-311,"o":"m -450 864 q -504 874 -479 864 q -548 903 -529 885 q -577 948 -567 922 q -587 1003 -587 974 q -577 1057 -587 1032 q -548 1101 -567 1082 q -504 1131 -529 1119 q -450 1142 -479 1142 q -396 1131 -421 1142 q -352 1101 -371 1119 q -322 1057 -333 1082 q -311 1003 -311 1032 q -322 948 -311 974 q -352 903 -333 922 q -396 874 -371 885 q -450 864 -421 864 m -450 943 q -407 961 -424 943 q -390 1004 -390 979 q -407 1047 -390 1031 q -450 1064 -424 1064 q -491 1047 -474 1064 q -508 1004 -508 1031 q -491 961 -508 979 q -450 943 -474 943 z "},"":{"ha":0,"x_min":-746,"x_max":-285,"o":"m -371 883 q -434 902 -407 883 q -475 950 -461 921 q -514 899 -485 921 q -593 878 -543 878 q -658 890 -629 878 q -706 924 -686 903 q -735 971 -725 944 q -746 1026 -746 997 q -735 1085 -746 1057 q -704 1135 -725 1113 q -650 1170 -683 1157 q -571 1183 -617 1183 l -286 1183 l -286 1089 l -567 1089 q -619 1069 -604 1089 q -635 1025 -635 1050 q -619 983 -635 1000 q -574 967 -604 967 q -533 985 -550 967 q -511 1022 -515 1003 l -444 1022 q -423 992 -439 1003 q -376 981 -407 981 l -285 981 l -285 883 l -371 883 z "},"":{"ha":0,"x_min":-404,"x_max":-292,"o":"m -404 1176 l -404 1363 l -292 1363 l -292 1176 l -404 1176 z "},"":{"ha":0,"x_min":-560,"x_max":-162,"o":"m -412 1176 q -453 1192 -436 1176 q -471 1232 -471 1207 l -471 1268 q -474 1285 -471 1279 q -489 1290 -476 1290 l -560 1290 l -560 1388 l -447 1388 q -390 1372 -411 1388 q -369 1322 -369 1356 l -369 1292 q -350 1272 -369 1272 l -162 1272 l -162 1176 l -412 1176 z "},"":{"ha":0,"x_min":-668,"x_max":-144,"o":"m -372 1176 l -383 1200 q -371 1233 -371 1213 q -383 1263 -371 1253 q -411 1274 -394 1272 l -472 1225 l -533 1269 q -558 1259 -549 1269 q -567 1233 -567 1249 q -564 1208 -567 1222 q -551 1174 -561 1194 l -657 1174 q -666 1212 -664 1193 q -668 1246 -668 1231 q -637 1324 -668 1288 q -543 1367 -606 1361 l -472 1303 l -407 1368 q -297 1243 -286 1364 q -261 1277 -269 1256 q -253 1343 -253 1299 q -256 1376 -253 1361 q -267 1404 -260 1390 l -156 1404 q -149 1380 -151 1393 q -144 1350 -146 1367 q -157 1283 -144 1314 q -192 1228 -169 1251 q -247 1190 -215 1204 q -317 1176 -278 1176 l -372 1176 z "},"":{"ha":0,"x_min":-494,"x_max":-200,"o":"m -299 1261 l -296 1176 l -400 1176 l -396 1261 l -494 1258 l -494 1342 l -396 1339 l -400 1425 l -296 1425 l -299 1339 l -200 1342 l -200 1258 l -299 1261 z "},"":{"ha":0,"x_min":-481,"x_max":-214,"o":"m -304 1133 q -342 1123 -329 1133 q -356 1086 -356 1113 l -356 1057 l -481 1057 l -481 1101 q -445 1196 -481 1161 q -339 1231 -410 1231 l -214 1231 l -214 1133 l -304 1133 z "},"":{"ha":0,"x_min":-304,"x_max":-104,"o":"m -221 -578 l -221 -454 q -250 -425 -221 -425 l -304 -425 l -304 -325 l -214 -325 q -130 -353 -156 -325 q -104 -443 -104 -381 l -104 -578 l -221 -578 z "},"":{"ha":0,"x_min":-539,"x_max":-104,"o":"m -285 -593 q -418 -556 -374 -593 q -462 -447 -462 -518 l -462 -422 l -539 -422 l -539 -325 l -351 -325 l -351 -447 q -332 -493 -351 -479 q -285 -507 -312 -507 q -237 -493 -257 -507 q -218 -447 -218 -479 l -218 -325 l -104 -325 l -104 -447 q -150 -556 -104 -518 q -285 -593 -196 -593 z "},"":{"ha":0,"x_min":-262,"x_max":-81,"o":"m -81 -407 q -107 -469 -81 -443 q -172 -494 -133 -494 q -235 -469 -208 -494 q -262 -407 -262 -443 q -235 -344 -262 -371 q -172 -318 -208 -318 q -107 -344 -133 -318 q -81 -407 -81 -371 z "},"":{"ha":853,"x_min":42,"x_max":749,"o":"m 629 490 q 578 640 629 590 q 431 689 526 689 q 290 655 351 689 q 207 565 229 621 l 326 458 q 271 410 289 439 q 253 338 253 382 l 253 125 q 222 35 253 71 q 133 0 190 -1 l 42 0 l 42 100 l 101 100 q 127 110 121 100 q 133 136 133 119 l 133 321 q 153 397 133 361 q 208 451 172 433 l 81 558 q 123 645 92 603 q 200 720 154 688 q 305 772 246 753 q 431 792 364 792 q 569 769 510 792 q 669 707 629 747 q 728 612 708 667 q 749 490 749 557 l 749 -250 l 600 -250 q 521 -196 565 -218 q 419 -174 476 -174 q 303 -194 350 -174 q 211 -250 257 -214 l 179 -158 q 276 -97 219 -122 q 404 -72 333 -72 q 532 -101 471 -72 q 629 -168 593 -131 l 629 490 z "},"":{"ha":853,"x_min":42,"x_max":749,"o":"m 749 -250 l 635 -250 l 469 -151 q 399 -229 447 -200 q 296 -258 350 -258 q 199 -247 246 -258 q 124 -215 153 -235 l 154 -114 q 221 -149 183 -133 q 289 -164 258 -164 q 391 -124 347 -164 q 446 -26 435 -85 l 629 -136 l 629 490 q 578 640 629 590 q 431 689 526 689 q 290 655 351 689 q 207 565 229 621 l 326 458 q 271 410 289 439 q 253 338 253 382 l 253 125 q 222 35 253 71 q 133 0 190 -1 l 42 0 l 42 100 l 101 100 q 127 110 121 100 q 133 136 133 119 l 133 321 q 153 397 133 361 q 208 451 172 433 l 81 558 q 123 645 92 603 q 200 720 154 688 q 305 772 246 753 q 431 792 364 792 q 569 769 510 792 q 669 707 629 747 q 728 612 708 667 q 749 490 749 557 l 749 -250 z "},"":{"ha":917,"x_min":107,"x_max":839,"o":"m 810 0 l 682 0 l 500 351 q 472 417 483 383 q 457 465 460 450 l 454 465 q 440 417 451 450 q 411 351 428 383 l 235 0 l 107 0 l 107 778 l 224 778 l 224 363 q 222 244 224 299 q 211 135 219 190 l 214 135 q 241 222 228 183 q 274 300 254 261 l 408 560 l 503 560 l 642 301 q 677 219 663 263 q 703 135 692 175 l 706 135 q 696 244 699 190 q 693 363 693 299 l 693 489 q 669 572 693 547 q 604 597 644 597 l 578 597 l 561 647 l 708 832 l 839 832 l 682 656 q 777 602 744 647 q 810 490 810 557 l 810 0 z "},"":{"ha":758,"x_min":83,"x_max":675,"o":"m 379 36 q 264 60 318 36 q 169 124 210 83 q 106 218 129 164 q 83 333 83 272 q 106 449 83 394 q 169 543 129 503 q 264 606 210 583 q 379 629 318 629 q 494 606 440 629 q 589 543 549 583 q 652 449 629 503 q 675 333 675 394 q 652 218 675 272 q 589 124 629 164 q 494 60 549 83 q 379 36 440 36 m 379 83 q 476 103 431 83 q 556 156 522 122 q 610 235 590 190 q 629 333 629 281 q 610 431 629 385 q 556 510 590 476 q 476 564 522 544 q 379 583 431 583 q 282 564 328 583 q 202 510 236 544 q 149 431 168 476 q 129 333 129 385 q 149 235 129 281 q 202 156 168 190 q 282 103 236 122 q 379 83 328 83 m 379 163 q 312 176 343 163 q 257 212 281 189 q 220 266 233 235 q 207 332 207 297 q 221 400 207 368 q 258 455 235 432 q 312 491 281 478 q 378 504 343 504 q 445 491 414 504 q 500 454 476 478 q 537 399 524 431 q 550 333 550 368 q 536 266 550 297 q 499 212 522 235 q 445 176 476 189 q 379 163 414 163 m 379 233 q 448 262 419 233 q 476 333 476 290 q 448 402 476 374 q 378 431 419 431 q 308 401 338 431 q 279 332 279 372 q 308 263 279 292 q 379 233 338 233 m 324 671 l 258 671 l 244 953 l 338 953 l 324 671 m 500 671 l 435 671 l 421 953 l 514 953 l 500 671 z "},"":{"ha":1322,"x_min":67,"x_max":1218,"o":"m 225 136 q 231 110 225 119 q 257 100 238 100 l 332 100 l 332 0 l 225 0 q 137 35 168 0 q 106 125 106 71 l 106 331 q 125 407 106 371 q 181 461 144 443 l 67 558 q 109 645 78 603 q 187 720 140 688 q 292 772 233 753 q 418 792 351 792 q 562 768 501 792 q 663 700 622 744 q 772 764 710 736 q 918 792 835 792 q 1046 769 990 792 q 1140 707 1101 747 q 1198 612 1178 667 q 1218 490 1218 557 l 1218 -278 l 1099 -278 l 1099 490 q 1049 640 1099 590 q 911 689 999 689 q 798 667 847 689 q 717 613 749 646 q 738 490 738 558 l 738 -278 l 618 -278 l 618 490 q 566 640 618 590 q 418 689 514 689 q 277 655 339 689 q 193 565 215 621 l 299 468 q 243 420 261 449 q 225 347 225 392 l 225 136 z "},"":{"ha":1329,"x_min":42,"x_max":1225,"o":"m 253 125 q 222 35 253 71 q 133 0 190 -1 l 42 0 l 42 100 l 101 100 q 127 110 121 100 q 133 136 133 119 l 133 321 q 153 397 133 361 q 208 451 172 433 l 81 558 q 123 645 92 603 q 200 720 154 688 q 305 772 246 753 q 431 792 364 792 q 572 768 513 792 q 672 703 632 744 q 781 765 719 739 q 925 792 843 792 q 1053 769 997 792 q 1147 707 1108 747 q 1205 612 1185 667 q 1225 490 1225 557 l 1225 -278 l 1106 -278 l 1106 490 q 1056 640 1106 590 q 918 689 1006 689 q 807 668 856 689 q 726 615 758 647 q 749 490 749 561 l 749 -278 l 629 -278 l 629 490 q 578 640 629 590 q 431 689 526 689 q 290 655 351 689 q 207 565 229 621 l 326 458 q 271 410 289 439 q 253 338 253 382 l 253 125 z "},"ﬁ":{"ha":760,"x_min":25,"x_max":651,"o":"m 651 0 l 535 0 l 535 576 l 242 576 l 242 0 l 128 0 l 128 576 l 25 576 l 25 671 l 128 671 l 128 693 q 190 881 128 811 q 381 950 253 950 q 478 938 433 950 q 551 911 522 926 l 525 826 q 461 849 497 842 q 386 856 425 856 q 274 812 307 856 q 242 692 242 768 l 242 671 l 651 671 l 651 0 z "},"ﬂ":{"ha":801,"x_min":25,"x_max":693,"o":"m 435 671 l 435 576 l 242 576 l 242 0 l 128 0 l 128 576 l 25 576 l 25 671 l 128 671 l 128 693 q 147 794 128 747 q 201 876 167 842 q 281 931 235 911 q 381 950 328 950 q 498 927 451 950 q 576 874 544 904 l 590 936 l 693 936 l 693 0 l 576 0 l 576 790 q 506 836 549 817 q 414 856 464 856 q 288 812 335 856 q 242 692 242 768 l 242 671 l 435 671 z "}}}
